<svg xmlns="http://www.w3.org/2000/svg" width="30" height="30" viewBox="0 0 30 30">
  <g id="dashboard" transform="translate(-75 -220)">
    <g id="dashboard_border" transform="translate(75 220)">
      <path id="Tracé_12635" data-name="Tracé 12635" d="M75.39,2.052a4.074,4.074,0,1,1-4.044,4.074A4.063,4.063,0,0,1,75.39,2.052m0-1.5a5.574,5.574,0,1,0,5.544,5.574A5.559,5.559,0,0,0,75.39.552Z" transform="translate(-69.846 -0.474)" fill="#282828"/>
      <path id="Tracé_12636" data-name="Tracé 12636" d="M89.057,2a1.5,1.5,0,0,1,1.5,1.5V8.726a1.5,1.5,0,0,1-1.5,1.5H81.592a1.5,1.5,0,0,1-1.5-1.5V3.5a1.5,1.5,0,0,1,1.5-1.5h7.465m0-1.5H81.592a3,3,0,0,0-3,3V8.726a3,3,0,0,0,3,3h7.465a3,3,0,0,0,3-3V3.5a3,3,0,0,0-3-3Z" transform="translate(-65.473 -0.5)" fill="#282828"/>
      <path id="Tracé_12637" data-name="Tracé 12637" d="M92.473,10.685a1.5,1.5,0,0,1,1.5,1.5V23.157a1.5,1.5,0,0,1-1.5,1.5H81.592a1.5,1.5,0,0,1-1.5-1.5V12.185a1.5,1.5,0,0,1,1.5-1.5H92.473m0-1.5H81.592a3,3,0,0,0-3,3V23.157a3,3,0,0,0,3,3H92.473a3,3,0,0,0,3-3V12.185a3,3,0,0,0-3-3Z" transform="translate(-65.473 3.842)" fill="#282828"/>
      <path id="Tracé_12638" data-name="Tracé 12638" d="M77.934,10.685a1.5,1.5,0,0,1,1.5,1.5v8.761a1.5,1.5,0,0,1-1.5,1.5H72.846a1.5,1.5,0,0,1-1.5-1.5V12.185a1.5,1.5,0,0,1,1.5-1.5h5.088m0-1.5H72.846a3,3,0,0,0-3,3v8.761a3,3,0,0,0,3,3h5.088a3,3,0,0,0,3-3V12.185a3,3,0,0,0-3-3Z" transform="translate(-69.846 3.842)" fill="#282828"/>
    </g>
  </g>
</svg>
