<svg xmlns="http://www.w3.org/2000/svg" width="30" height="17" viewBox="0 0 30 17">
  <path id="drone_border" d="M1203.1,355.736l.075.039c.047.025.071.042.075.042a.412.412,0,0,1,.009.094v.341c0,.674,0,1.348,0,2.022,0,.072-.01.117,0,.119a.458.458,0,0,1-.136.016c-.071,0-.122-.007-.147-.007s-.018,0-.018.006a.444.444,0,0,1-.022-.137c0-.114,0-.23,0-.35V357.7c0-.211,0-.974,0-1.186v-.544c0-.1.013-.145.01-.148a.488.488,0,0,1,.067-.04c.03-.013.06-.029.089-.043m-17.274.078a.686.686,0,0,1,.018.194c0,.113,0,.226,0,.346v.152c0,.213,0,.985,0,1.2v.2c0,.119,0,.239,0,.359a.992.992,0,0,0,0,.139,3.038,3.038,0,0,1-.315.006.943.943,0,0,1-.008-.146c-.016-.622-.012-1.244-.009-1.865l0-.5c0-.049,0-.077,0-.081S1185.825,355.813,1185.831,355.814Zm4.13.68h0m4.517.108c1.441,0,2.883,0,4.368.007.01.061.025.127.046.214a3.459,3.459,0,0,1-.015.667l-.014.084-.018.119c-.047,0-.093,0-.141,0l-.324,0c-.146,0-.3,0-.462,0a1.519,1.519,0,0,0-1.229.635,1.422,1.422,0,0,0-.262.773c-.132,0-.315.006-.57.006-1.069,0-2.621-.038-3.514-.065a1.423,1.423,0,0,0-.308-.69l-.073-.09a1.523,1.523,0,0,0-1.176-.548h-.717c-.047,0-.087,0-.12,0-.008-.033-.015-.074-.023-.123a6.131,6.131,0,0,1,.015-.974q2.268,0,4.536,0m8.791,1.788h0m-17.584-7.034h-.011c-.348,0-.52.21-.63.77H1182.3c-.691,0-1.383,0-2.076,0h-.01a.792.792,0,0,0-.819.443v.284a.79.79,0,0,0,.818.444h.01c.691,0,1.383,0,2.074,0h2.787c0,.357.01.668-.007.977a.324.324,0,0,1-.157.221,1.485,1.485,0,0,0-.894,1.412c0,.8-.015,1.6.006,2.4a1.849,1.849,0,0,0,.17.733,1.552,1.552,0,0,0,1.458.836,2.315,2.315,0,0,0,.459-.048,1.5,1.5,0,0,0,1.232-1.512c.008-.2,0-.405,0-.6h1.065a.512.512,0,0,1,.031.094c.154.981.6,1.351,1.625,1.353h.719l.072.088c-.07.12-.113.278-.219.354a6.979,6.979,0,0,0-2.068,2.419,11.262,11.262,0,0,0-1.206,4.56c-.029.385-.046.772-.045,1.157a.572.572,0,0,0,.552.615h.05a.571.571,0,0,0,.588-.558c.03-.271.015-.545.03-.819a10.762,10.762,0,0,1,1-4.236,5.731,5.731,0,0,1,1.776-2.174.5.5,0,0,1,.267-.108h.012c.4.025,2.794.094,4.263.094a9.584,9.584,0,0,0,1.112-.036,1.037,1.037,0,0,1,.2-.022.666.666,0,0,1,.445.174,6.7,6.7,0,0,1,2.166,3.446,12.479,12.479,0,0,1,.489,3.456,1.2,1.2,0,0,0,.147.561.465.465,0,0,0,.427.231.875.875,0,0,0,.216-.03.6.6,0,0,0,.412-.645,14.084,14.084,0,0,0-.544-3.934,7.647,7.647,0,0,0-2.822-4.182c-.093-.067-.1-.234-.187-.433.294,0,.548.009.786.009.146,0,.285,0,.423-.014a1.281,1.281,0,0,0,1.189-1.133c.012-.1.03-.2.045-.3h1.076c0,.221-.006.427,0,.631a1.525,1.525,0,0,0,1.686,1.528h.031a1.509,1.509,0,0,0,1.606-1.574c0-.791,0-1.583,0-2.374a1.489,1.489,0,0,0-.888-1.415c-.068-.033-.16-.1-.164-.161-.015-.344-.008-.689-.008-1.043h4.85c.542,0,.838-.211.835-.587s-.3-.576-.844-.576h-4.821c-.062-.537-.221-.739-.575-.765l-.067,0c-.309,0-.453.182-.626.768h-2.221l-2.572,0a1.907,1.907,0,0,0-.406.039.553.553,0,0,0-.012,1.078,1.726,1.726,0,0,0,.405.042q1.289,0,2.58,0h2.272c0,.362.009.69-.006,1.017a.267.267,0,0,1-.144.176,1.514,1.514,0,0,0-.914,1.489c0,.175,0,.352,0,.54h-1.082c-.013-.056-.027-.1-.033-.146a1.315,1.315,0,0,0-1.4-1.205q-2.223,0-4.446,0-2.318,0-4.636,0a1.31,1.31,0,0,0-1.379,1.2.951.951,0,0,1-.042.149h-1.073c0-.171,0-.32,0-.47a1.524,1.524,0,0,0-.935-1.558c-.053-.023-.122-.087-.123-.135-.01-.343-.006-.687-.006-1.053h4.9c.493,0,.78-.216.783-.579s-.287-.579-.777-.583h-4.878c-.118-.57-.288-.77-.63-.77Z" transform="translate(-1179.39 -351.357)" fill="#282828"/>
</svg>
