<svg xmlns="http://www.w3.org/2000/svg" width="30" height="17" viewBox="0 0 30 17">
  <path id="drone" d="M1110.043,352.565a.8.8,0,0,1,.831-.443c1.5.009,3.008,0,4.512,0h.311c.109-.56.282-.765.632-.77s.519.194.64.77h4.671c.069,0,.138,0,.205,0,.491,0,.78.223.777.583s-.288.579-.783.579h-4.9c0,.366,0,.71.006,1.053,0,.048.069.111.121.135a1.522,1.522,0,0,1,.935,1.558c0,.15,0,.3,0,.47h1.073a1.1,1.1,0,0,0,.042-.149,1.309,1.309,0,0,1,1.378-1.2q4.541-.009,9.083,0a1.314,1.314,0,0,1,1.4,1.205c.008.045.021.09.033.146h1.083v-.54a1.515,1.515,0,0,1,.912-1.489.269.269,0,0,0,.146-.176c.014-.327.006-.655.006-1.017h-.371q-2.241,0-4.483,0a1.712,1.712,0,0,1-.4-.042.558.558,0,0,1-.426-.544.552.552,0,0,1,.438-.532,1.807,1.807,0,0,1,.405-.04q2.241,0,4.484,0h.312c.185-.628.336-.791.693-.765s.511.229.573.765h.309q2.257,0,4.512,0c.547,0,.842.2.844.576s-.294.586-.834.587h-4.849c0,.354-.008.7.007,1.043,0,.056.094.127.162.161a1.487,1.487,0,0,1,.888,1.415c0,.791,0,1.583,0,2.374a1.51,1.51,0,0,1-1.607,1.574,1.531,1.531,0,0,1-1.717-1.528c-.009-.2,0-.409,0-.631h-1.077c-.015.1-.031.2-.044.3a1.282,1.282,0,0,1-1.189,1.133c-.366.029-.736.006-1.209.006.081.2.094.366.186.433a7.647,7.647,0,0,1,2.822,4.183,14.149,14.149,0,0,1,.546,3.934.6.6,0,0,1-.412.645.532.532,0,0,1-.643-.2,1.2,1.2,0,0,1-.147-.561,12.535,12.535,0,0,0-.489-3.456,6.688,6.688,0,0,0-2.167-3.446.69.69,0,0,0-.645-.152c-.49.094-4.822-.025-5.373-.058a.487.487,0,0,0-.279.108,5.718,5.718,0,0,0-1.776,2.174,10.74,10.74,0,0,0-1,4.236c-.015.273,0,.548-.031.819a.595.595,0,0,1-1.188-.058c0-.385.015-.773.044-1.157a11.291,11.291,0,0,1,1.206-4.56,6.985,6.985,0,0,1,2.07-2.419c.105-.077.147-.234.219-.354l-.072-.088h-.72c-1.024,0-1.469-.372-1.623-1.353a.608.608,0,0,0-.033-.094H1118c0,.2.006.4,0,.6a1.5,1.5,0,0,1-1.233,1.512,1.658,1.658,0,0,1-1.917-.789,1.852,1.852,0,0,1-.168-.733c-.021-.8-.01-1.6-.007-2.4a1.49,1.49,0,0,1,.894-1.412.319.319,0,0,0,.158-.221c.018-.308.008-.619.008-.977h-.348c-1.5,0-3.009,0-4.512,0a.8.8,0,0,1-.829-.444Z" transform="translate(-1110.043 -351.357)" fill="#fff"/>
</svg>
