<svg xmlns="http://www.w3.org/2000/svg" width="30" height="30" viewBox="0 0 30 30">
  <path id="echec" d="M500.925,208.539a15,15,0,1,0,15,15A15,15,0,0,0,500.925,208.539Zm6.825,19.332-1.791,1.992a.8.8,0,0,1-1.137.06l-3.807-3.42-3.591,3.648a.8.8,0,0,1-1.137.009l-1.908-1.878a.806.806,0,0,1-.009-1.137l3.45-3.51-3.663-3.3a.806.806,0,0,1-.063-1.134l1.791-1.992a.806.806,0,0,1,1.137-.06l3.807,3.42,3.591-3.648a.8.8,0,0,1,1.133-.01v0l1.911,1.878a.8.8,0,0,1,.009,1.137l-3.45,3.51,3.663,3.3A.805.805,0,0,1,507.75,227.871Z" transform="translate(-485.925 -208.539)" fill="#fff"/>
</svg>
