<svg xmlns="http://www.w3.org/2000/svg" width="30" height="30" viewBox="0 0 30 30">
  <path id="echec-border" d="M570.272,210.039a13.5,13.5,0,1,1-13.5,13.5,13.516,13.516,0,0,1,13.5-13.5m-.161,8.457-2.74-2.462a2.305,2.305,0,0,0-3.255.173l-1.8,2a2.31,2.31,0,0,0,.18,3.245L565,223.7l-2.352,2.394a2.31,2.31,0,0,0,.027,3.257l1.911,1.88a2.3,2.3,0,0,0,3.255-.027l2.586-2.627,2.74,2.462a2.305,2.305,0,0,0,3.255-.173l1.8-2a2.311,2.311,0,0,0-.18-3.246l-2.5-2.251,2.353-2.394a2.311,2.311,0,0,0-.028-3.257l-1.914-1.879a2.3,2.3,0,0,0-3.252.028l-2.586,2.627m.161-9.957a15,15,0,1,0,15,15,15,15,0,0,0-15-15Zm-.1,12.03,3.591-3.648a.8.8,0,0,1,1.133-.01v0l1.911,1.878a.806.806,0,0,1,.009,1.137l-3.45,3.51,3.663,3.3a.807.807,0,0,1,.063,1.134l-1.791,1.992a.8.8,0,0,1-.6.267.8.8,0,0,1-.537-.207l-3.807-3.42-3.591,3.648a.8.8,0,0,1-1.137.009l-1.908-1.878a.8.8,0,0,1-.009-1.137l3.45-3.51-3.663-3.3a.8.8,0,0,1-.063-1.134l1.791-1.992a.808.808,0,0,1,1.137-.06l3.807,3.42Z" transform="translate(-555.272 -208.539)" fill="#282828"/>
</svg>
