<svg id="Calque_1" data-name="Calque 1" xmlns="http://www.w3.org/2000/svg" xmlns:xlink="http://www.w3.org/1999/xlink" viewBox="0 0 761.02 1080"><defs><style>.cls-1{fill:#77bdb1;}.cls-13,.cls-2{fill:#282828;}.cls-16,.cls-2,.cls-3,.cls-31,.cls-40,.cls-43,.cls-5,.cls-58,.cls-60,.cls-63,.cls-69,.cls-72,.cls-80,.cls-81,.cls-84,.cls-87{isolation:isolate;}.cls-2{opacity:0.3;}.cls-3{opacity:0.7;}.cls-4,.cls-60{fill:#fff;}.cls-5{opacity:0.3;}.cls-6{fill:#e8e8e8;}.cls-7{fill:#afded6;}.cls-8{fill:#efefef;}.cls-9{fill:#969595;}.cls-10{fill:#2f8577;}.cls-11{fill:#197061;}.cls-12{fill:#55aaa0;}.cls-14{fill:url(#Dégradé_sans_nom_72);}.cls-15,.cls-16{fill:url(#Dégradé_sans_nom_72-2);}.cls-16,.cls-31,.cls-40,.cls-43,.cls-58,.cls-69,.cls-72,.cls-81{opacity:0.8;}.cls-17{fill:url(#Dégradé_sans_nom_72-4);}.cls-18{fill:url(#Dégradé_sans_nom_72-5);}.cls-19{fill:url(#Dégradé_sans_nom_70);}.cls-20{fill:url(#Dégradé_sans_nom_72-6);}.cls-21{fill:url(#Dégradé_sans_nom_72-7);}.cls-22{fill:url(#Dégradé_sans_nom_63);}.cls-23{fill:url(#Dégradé_sans_nom_63-2);}.cls-24{fill:url(#Dégradé_sans_nom_70-2);}.cls-25{fill:url(#Dégradé_sans_nom_72-8);}.cls-26{fill:url(#Dégradé_sans_nom_72-9);}.cls-27{fill:url(#Dégradé_sans_nom_63-3);}.cls-28{fill:url(#Dégradé_sans_nom_63-4);}.cls-29{fill:url(#Dégradé_sans_nom_72-10);}.cls-30,.cls-31{fill:url(#Dégradé_sans_nom_72-11);}.cls-32{fill:url(#Dégradé_sans_nom_72-13);}.cls-33{fill:url(#Dégradé_sans_nom_72-14);}.cls-34{fill:url(#Dégradé_sans_nom_52);}.cls-35{fill:url(#Dégradé_sans_nom_52-2);}.cls-36{fill:url(#Dégradé_sans_nom_52-3);}.cls-37{fill:url(#Dégradé_sans_nom_52-4);}.cls-38{fill:url(#Dégradé_sans_nom_72-15);}.cls-39,.cls-40{fill:url(#Dégradé_sans_nom_72-16);}.cls-41{fill:url(#Dégradé_sans_nom_72-18);}.cls-42,.cls-43{fill:url(#Dégradé_sans_nom_72-19);}.cls-44{fill:url(#Dégradé_sans_nom_70-3);}.cls-45{fill:url(#Dégradé_sans_nom_72-21);}.cls-46{fill:url(#Dégradé_sans_nom_72-22);}.cls-47{fill:url(#Dégradé_sans_nom_70-4);}.cls-48{fill:url(#Dégradé_sans_nom_52-5);}.cls-49{fill:url(#Dégradé_sans_nom_52-6);}.cls-50{fill:url(#Dégradé_sans_nom_52-7);}.cls-51{fill:url(#Dégradé_sans_nom_70-5);}.cls-52{fill:url(#Dégradé_sans_nom_72-23);}.cls-53{fill:url(#Dégradé_sans_nom_72-24);}.cls-54{fill:url(#Dégradé_sans_nom_63-5);}.cls-55{fill:url(#Dégradé_sans_nom_63-6);}.cls-56{fill:url(#Dégradé_sans_nom_52-8);}.cls-57,.cls-58{fill:url(#Dégradé_sans_nom_72-25);}.cls-59{fill:url(#Dégradé_sans_nom_46);}.cls-60{opacity:0.5;}.cls-61{fill:url(#Dégradé_sans_nom_70-6);}.cls-62{fill:url(#Dégradé_sans_nom_72-27);}.cls-63,.cls-84,.cls-87{opacity:0.7;}.cls-63{fill:url(#Dégradé_sans_nom_72-28);}.cls-64{fill:url(#Dégradé_sans_nom_72-29);}.cls-65{fill:url(#Dégradé_sans_nom_52-9);}.cls-66{fill:url(#Dégradé_sans_nom_52-10);}.cls-67{fill:url(#Dégradé_sans_nom_72-30);}.cls-68,.cls-69{fill:url(#Dégradé_sans_nom_72-31);}.cls-70{fill:url(#Dégradé_sans_nom_72-33);}.cls-71{fill:url(#Dégradé_sans_nom_57);}.cls-72{fill:url(#Dégradé_sans_nom_72-34);}.cls-73{fill:url(#Dégradé_sans_nom_70-7);}.cls-74{fill:url(#Dégradé_sans_nom_72-35);}.cls-75{fill:url(#Dégradé_sans_nom_72-36);}.cls-76{fill:url(#Dégradé_sans_nom_63-7);}.cls-77{fill:url(#Dégradé_sans_nom_63-8);}.cls-78{fill:url(#Dégradé_sans_nom_72-37);}.cls-79{fill:url(#Dégradé_sans_nom_72-38);}.cls-80{fill:#c1c2c4;opacity:0.6;}.cls-81{fill:url(#Dégradé_sans_nom_72-39);}.cls-82{fill:url(#Dégradé_sans_nom_70-8);}.cls-83{fill:url(#Dégradé_sans_nom_72-40);}.cls-84{fill:url(#Dégradé_sans_nom_72-41);}.cls-85{fill:url(#Dégradé_sans_nom_70-9);}.cls-86{fill:url(#Dégradé_sans_nom_72-42);}.cls-87{fill:url(#Dégradé_sans_nom_72-43);}</style><linearGradient id="Dégradé_sans_nom_72" x1="107.3" y1="639.87" x2="108.3" y2="639.87" gradientTransform="matrix(9.83, 0, 0, -15.82, -629.56, 10394.59)" gradientUnits="userSpaceOnUse"><stop offset="0" stop-color="#424242"/><stop offset="0.13" stop-color="#363636"/><stop offset="0.28" stop-color="#212121"/><stop offset="0.57" stop-color="#616161"/><stop offset="0.68" stop-color="#545454"/><stop offset="0.89" stop-color="#353535"/><stop offset="1" stop-color="#212121"/></linearGradient><linearGradient id="Dégradé_sans_nom_72-2" x1="102.83" y1="639.87" x2="103.83" y2="639.87" gradientTransform="matrix(7.54, 0, 0, -15.82, -346.56, 10394.55)" xlink:href="#Dégradé_sans_nom_72"/><linearGradient id="Dégradé_sans_nom_72-4" x1="102.16" y1="638.99" x2="103.08" y2="639.2" gradientTransform="matrix(7.2, 0, 0, -7.2, -269, 4849.6)" xlink:href="#Dégradé_sans_nom_72"/><linearGradient id="Dégradé_sans_nom_72-5" x1="101.92" y1="639.11" x2="102.92" y2="639.11" gradientTransform="matrix(7.2, 0, 0, -7.2, -252.06, 4849.6)" xlink:href="#Dégradé_sans_nom_72"/><linearGradient id="Dégradé_sans_nom_70" x1="105.04" y1="638.33" x2="106.35" y2="639.03" gradientTransform="matrix(8.66, 0, 0, -5.47, -471.41, 3734.28)" gradientUnits="userSpaceOnUse"><stop offset="0" stop-color="#f5f5f5"/><stop offset="0.12" stop-color="silver"/><stop offset="0.23" stop-color="#979797"/><stop offset="0.31" stop-color="#7e7e7e"/><stop offset="0.36" stop-color="#757575"/><stop offset="0.4" stop-color="#7c7c7c"/><stop offset="0.46" stop-color="#929292"/><stop offset="0.54" stop-color="#b4b4b4"/><stop offset="0.62" stop-color="#e4e4e4"/><stop offset="0.65" stop-color="#f5f5f5"/><stop offset="0.7" stop-color="#eaeaea"/><stop offset="0.79" stop-color="#ccc"/><stop offset="0.91" stop-color="#9d9d9d"/><stop offset="1" stop-color="#757575"/></linearGradient><linearGradient id="Dégradé_sans_nom_72-6" x1="105.3" y1="630.5" x2="106.3" y2="630.5" gradientTransform="matrix(8.65, 0, 0, -1, -471.35, 868.81)" xlink:href="#Dégradé_sans_nom_72"/><linearGradient id="Dégradé_sans_nom_72-7" x1="54.19" y1="637.71" x2="55.19" y2="637.71" gradientTransform="matrix(2.13, 0, 0, -3.58, 327.78, 2522.17)" xlink:href="#Dégradé_sans_nom_72"/><radialGradient id="Dégradé_sans_nom_63" cx="91.69" cy="638.37" r="3.1" gradientTransform="matrix(4.69, 0, 0, -4.69, 14.17, 3227.45)" gradientUnits="userSpaceOnUse"><stop offset="0" stop-color="#212121"/><stop offset="1" stop-color="#fff" stop-opacity="0"/></radialGradient><radialGradient id="Dégradé_sans_nom_63-2" cx="90.02" cy="638.25" r="3.26" gradientTransform="matrix(4.45, 0, 0, -4.45, 43.86, 3076.52)" xlink:href="#Dégradé_sans_nom_63"/><linearGradient id="Dégradé_sans_nom_70-2" x1="105.04" y1="638.33" x2="106.35" y2="639.03" gradientTransform="matrix(8.65, 0, 0, -5.47, -406.33, 3737.31)" xlink:href="#Dégradé_sans_nom_70"/><linearGradient id="Dégradé_sans_nom_72-8" x1="105.3" y1="630.56" x2="106.3" y2="630.56" gradientTransform="matrix(8.65, 0, 0, -1.01, -406.27, 872.45)" xlink:href="#Dégradé_sans_nom_72"/><linearGradient id="Dégradé_sans_nom_72-9" x1="54.19" y1="637.71" x2="55.19" y2="637.71" gradientTransform="matrix(2.13, 0, 0, -3.58, 392.73, 2521.95)" xlink:href="#Dégradé_sans_nom_72"/><radialGradient id="Dégradé_sans_nom_63-3" cx="91.69" cy="638.37" r="3.1" gradientTransform="matrix(4.69, 0, 0, -4.69, 79.13, 3225.63)" xlink:href="#Dégradé_sans_nom_63"/><radialGradient id="Dégradé_sans_nom_63-4" cx="90.02" cy="638.25" r="3.26" gradientTransform="matrix(4.45, 0, 0, -4.45, 108.81, 3076.3)" xlink:href="#Dégradé_sans_nom_63"/><linearGradient id="Dégradé_sans_nom_72-10" x1="103.17" y1="639.69" x2="104.17" y2="639.69" gradientTransform="matrix(7.67, 0, 0, -12.34, -350.8, 8146.73)" xlink:href="#Dégradé_sans_nom_72"/><linearGradient id="Dégradé_sans_nom_72-11" x1="97.43" y1="639.69" x2="98.43" y2="639.69" gradientTransform="matrix(5.88, 0, 0, -12.35, -129.84, 8146.76)" xlink:href="#Dégradé_sans_nom_72"/><linearGradient id="Dégradé_sans_nom_72-13" x1="116.34" y1="639.58" x2="115.82" y2="638.92" gradientTransform="matrix(22.2, 0, 0, -6.77, -2108.7, 4577.99)" xlink:href="#Dégradé_sans_nom_72"/><linearGradient id="Dégradé_sans_nom_72-14" x1="115.15" y1="639.32" x2="116.15" y2="639.32" gradientTransform="matrix(21.1, 0, 0, -8.48, -1972.66, 5677.45)" xlink:href="#Dégradé_sans_nom_72"/><linearGradient id="Dégradé_sans_nom_52" x1="118.49" y1="640.07" x2="117.97" y2="639.41" gradientTransform="matrix(33.11, 0, 0, -10.1, -3463.79, 6713.75)" gradientUnits="userSpaceOnUse"><stop offset="0" stop-color="#78909c"/><stop offset="0.17" stop-color="#6c8490"/><stop offset="0.41" stop-color="#546e7a"/><stop offset="0.56" stop-color="#4b636d"/><stop offset="0.84" stop-color="#35464e"/><stop offset="1" stop-color="#263238"/></linearGradient><linearGradient id="Dégradé_sans_nom_52-2" x1="117.41" y1="639.71" x2="118.41" y2="639.71" gradientTransform="matrix(31.47, 0, 0, -12.65, -3261.01, 8353.35)" xlink:href="#Dégradé_sans_nom_52"/><linearGradient id="Dégradé_sans_nom_52-3" x1="106.24" y1="638.31" x2="107.24" y2="638.31" gradientTransform="matrix(9.17, 0, 0, -4.57, -549.85, 3183.56)" xlink:href="#Dégradé_sans_nom_52"/><linearGradient id="Dégradé_sans_nom_52-4" x1="117.04" y1="639.59" x2="118.04" y2="639.59" gradientTransform="matrix(29.13, 0, 0, -11.02, -2969.81, 7293.97)" xlink:href="#Dégradé_sans_nom_52"/><linearGradient id="Dégradé_sans_nom_72-15" x1="-668.03" y1="639.87" x2="-667.03" y2="639.87" gradientTransform="matrix(9.83, 0, 0, -15.82, -537.07, 10394.59)" xlink:href="#Dégradé_sans_nom_72"/><linearGradient id="Dégradé_sans_nom_72-16" x1="-907.93" y1="639.87" x2="-906.93" y2="639.87" gradientTransform="matrix(7.54, 0, 0, -15.82, -258.06, 10394.55)" xlink:href="#Dégradé_sans_nom_72"/><linearGradient id="Dégradé_sans_nom_72-18" x1="-886.71" y1="639.69" x2="-885.71" y2="639.69" gradientTransform="matrix(7.67, 0, 0, -12.34, -286.65, 8146.73)" xlink:href="#Dégradé_sans_nom_72"/><linearGradient id="Dégradé_sans_nom_72-19" x1="-1193.2" y1="639.69" x2="-1192.2" y2="639.69" gradientTransform="matrix(5.88, 0, 0, -12.35, -68.82, 8146.76)" xlink:href="#Dégradé_sans_nom_72"/><linearGradient id="Dégradé_sans_nom_70-3" x1="84.89" y1="637.65" x2="85.89" y2="637.65" gradientTransform="matrix(3.89, 0, 0, -3.51, 146.18, 2502.21)" xlink:href="#Dégradé_sans_nom_70"/><linearGradient id="Dégradé_sans_nom_72-21" x1="-14.71" y1="473.95" x2="-15.23" y2="473.29" gradientTransform="matrix(22.2, 0, 0, -6.77, -2087.75, 4577.99)" xlink:href="#Dégradé_sans_nom_72"/><linearGradient id="Dégradé_sans_nom_72-22" x1="-242.69" y1="639.32" x2="-241.69" y2="639.32" gradientTransform="matrix(21.1, 0, 0, -8.48, -1954.18, 5677.45)" xlink:href="#Dégradé_sans_nom_72"/><linearGradient id="Dégradé_sans_nom_70-4" x1="97.24" y1="638" x2="98.24" y2="638" gradientTransform="matrix(5.84, 0, 0, -4, -95.51, 2819.07)" xlink:href="#Dégradé_sans_nom_70"/><linearGradient id="Dégradé_sans_nom_52-5" x1="30.42" y1="528.5" x2="29.9" y2="527.85" gradientTransform="matrix(33.11, 0, 0, -10.1, -3405.98, 6713.75)" xlink:href="#Dégradé_sans_nom_52"/><linearGradient id="Dégradé_sans_nom_52-6" x1="-123.67" y1="639.71" x2="-122.67" y2="639.71" gradientTransform="matrix(31.47, 0, 0, -12.65, -3206.56, 8353.35)" xlink:href="#Dégradé_sans_nom_52"/><linearGradient id="Dégradé_sans_nom_52-7" x1="-724.55" y1="638.31" x2="-723.55" y2="638.31" gradientTransform="matrix(9.17, 0, 0, -4.57, -454.81, 3183.56)" xlink:href="#Dégradé_sans_nom_52"/><linearGradient id="Dégradé_sans_nom_70-5" x1="-581.1" y1="272.39" x2="-579.8" y2="273.09" gradientTransform="matrix(8.65, 0, 0, -5.47, -391.55, 3756.54)" xlink:href="#Dégradé_sans_nom_70"/><linearGradient id="Dégradé_sans_nom_72-23" x1="-775.99" y1="630.56" x2="-774.99" y2="630.56" gradientTransform="matrix(8.65, 0, 0, -1.01, -391.52, 891.68)" xlink:href="#Dégradé_sans_nom_72"/><linearGradient id="Dégradé_sans_nom_72-24" x1="-3526.77" y1="637.71" x2="-3525.77" y2="637.71" gradientTransform="matrix(2.13, 0, 0, -3.58, 407.66, 2540.56)" xlink:href="#Dégradé_sans_nom_72"/><radialGradient id="Dégradé_sans_nom_63-5" cx="153.31" cy="638.37" r="3.1" gradientTransform="translate(-7260.42 3245.26) rotate(180) scale(4.69 4.69)" xlink:href="#Dégradé_sans_nom_63"/><radialGradient id="Dégradé_sans_nom_63-6" cx="154.98" cy="638.25" r="3.26" gradientTransform="translate(-7245.06 3096.16) rotate(180) scale(4.45 4.45)" xlink:href="#Dégradé_sans_nom_63"/><linearGradient id="Dégradé_sans_nom_52-8" x1="116.39" y1="639.87" x2="116.79" y2="639.33" gradientTransform="matrix(25.5, 0, 0, -8.02, -2520.75, 5373.79)" xlink:href="#Dégradé_sans_nom_52"/><linearGradient id="Dégradé_sans_nom_72-25" x1="96.02" y1="639.09" x2="98.43" y2="639.12" gradientTransform="matrix(5.71, 0, 0, -7.17, -87.5, 4842.09)" xlink:href="#Dégradé_sans_nom_72"/><linearGradient id="Dégradé_sans_nom_46" x1="111.76" y1="638.94" x2="113.09" y2="640.5" gradientTransform="matrix(14.16, 0, 0, -9.05, -1113.51, 6053.72)" gradientUnits="userSpaceOnUse"><stop offset="0" stop-color="#b3e5fc"/><stop offset="0.14" stop-color="#bde8fc"/><stop offset="0.39" stop-color="#daf2fd"/><stop offset="0.44" stop-color="#e1f5fe"/><stop offset="0.68" stop-color="#4377bd"/><stop offset="1" stop-color="#80d8fe"/></linearGradient><linearGradient id="Dégradé_sans_nom_70-6" x1="102.2" y1="638.76" x2="103.2" y2="638.76" gradientTransform="matrix(7.3, 0, 0, -5.75, -271, 3943.12)" xlink:href="#Dégradé_sans_nom_70"/><linearGradient id="Dégradé_sans_nom_72-27" x1="97.35" y1="638.8" x2="98.35" y2="638.8" gradientTransform="matrix(5.86, 0, 0, -5.88, -95.06, 4024.57)" xlink:href="#Dégradé_sans_nom_72"/><linearGradient id="Dégradé_sans_nom_72-28" x1="87.15" y1="638.09" x2="88.15" y2="638.09" gradientTransform="matrix(4.15, 0, 0, -4.16, 115.22, 2922.34)" xlink:href="#Dégradé_sans_nom_72"/><linearGradient id="Dégradé_sans_nom_72-29" x1="85.91" y1="640.18" x2="85.42" y2="639.23" gradientTransform="matrix(3.93, 0, 0, -9.81, 133.94, 6516.28)" xlink:href="#Dégradé_sans_nom_72"/><linearGradient id="Dégradé_sans_nom_52-9" x1="117.04" y1="639.59" x2="118.04" y2="639.59" gradientTransform="matrix(29.14, 0, 0, -11.02, -2925.46, 7293.97)" xlink:href="#Dégradé_sans_nom_52"/><linearGradient id="Dégradé_sans_nom_52-10" x1="117.15" y1="639.73" x2="116.49" y2="638.76" gradientTransform="matrix(25.5, 0, 0, -8.03, -2484.06, 5374.42)" xlink:href="#Dégradé_sans_nom_52"/><linearGradient id="Dégradé_sans_nom_72-30" x1="85.24" y1="639.46" x2="86.24" y2="639.46" gradientTransform="matrix(3.93, 0, 0, -9.61, 145.65, 6392.54)" xlink:href="#Dégradé_sans_nom_72"/><linearGradient id="Dégradé_sans_nom_72-31" x1="95.56" y1="639.31" x2="96.56" y2="639.31" gradientTransform="matrix(5.47, 0, 0, -8.41, -38.6, 5638.89)" xlink:href="#Dégradé_sans_nom_72"/><linearGradient id="Dégradé_sans_nom_72-33" x1="105.26" y1="640.35" x2="103.83" y2="639.74" gradientTransform="matrix(7.87, 0, 0, -14.34, -333.38, 9426.31)" xlink:href="#Dégradé_sans_nom_72"/><linearGradient id="Dégradé_sans_nom_57" x1="110.57" y1="638.33" x2="113.02" y2="640.48" gradientTransform="matrix(14.16, 0, 0, -15.65, -1113.48, 10270.61)" gradientUnits="userSpaceOnUse"><stop offset="0" stop-color="#424242"/><stop offset="0.13" stop-color="#363636"/><stop offset="0.28" stop-color="#212121"/><stop offset="0.56" stop-color="#9e9e9e"/><stop offset="0.61" stop-color="#919191"/><stop offset="0.71" stop-color="#727272"/><stop offset="0.76" stop-color="#616161"/><stop offset="0.82" stop-color="#545454"/><stop offset="0.94" stop-color="#353535"/><stop offset="1" stop-color="#212121"/></linearGradient><linearGradient id="Dégradé_sans_nom_72-34" x1="111.79" y1="638.14" x2="112.79" y2="638.14" gradientTransform="matrix(14.16, 0, 0, -4.24, -1113.51, 2966.9)" xlink:href="#Dégradé_sans_nom_72"/><linearGradient id="Dégradé_sans_nom_70-7" x1="105.04" y1="638.33" x2="106.35" y2="639.03" gradientTransform="matrix(8.66, 0, 0, -5.47, -486.15, 3756.54)" xlink:href="#Dégradé_sans_nom_70"/><linearGradient id="Dégradé_sans_nom_72-35" x1="105.3" y1="630.56" x2="106.3" y2="630.56" gradientTransform="matrix(8.65, 0, 0, -1.01, -485.97, 891.68)" xlink:href="#Dégradé_sans_nom_72"/><linearGradient id="Dégradé_sans_nom_72-36" x1="54.19" y1="637.71" x2="55.19" y2="637.71" gradientTransform="matrix(2.13, 0, 0, -3.58, 313.03, 2540.56)" xlink:href="#Dégradé_sans_nom_72"/><radialGradient id="Dégradé_sans_nom_63-7" cx="118.96" cy="638.37" r="3.1" gradientTransform="matrix(40.79, 0, 0, -4.69, -4423.19, 3245.26)" xlink:href="#Dégradé_sans_nom_63"/><radialGradient id="Dégradé_sans_nom_63-8" cx="90.02" cy="638.25" r="3.26" gradientTransform="matrix(4.45, 0, 0, -4.45, 29.11, 3096.16)" xlink:href="#Dégradé_sans_nom_63"/><linearGradient id="Dégradé_sans_nom_72-37" x1="99.47" y1="640.23" x2="100.81" y2="639.69" gradientTransform="matrix(6.56, 0, 0, -13.44, -191.5, 8850.06)" xlink:href="#Dégradé_sans_nom_72"/><linearGradient id="Dégradé_sans_nom_72-38" x1="110.77" y1="640.48" x2="111.66" y2="639.42" gradientTransform="matrix(13.21, 0, 0, -12.06, -997.17, 7959.92)" xlink:href="#Dégradé_sans_nom_72"/><linearGradient id="Dégradé_sans_nom_72-39" x1="85.56" y1="633.41" x2="86.56" y2="633.41" gradientTransform="matrix(3.97, 0, 0, -1.41, 135.53, 1139.2)" xlink:href="#Dégradé_sans_nom_72"/><linearGradient id="Dégradé_sans_nom_70-8" x1="-194.52" y1="637.35" x2="-193.48" y2="637.35" gradientTransform="matrix(3.12, 0, 0, -3.18, 248.32, 2285.2)" xlink:href="#Dégradé_sans_nom_70"/><linearGradient id="Dégradé_sans_nom_72-40" x1="-283.32" y1="636.47" x2="-282.28" y2="636.47" gradientTransform="matrix(2.44, 0, 0, -2.48, 332.2, 1839.71)" xlink:href="#Dégradé_sans_nom_72"/><linearGradient id="Dégradé_sans_nom_72-41" x1="-451.15" y1="634.8" x2="-450.11" y2="634.8" gradientTransform="matrix(1.72, 0, 0, -1.75, 419.61, 1374.39)" xlink:href="#Dégradé_sans_nom_72"/><linearGradient id="Dégradé_sans_nom_70-9" x1="-2483.43" y1="637.35" x2="-2482.39" y2="637.35" gradientTransform="matrix(3.12, 0, 0, -3.17, 229.71, 2283.99)" xlink:href="#Dégradé_sans_nom_70"/><linearGradient id="Dégradé_sans_nom_72-42" x1="-3213.92" y1="636.47" x2="-3212.87" y2="636.47" gradientTransform="matrix(2.44, 0, 0, -2.48, 313.18, 1839.59)" xlink:href="#Dégradé_sans_nom_72"/><linearGradient id="Dégradé_sans_nom_72-43" x1="38.17" y1="634.8" x2="39.17" y2="634.8" gradientTransform="matrix(1.72, 0, 0, -1.75, 400.67, 1374.55)" xlink:href="#Dégradé_sans_nom_72"/></defs><rect class="cls-1" x="80" width="680" height="1080"/><ellipse class="cls-2" cx="429.13" cy="1036.97" rx="223.15" ry="13.03"/><g class="cls-3"><path class="cls-4" d="M611.29,874.85c-35.07,74.7-159.61,64.14-207.67,11.62s-63.68-86.16-107-66.58S198,834.26,194.82,772,242.4,636,323,614.14s80.6-98.9,187.32-83.34c58.17,8.5,59.5,71.43,51.29,123.5S652,788.25,611.29,874.85Z" transform="translate(0.02)"/></g><g class="cls-5"><circle class="cls-6" cx="436.07" cy="311.13" r="281.13"/></g><path class="cls-7" d="M741.09,532.4H710.23a19.82,19.82,0,0,0-14.48-24,20.12,20.12,0,0,0-4.82-.58H531.34a19.88,19.88,0,1,0-.06,39.76H562.2a19.81,19.81,0,0,0,14.49,24,19.49,19.49,0,0,0,4.81.58H741.09a19.88,19.88,0,0,0,.06-39.76Z" transform="translate(0.02)"/><path class="cls-7" d="M229.62,54.57H198.75a19.81,19.81,0,0,0-14.48-24,19.56,19.56,0,0,0-4.82-.58H19.86a19.88,19.88,0,0,0,0,39.76H50.72A19.83,19.83,0,0,0,70,94.33H229.61a19.88,19.88,0,0,0,0-39.76Z" transform="translate(0.02)"/><rect class="cls-8" x="536.5" y="999.6" width="45.45" height="10.09"/><path class="cls-9" d="M426.6,1009.34H679.1A17.65,17.65,0,0,1,661.45,1027H426.6v-17.66Z" transform="translate(0.02)"/><path class="cls-4" d="M608.57,999.82H509.84A2.53,2.53,0,0,1,508,999L466,969.08a5,5,0,0,1,2.93-9.15H649.48a5,5,0,0,1,2.93,9.15L610.46,999A2.53,2.53,0,0,1,608.57,999.82Z" transform="translate(0.02)"/><path class="cls-4" d="M179.1,860.38H431.61V1017a20,20,0,0,1-20,20H199.1a20,20,0,0,1-20-20V860.38Z" transform="translate(0.02)"/><path class="cls-10" d="M194.24,850.61H416.48a15.12,15.12,0,0,1,15.13,15.13H179.1a15.13,15.13,0,0,1,15.14-15.13Z" transform="translate(0.02)"/><path class="cls-11" d="M256,925.72a1.26,1.26,0,0,1-.9-.37l-50.28-50.24a1.25,1.25,0,0,1,0-1.78h0a1.26,1.26,0,0,1,1.78,0l50.29,50.24a1.26,1.26,0,0,1,0,1.78h0A1.26,1.26,0,0,1,256,925.72Z" transform="translate(0.02)"/><path class="cls-11" d="M355.32,925.72a1.26,1.26,0,0,1-1.27-1.26,1.28,1.28,0,0,1,.37-.89l50.29-50.24a1.26,1.26,0,0,1,1.78,0,1.24,1.24,0,0,1,0,1.78h0l-50.28,50.24A1.26,1.26,0,0,1,355.32,925.72Z" transform="translate(0.02)"/><path class="cls-11" d="M205.74,1028.26a1.24,1.24,0,0,1-.89-.37,1.26,1.26,0,0,1,0-1.78h0l50.28-50.24a1.27,1.27,0,0,1,1.79,0h0a1.26,1.26,0,0,1,0,1.78h0l-50.29,50.23A1.24,1.24,0,0,1,205.74,1028.26Z" transform="translate(0.02)"/><path class="cls-11" d="M405.6,1028.26a1.24,1.24,0,0,1-.89-.37l-50.29-50.23a1.27,1.27,0,0,1,1.79-1.79l50.28,50.24a1.26,1.26,0,0,1,0,1.79,1.23,1.23,0,0,1-.89.36Z" transform="translate(0.02)"/><path class="cls-12" d="M330.68,953l11.17-17.58-3.37,0L325.2,955.86H343l.26-2.78Z" transform="translate(0.02)"/><path class="cls-12" d="M267.48,952.85l1.71-1.74a5.43,5.43,0,0,0,4.37,2.29,3.94,3.94,0,0,0,2-.52c1.58-.93,2-2.87,2.23-3.77.69-3,1.86-7.62,3.25-13.54h3.09q-2,7.81-4,15.63a6.18,6.18,0,0,1-6.34,4.91,7.15,7.15,0,0,1-6.27-3.26" transform="translate(0.02)"/><path class="cls-12" d="M324.81,943.89l-.57,1.17c-1.84,3.74-6.61,8.28-9.8,8.3h-.06c-4.78,0-8.59-3.82-10-5.5,1.43-1.72,5.2-5.62,10-5.66a5.6,5.6,0,0,1,3.52,1.2l1,.81,1.62-2-1-.81a8.29,8.29,0,0,0-5.15-1.77c-5.58,0-9.79,4-11.67,6.2-1.89-2.12-6.13-6-11.66-6h-.1a8.19,8.19,0,1,0,.07,16.37H291c5.59,0,9.8-4,11.67-6.2,1.89,2.12,6.13,6,11.66,6h.1c2,0,4.5-1.15,6.9-3.21a21.5,21.5,0,0,0,5.21-6.55l.57-1.17Zm-23.78,4c-1.43,1.71-5.2,5.62-10,5.66h0a5.59,5.59,0,0,1-5.57-5.6h0a5.59,5.59,0,0,1,5.53-5.56H291c4.78,0,8.59,3.81,10,5.5" transform="translate(0.02)"/><path class="cls-12" d="M327.05,948.86,325.62,945l-3.87,1.43L321,944.5l4.43-1.63a1.58,1.58,0,0,1,1.13,0,1.46,1.46,0,0,1,.76.82l1.64,4.42-1.93.71h0" transform="translate(0.02)"/><path class="cls-12" d="M327.06,948.94l-.06,0v0l-1.4-3.8-3.87,1.43-.76-2,4.48-1.65a1.63,1.63,0,0,1,1.17.05,1.5,1.5,0,0,1,.8.86l1.66,4.48Zm0-.13-1.38-3.88,1.43,3.87,1.82-.67-1.61-4.36a1.39,1.39,0,0,0-.74-.8,1.49,1.49,0,0,0-1.08-.05l-4.37,1.61.68,1.82Z" transform="translate(0.02)"/><rect class="cls-13" x="313.52" y="957.46" width="29.52" height="4.45"/><path class="cls-4" d="M324.89,958.52a1.93,1.93,0,0,1,.47,0,.77.77,0,0,1,.62.19.49.49,0,0,1,.14.38.57.57,0,0,1-.4.52h0a.63.63,0,0,1,.33,1,1,1,0,0,1-.74.22l-.41,0Zm.17,1h.34a.49.49,0,0,0,.55-.42h0v0c0-.33-.25-.44-.6-.44a1,1,0,0,0-.3,0Zm0,1.17a1.37,1.37,0,0,0,.29,0c.36,0,.69-.13.69-.53s-.31-.52-.69-.52h-.3Z" transform="translate(0.02)"/><path class="cls-4" d="M325.4,961.1h-.12l-.35,0h-.24l-.05-.24v-2.5l.2,0a2.33,2.33,0,0,1,.53-.06,1.07,1.07,0,0,1,.78.25.78.78,0,0,1,.23.59.81.81,0,0,1-.18.48.87.87,0,0,1,.27.63.84.84,0,0,1-.24.62A1.27,1.27,0,0,1,325.4,961.1Zm-.09-1.2v.55h0c.45,0,.45-.2.45-.28,0-.24-.27-.27-.44-.27Zm0-.64h.09a.31.31,0,0,0,.21,0,.24.24,0,0,0,.09-.16c0-.08,0-.2-.35-.2h0Z" transform="translate(0.02)"/><path class="cls-4" d="M329.26,959.63a1.09,1.09,0,0,1-.93,1.22h-.12a1.07,1.07,0,0,1-1-1.09.38.38,0,0,1,0-.1,1.09,1.09,0,0,1,1-1.22h.09a1.07,1.07,0,0,1,1,1.09A.34.34,0,0,1,329.26,959.63Zm-1.9,0a1,1,0,0,0,.84,1.05h0c.56,0,.87-.5.87-1.08a1,1,0,0,0-.83-1.06h0c-.59,0-.87.54-.87,1.09Z" transform="translate(0.02)"/><path class="cls-4" d="M328.21,961.11a1.32,1.32,0,0,1-1.28-1.36.25.25,0,0,1,0-.08,1.34,1.34,0,0,1,1.19-1.47h.11a1.3,1.3,0,0,1,1.28,1.32s0,.08,0,.12a1.34,1.34,0,0,1-1.18,1.47Zm0-2.28c-.6,0-.62.75-.62.84h0c0,.4.21.8.61.8s.61-.42.61-.83-.12-.81-.6-.81Z" transform="translate(0.02)"/><path class="cls-4" d="M331.6,960.82l-.36-.57c-.14-.22-.23-.35-.31-.49h0c-.08.14-.15.26-.3.49l-.34.57h-.19l.74-1.18-.71-1.16h.19l.38.63c.1.15.17.28.24.4h0c.07-.14.14-.24.24-.4l.39-.63h.2l-.75,1.14.76,1.2Z" transform="translate(0.02)"/><path class="cls-4" d="M332.25,961.07h-.79l-.43-.69-.09-.14-.1.14-.4.69h-.79l.9-1.44-.86-1.4h.78l.45.74,0,0,.5-.8h.8l-.92,1.4Z" transform="translate(0.02)"/><path class="cls-14" d="M425.66,264.59l6.55,14.8,3.28.39L428.8,264Z" transform="translate(0.02)"/><path class="cls-15" d="M435.49,279.78l.85-1.57L430.11,264H428.8Z" transform="translate(0.02)"/><path class="cls-16" d="M435.49,279.78l.85-1.57L430.11,264H428.8Z" transform="translate(0.02)"/><path class="cls-17" d="M464.75,245.31l5.47-.92,1.73,7.2h-5.7Z" transform="translate(0.02)"/><path class="cls-18" d="M488.89,245.31l-5.47-.92-1.73,7.2h5.7Z" transform="translate(0.02)"/><path class="cls-19" d="M448.67,242.66c0,1.53-8.66,1.53-8.66,0v-4.32c0,.61,8.66.61,8.66,0Z" transform="translate(0.02)"/><path class="cls-20" d="M448.67,238.31c0,.28-1.94.5-4.33.5s-4.33-.22-4.33-.5,1.94-.5,4.33-.5S448.67,238,448.67,238.31Z" transform="translate(0.02)"/><path class="cls-21" d="M445.41,237.81c0,.24-2.14.24-2.14,0l.37-3.41H445Z" transform="translate(0.02)"/><path class="cls-22" d="M423.92,232.76c-.05.52,9,1.9,20.3,3.09s20.44,1.73,20.5,1.21-9-1.9-20.3-3.08S424,232.24,423.92,232.76Z" transform="translate(0.02)"/><path class="cls-23" d="M423.94,236.93c.05.52,9.23,0,20.5-1.08s20.37-2.44,20.32-2.95-9.23,0-20.5,1.08S423.89,236.42,423.94,236.93Z" transform="translate(0.02)"/><path class="cls-24" d="M513.62,242.45c0,1.53-8.65,1.53-8.65,0v-4.33c0,.62,8.65.62,8.65,0Z" transform="translate(0.02)"/><ellipse class="cls-25" cx="509.32" cy="238.1" rx="4.33" ry="0.5"/><path class="cls-26" d="M510.36,237.6c0,.23-2.13.23-2.13,0l.36-3.41H510Z" transform="translate(0.02)"/><path class="cls-27" d="M488.88,232.55c-.06.52,9,1.9,20.3,3.08s20.44,1.73,20.49,1.22-9-1.9-20.3-3.09S488.93,232,488.88,232.55Z" transform="translate(0.02)"/><path class="cls-28" d="M488.89,236.72c.06.52,9.23,0,20.5-1.08s20.37-2.44,20.32-3-9.23,0-20.5,1.09S488.84,236.21,488.89,236.72Z" transform="translate(0.02)"/><path class="cls-29" d="M440.91,244.09,446,255.64l2.56.3-5.22-12.34Z" transform="translate(0.02)"/><path class="cls-30" d="M448.58,255.94l.67-1.23-4.86-11.11h-1Z" transform="translate(0.02)"/><path class="cls-31" d="M448.58,255.94l.67-1.23-4.86-11.11h-1Z" transform="translate(0.02)"/><path class="cls-32" d="M457,255.18l20.48-6-4.08-.79-18.12,4.48Z" transform="translate(0.02)"/><path class="cls-33" d="M457,255.18v2.5l21.1-5.4-.62-3.08Z" transform="translate(0.02)"/><path class="cls-34" d="M433.92,261.68l30.55-8.91-6.1-1.18-27,6.69Z" transform="translate(0.02)"/><path class="cls-35" d="M433.92,261.68v3.74l31.47-8.06-.92-4.59Z" transform="translate(0.02)"/><path class="cls-36" d="M433.92,261.68h-8.66a4.7,4.7,0,0,0-.41.95,2.76,2.76,0,0,0,1.9,3.4,3.41,3.41,0,0,0,.48.09,13.85,13.85,0,0,0,6.69-.7Z" transform="translate(0.02)"/><path class="cls-37" d="M466.11,252.44l-21.44-7a6.31,6.31,0,0,1-4.65-.75v-2.34s3,1,4.65.57l1.05-1.49,23.43,7Z" transform="translate(0.02)"/><path class="cls-38" d="M528,264.59l-6.56,14.8-3.27.39L524.83,264Z" transform="translate(0.02)"/><path class="cls-39" d="M518.15,279.78l-.85-1.57L523.53,264h1.31Z" transform="translate(0.02)"/><path class="cls-40" d="M518.15,279.78l-.85-1.57L523.53,264h1.31Z" transform="translate(0.02)"/><path class="cls-41" d="M512.73,244.09l-5.12,11.55-2.55.3,5.22-12.34Z" transform="translate(0.02)"/><path class="cls-42" d="M505.06,255.94l-.67-1.23,4.86-11.11h1Z" transform="translate(0.02)"/><path class="cls-43" d="M505.06,255.94l-.67-1.23,4.86-11.11h1Z" transform="translate(0.02)"/><rect class="cls-44" x="476.84" y="263.59" width="3.89" height="3.51"/><path class="cls-45" d="M496.61,255.18l-20.49-6,4.09-.79,18.11,4.48Z" transform="translate(0.02)"/><path class="cls-46" d="M496.61,255.18v2.5l-21.1-5.4.61-3.08Z" transform="translate(0.02)"/><path class="cls-47" d="M478,266.51v1.27H473.5a1.32,1.32,0,0,1-1.32-1.31h0v-2.69h1.54V266a.47.47,0,0,0,.46.47Z" transform="translate(0.02)"/><path class="cls-48" d="M519.72,261.68l-30.55-8.91,6.1-1.18,27,6.69Z" transform="translate(0.02)"/><path class="cls-49" d="M519.72,261.68v3.74l-31.47-8.06.92-4.59Z" transform="translate(0.02)"/><path class="cls-50" d="M519.72,261.68h8.65a4.23,4.23,0,0,1,.42.95,2.76,2.76,0,0,1-1.9,3.4,2.7,2.7,0,0,1-.48.09,13.85,13.85,0,0,1-6.69-.7Z" transform="translate(0.02)"/><path class="cls-51" d="M519.72,261.68c0,1.53,8.65,1.53,8.65,0v-4.32c0,.61-8.65.61-8.65,0Z" transform="translate(0.02)"/><ellipse class="cls-52" cx="524.07" cy="257.34" rx="4.33" ry="0.5"/><path class="cls-53" d="M523,256.83c0,.23,2.13.23,2.13,0l-.36-3.41h-1.41Z" transform="translate(0.02)"/><path class="cls-54" d="M544.47,251.78c0,.52-9,1.9-20.3,3.09s-20.44,1.73-20.5,1.21,9-1.9,20.3-3.08S544.41,251.27,544.47,251.78Z" transform="translate(0.02)"/><path class="cls-55" d="M544.45,256c-.05.52-9.23,0-20.5-1.08s-20.37-2.44-20.32-3,9.23,0,20.5,1.09S544.5,255.44,544.45,256Z" transform="translate(0.02)"/><path class="cls-56" d="M445.72,241.42l2.2-1,23.3,6.83-2.07,1.19Z" transform="translate(0.02)"/><path class="cls-57" d="M464.23,257.42v2.95l5.51,4.22.2-5.07Z" transform="translate(0.02)"/><path class="cls-58" d="M464.23,257.42v2.95l5.51,4.22.2-5.07Z" transform="translate(0.02)"/><path class="cls-59" d="M477.86,273.64h-2a6,6,0,0,1-6-6h0l0-3H483.9v3A6,6,0,0,1,477.86,273.64Z" transform="translate(0.02)"/><path class="cls-60" d="M479,272.85h-2a6,6,0,0,1-6-6h0l0-2.22h-1.1l0,3a6,6,0,0,0,6,6h2a6,6,0,0,0,4-1.55A6,6,0,0,1,479,272.85Z" transform="translate(0.02)"/><ellipse class="cls-61" cx="478.72" cy="268.96" rx="3.65" ry="2.88"/><path class="cls-62" d="M481.55,269.59a2.93,2.93,0,1,1-3.53-2.17,3.08,3.08,0,0,1,.68-.08A2.61,2.61,0,0,1,481.55,269.59Z" transform="translate(0.02)"/><path class="cls-63" d="M480.71,269.59a2.06,2.06,0,1,1-2-1.59A1.84,1.84,0,0,1,480.71,269.59Z" transform="translate(0.02)"/><path class="cls-64" d="M472.8,239.33l-3.8,2.41-.13,5.2,1.64,2.2Z" transform="translate(0.02)"/><path class="cls-65" d="M487.53,252.44l21.44-7a6.31,6.31,0,0,0,4.65-.75v-2.34s-2.95,1-4.65.57l-1.05-1.49-23.43,7Z" transform="translate(0.02)"/><path class="cls-66" d="M507.92,241.42l-2.2-1-23.3,6.83,2.06,1.19Z" transform="translate(0.02)"/><path class="cls-67" d="M480.84,239.33l3.8,2.31.13,5.29-1.48,2Z" transform="translate(0.02)"/><path class="cls-68" d="M489.17,256.18l-.28,4.59-5,3.82-.2-5.07Z" transform="translate(0.02)"/><path class="cls-69" d="M489.17,256.18l-.28,4.59-5,3.82-.2-5.07Z" transform="translate(0.02)"/><path class="cls-70" d="M484.77,246.93l5.07,2.54-.43,8L482,261.27l1.31-12.33Z" transform="translate(0.02)"/><path class="cls-71" d="M483.9,264.59H469.74l.61-15.65h12.94Z" transform="translate(0.02)"/><path class="cls-72" d="M483.9,264.59H469.74l.16-4.22,13.83,0Z" transform="translate(0.02)"/><path class="cls-73" d="M433.92,261.68c0,1.53-8.66,1.53-8.66,0v-4.32c0,.61,8.66.61,8.66,0Z" transform="translate(0.02)"/><ellipse class="cls-74" cx="429.62" cy="257.34" rx="4.33" ry="0.5"/><path class="cls-75" d="M430.66,256.83c0,.23-2.13.23-2.13,0l.36-3.41h1.41Z" transform="translate(0.02)"/><path class="cls-76" d="M409.17,251.78c-.05.52,9,1.9,20.3,3.09s20.44,1.73,20.5,1.21-9-1.9-20.3-3.08S409.23,251.27,409.17,251.78Z" transform="translate(0.02)"/><path class="cls-77" d="M409.19,256c.05.52,9.23,0,20.5-1.08s20.37-2.44,20.32-3-9.23,0-20.5,1.09S409.14,255.44,409.19,256Z" transform="translate(0.02)"/><path class="cls-78" d="M468.86,246.93l-5.07,2.54.44,8,5.67,2.95.45-11.43Z" transform="translate(0.02)"/><path class="cls-79" d="M483.29,248.94H470.35a17.63,17.63,0,0,1,2.88-12.06h7.17A17.58,17.58,0,0,1,483.29,248.94Z" transform="translate(0.02)"/><path class="cls-80" d="M483.29,248.94H470.35a17.63,17.63,0,0,1,2.88-12.06h7.17A17.58,17.58,0,0,1,483.29,248.94Z" transform="translate(0.02)"/><path class="cls-81" d="M478.8,246.08c0,.39-.89.7-2,.7s-2-.31-2-.7.88-.71,2-.71S478.8,245.69,478.8,246.08Z" transform="translate(0.02)"/><path class="cls-82" d="M487.42,260.27a1.56,1.56,0,1,1-2.2-.15,1.61,1.61,0,0,1,.3-.21A1.39,1.39,0,0,1,487.42,260.27Z" transform="translate(0.02)"/><path class="cls-83" d="M487.25,260.66a1.22,1.22,0,1,1-1.72-.12,1,1,0,0,1,.24-.16A1.07,1.07,0,0,1,487.25,260.66Z" transform="translate(0.02)"/><path class="cls-84" d="M486.94,260.82a.86.86,0,0,1-.09,1.21.85.85,0,0,1-1.21-.08.86.86,0,0,1,.08-1.22l.17-.11A.76.76,0,0,1,486.94,260.82Z" transform="translate(0.02)"/><path class="cls-85" d="M466.22,260.27a1.56,1.56,0,1,0,2.2-.15,1.61,1.61,0,0,0-.3-.21A1.39,1.39,0,0,0,466.22,260.27Z" transform="translate(0.02)"/><path class="cls-86" d="M466.39,260.66a1.22,1.22,0,1,0,1.72-.12,1,1,0,0,0-.24-.16A1.07,1.07,0,0,0,466.39,260.66Z" transform="translate(0.02)"/><path class="cls-87" d="M466.7,260.82A.86.86,0,0,0,468,262a.87.87,0,0,0-.09-1.22.91.91,0,0,0-.16-.11A.76.76,0,0,0,466.7,260.82Z" transform="translate(0.02)"/></svg>