<svg xmlns="http://www.w3.org/2000/svg" width="20" height="15" viewBox="0 0 20 15">
  <path id="email_border" d="M364.247,560.646h-14.03a2.986,2.986,0,0,0-2.985,2.985v9.03a2.985,2.985,0,0,0,2.985,2.985h14.03a2.984,2.984,0,0,0,2.985-2.985v-9.03A2.985,2.985,0,0,0,364.247,560.646Zm-14.03,2h14.03a.986.986,0,0,1,.985.985v.43l-8.034,4.968-7.965-4.938h0v-.459A.986.986,0,0,1,350.217,562.646Zm14.03,11h-14.03a.986.986,0,0,1-.985-.985v-6.218l7.965,4.938,8.035-4.968v6.248A.986.986,0,0,1,364.247,573.646Z" transform="translate(-347.232 -560.646)" fill="#55aaa0"/>
</svg>
