<svg xmlns="http://www.w3.org/2000/svg" width="20" height="20" viewBox="0 0 20 20">
  <path id="entreprise_border" d="M629.089,140.193a.4.4,0,0,1,.13.021l8.243,2.752c.5.171,2.521.842,2.521.842l.55.183a.4.4,0,0,1,.277.379v13.421a.975.975,0,0,0,.086.4h-2.964a.966.966,0,0,0,.113-.456V154.8a1.014,1.014,0,0,0-1.027-1h-4.343a1.013,1.013,0,0,0-1.027,1v2.932a.978.978,0,0,0,.112.456h-3.169a.975.975,0,0,0,.086-.4v-17.2a.4.4,0,0,1,.022-.129.411.411,0,0,1,.388-.271h0m0-1a1.435,1.435,0,0,0-1.36.949,1.346,1.346,0,0,0-.077.45v17.2H625.6a.7.7,0,1,0,0,1.4h18.559a.7.7,0,1,0,0-1.4h-2.323V144.37a1.4,1.4,0,0,0-.97-1.324l-11.315-3.778a1.461,1.461,0,0,0-.463-.075Zm9.266,13a.711.711,0,0,1-.719-.7v-7.063a.72.72,0,0,1,1.439,0v7.063a.711.711,0,0,1-.72.7Zm-3.558,0a.712.712,0,0,1-.72-.7v-7.063a.72.72,0,0,1,1.44,0v7.063a.711.711,0,0,1-.72.7Zm-3.556,0a.711.711,0,0,1-.72-.7v-6.812a.72.72,0,0,1,1.44,0v6.812a.711.711,0,0,1-.72.7Zm1.436,5.547V154.8h4.343v2.932Z" transform="translate(-624.88 -139.193)" fill="#282828" opacity="0.5"/>
</svg>
