<svg xmlns="http://www.w3.org/2000/svg" width="220" height="76.942" viewBox="0 0 220 76.942">
  <g id="JooL-Box" transform="translate(-22.988 -164.867)">
    <path id="Tracé_19371" data-name="Tracé 19371" d="M371.4,216.029l32.438-51.123-9.792-.039L355.466,224.23l51.613.006.767-8.1Z" transform="translate(-164.858)" fill="#55aaa0"/>
    <path id="Tracé_19372" data-name="Tracé 19372" d="M22.988,215.811l4.97-5.059a15.718,15.718,0,0,0,12.692,6.656,11.354,11.354,0,0,0,5.689-1.508c4.59-2.7,5.869-8.33,6.478-10.957,2.006-8.658,5.394-22.143,9.429-39.367H71.21q-5.8,22.726-11.594,45.451a18.839,18.839,0,0,1-7.415,11.14,18.718,18.718,0,0,1-11.019,3.14c-8.609,0-14.91-4.171-18.194-9.5" transform="translate(0 -0.352)" fill="#55aaa0"/>
    <path id="Tracé_19373" data-name="Tracé 19373" d="M233.187,201.3l-1.667,3.4c-5.33,10.875-19.2,24.068-28.438,24.141h-.2c-13.873,0-24.924-11.1-29.11-15.988,4.134-4.981,15.089-16.339,29.035-16.448a16.4,16.4,0,0,1,10.22,3.5l2.97,2.354,4.708-5.941-2.97-2.354a24.238,24.238,0,0,0-14.964-5.14c-16.207.128-28.442,11.75-33.874,18.027-5.5-6.156-17.813-17.491-33.885-17.491h-.27a23.8,23.8,0,0,0,.187,47.6h.19c16.212-.129,28.444-11.75,33.875-18.027,5.5,6.156,17.815,17.492,33.881,17.491h.271c5.942-.047,13.063-3.359,20.051-9.327a62.413,62.413,0,0,0,15.132-19.059l1.668-3.4Zm-69.071,11.633c-4.134,4.981-15.092,16.339-29.044,16.449h-.144a16.219,16.219,0,0,1-.115-32.437H135c13.873,0,24.925,11.1,29.112,15.988" transform="translate(-43.705 -11.883)" fill="#55aaa0"/>
    <path id="Tracé_19374" data-name="Tracé 19374" d="M348.933,224.878,344.8,213.671,333.55,217.82l-2.075-5.624,12.843-4.738a4.587,4.587,0,0,1,3.281.128A4.259,4.259,0,0,1,349.831,210l4.74,12.843-5.586,2.061a.04.04,0,0,1-.051-.024" transform="translate(-152.962 -20.998)" fill="#55aaa0"/>
    <path id="Tracé_19375" data-name="Tracé 19375" d="M348.75,224.921l-.165-.062-.047-.092-4.074-11.04-11.247,4.149-2.2-5.96,13.011-4.8a4.779,4.779,0,0,1,3.418.133,4.437,4.437,0,0,1,2.325,2.512l4.8,13.011Zm-.054-.361h0Zm-4.02-11.293,4.149,11.245,5.288-1.951-4.678-12.676a4.078,4.078,0,0,0-2.139-2.311,4.4,4.4,0,0,0-3.146-.121l-12.672,4.674,1.95,5.288Z" transform="translate(-152.735 -20.824)" fill="#55aaa0"/>
    <rect id="Rectangle_1475" data-name="Rectangle 1475" width="85.745" height="12.948" transform="translate(156.608 228.861)" fill="#282828"/>
    <g id="Groupe_919" data-name="Groupe 919" transform="translate(189.719 231.725)">
      <path id="Tracé_19376" data-name="Tracé 19376" d="M353.7,297.772a6.17,6.17,0,0,1,1.372-.151,2.329,2.329,0,0,1,1.775.565,1.457,1.457,0,0,1,.424,1.11,1.642,1.642,0,0,1-1.17,1.512v.03a1.769,1.769,0,0,1,1.442,1.735,1.836,1.836,0,0,1-.5,1.3,2.976,2.976,0,0,1-2.158.645c-.514,0-.908-.04-1.18-.06Zm.484,2.885h.989a1.419,1.419,0,0,0,1.6-1.331c0-.958-.727-1.3-1.735-1.3a3.607,3.607,0,0,0-.858.071Zm0,3.409a4.626,4.626,0,0,0,.837.05c1.039,0,2.017-.373,2.017-1.533,0-1.069-.918-1.533-2-1.533h-.858Z" transform="translate(-353.703 -297.55)" fill="#fff" stroke="#fff" stroke-width="1"/>
      <path id="Tracé_19377" data-name="Tracé 19377" d="M372.944,300.93c0,2.4-1.473,3.58-3.046,3.58-1.674,0-2.975-1.321-2.975-3.449,0-2.228,1.352-3.58,3.056-3.58S372.944,298.822,372.944,300.93Zm-5.516.121c0,1.533.888,3.056,2.5,3.056s2.511-1.463,2.511-3.147c0-1.442-.786-3.076-2.491-3.076C368.224,297.884,367.427,299.458,367.427,301.051Z" transform="translate(-360.258 -297.481)" fill="#fff" stroke="#fff" stroke-width="1"/>
      <path id="Tracé_19378" data-name="Tracé 19378" d="M388.06,304.519l-1.029-1.674c-.423-.635-.665-1.018-.9-1.412h-.02c-.221.394-.434.767-.857,1.422l-.979,1.664h-.554l2.158-3.439-2.068-3.358h.544l1.1,1.815c.282.454.495.806.7,1.17h.02c.212-.393.424-.706.716-1.17l1.139-1.815h.565l-2.168,3.308,2.189,3.49Z" transform="translate(-368.589 -297.6)" fill="#fff" stroke="#fff" stroke-width="1"/>
    </g>
  </g>
</svg>
