<svg xmlns="http://www.w3.org/2000/svg" width="761" height="542.166" viewBox="0 0 761 542.166">
  <g id="nuages" transform="translate(99.009 336.402)">
    <path id="Tracé_9855" data-name="Tracé 9855" d="M3196.231,1168.1h-30.863a19.815,19.815,0,0,0-19.3-24.569H2986.474a19.881,19.881,0,1,0,0,39.762h30.862a19.818,19.818,0,0,0,19.3,24.569h159.593a19.881,19.881,0,1,0,0-39.762Z" transform="translate(-2554.121 -1002.102)" fill="#afded6"/>
    <path id="Tracé_9854" data-name="Tracé 9854" d="M2829.232,1079.1h-30.863a19.815,19.815,0,0,0-19.3-24.569H2619.474a19.881,19.881,0,1,0,0,39.763h30.862a19.817,19.817,0,0,0,19.3,24.569h159.593a19.881,19.881,0,0,0,0-39.762Z" transform="translate(-2698.6 -1390.936)" fill="#afded6"/>
  </g>
</svg>
