<svg xmlns="http://www.w3.org/2000/svg" width="14" height="20" viewBox="0 0 14 20">
  <path id="password_border" d="M215,216.69h8.288a1.138,1.138,0,0,1,1.125,1.128v2.277l0,1.46c0,.966,0,1.931,0,2.912a3.017,3.017,0,0,1-1.067,2.343,3.05,3.05,0,0,1-1.912.73h-6.127a2.71,2.71,0,0,1-1.051-.229,2.973,2.973,0,0,1-1.369-1.137,2.833,2.833,0,0,1-.479-1.294,4.892,4.892,0,0,1-.03-.532v-6.461a1.285,1.285,0,0,1,.054-.4,1.139,1.139,0,0,1,.493-.637,1.014,1.014,0,0,1,.487-.162Zm1.714,5.705v1.814a2.164,2.164,0,0,0,.092.591,1.682,1.682,0,0,0,1.59,1.163h.05a1.692,1.692,0,0,0,1.628-1.733v-1.076a.854.854,0,0,0,0-.1v-.664a2.406,2.406,0,0,0,.277-.339,2.443,2.443,0,0,0,.381-1.814,2.415,2.415,0,0,0-.988-1.557,2.33,2.33,0,0,0-1.348-.429,2.363,2.363,0,0,0-1.957,1.048,2.462,2.462,0,0,0,.28,3.1m1.723-13.856c-.107,0-.214,0-.322.009a4.768,4.768,0,0,0-4.624,4.838v2.206c0,.057,0,.1-.08.1a2,2,0,0,0-1.008.314,2.133,2.133,0,0,0-.908,1.185,2.294,2.294,0,0,0-.1.715v6.441a5.891,5.891,0,0,0,.037.644,3.828,3.828,0,0,0,.651,1.756,3.945,3.945,0,0,0,1.807,1.492,3.681,3.681,0,0,0,1.4.3h6.14a3.838,3.838,0,0,0,1.1-.173,3.8,3.8,0,0,0,1.453-.8,4.032,4.032,0,0,0,1.406-3.111c.007-1.454,0-2.907,0-4.361v-2.277a2.127,2.127,0,0,0-2.105-2.127h-.027v-2.124a.731.731,0,0,0,.038-.247,4.787,4.787,0,0,0-.038-.556v-.169h-.027a4.825,4.825,0,0,0-1.449-2.773,4.463,4.463,0,0,0-1.6-.992,6.224,6.224,0,0,0-.9-.229,5.845,5.845,0,0,0-.846-.061ZM215,215.69c-.067,0-.107,0-.107-.093.008-.785,0-1.572.008-2.359a3.393,3.393,0,0,1,.829-2.126,3.223,3.223,0,0,1,2.392-1.129c.091,0,.182-.005.274-.005s.21,0,.315.005a3.144,3.144,0,0,1,1.217.28,3.271,3.271,0,0,1,1.337,1.1,3.118,3.118,0,0,1,.533,1.177,5.952,5.952,0,0,1,.1.834.882.882,0,0,0,.039.18v2.135H215Zm3.4,9.273a.7.7,0,0,1-.662-.484,1.086,1.086,0,0,1-.04-.281v-2.161a.2.2,0,0,0-.1-.191,1.441,1.441,0,0,1-.356-1.98,1.386,1.386,0,0,1,1.15-.616,1.37,1.37,0,0,1,.791.252,1.441,1.441,0,0,1,.357,1.981,1.4,1.4,0,0,1-.357.363l0,0a.192.192,0,0,0-.1.182v1.122h0v1.076a.705.705,0,0,1-.677.733Z" transform="translate(-211.401 -208.539)" fill="#282828"/>
</svg>
