<svg xmlns="http://www.w3.org/2000/svg" width="20" height="20" viewBox="0 0 20 20">
  <g id="profile" transform="translate(-485.925 -69.846)">
    <path id="Tracé_19387" data-name="Tracé 19387" d="M495.907,89.844H487.2a1.287,1.287,0,0,1-.957-.348.979.979,0,0,1-.31-.665,6.028,6.028,0,0,1,.046-.94,5.229,5.229,0,0,1,1.039-2.524,5.927,5.927,0,0,1,1.245-1.225,5.734,5.734,0,0,1,2.638-1.083c.378-.052,1.83-.08,2.212-.081a3.474,3.474,0,0,0,4.8.741,3.377,3.377,0,0,0,.754-.741,12.117,12.117,0,0,1,2.468,0,3.246,3.246,0,0,1,1.536.613,6,6,0,0,1,2.046,1.639,5.352,5.352,0,0,1,1.132,2.54,4.566,4.566,0,0,1,.079.873,1.116,1.116,0,0,1-1.05,1.182h0a2.368,2.368,0,0,1-.326.019Z" fill="#55aaa0"/>
    <ellipse id="Ellipse_212" data-name="Ellipse 212" cx="5.638" cy="5.55" rx="5.638" ry="5.55" transform="translate(490.287 69.846)" fill="#55aaa0"/>
  </g>
</svg>
