<svg xmlns="http://www.w3.org/2000/svg" width="11" height="20" viewBox="0 0 11 20">
  <path id="Alltitude" d="M10.45,20.5h.05a1.259,1.259,0,0,0,1.067-.6L15.6,16a1.331,1.331,0,0,0,.057-1.844,1.246,1.246,0,0,0-1.76-.1l-.039.037-2.092,2.02V4.878l2.1,2.022a1.246,1.246,0,0,0,1.763-.019l.036-.039A1.332,1.332,0,0,0,15.6,5L11.567,1.1A1.259,1.259,0,0,0,10.5.5h-.05c-.035,0-.068.008-.1.011a1.347,1.347,0,0,0-.206.043,1.223,1.223,0,0,0-.6.321L5.375,5.136a1.331,1.331,0,0,0,0,1.844,1.245,1.245,0,0,0,1.76.035L7.17,6.98l2.062-2.1V16.122L7.166,14.011a1.244,1.244,0,0,0-1.759-.031l-.036.036a1.331,1.331,0,0,0,0,1.844l4.17,4.26a1.215,1.215,0,0,0,.6.321,1.347,1.347,0,0,0,.206.043C10.383,20.487,10.415,20.5,10.45,20.5Z" transform="translate(-5 -0.5)" fill="#2f8577"/>
</svg>
