<svg xmlns="http://www.w3.org/2000/svg" width="20" height="14.675" viewBox="0 0 20 14.675">
  <g id="Close-Eye" transform="translate(232.352 -375.609)">
    <path id="Tracé_19413" data-name="Tracé 19413" d="M-212.4,382.752a11.426,11.426,0,0,0-4.276-4.276l1.416-1.417a.849.849,0,0,0,0-1.2.849.849,0,0,0-1.2,0l-12.975,12.976a.847.847,0,0,0,0,1.2.843.843,0,0,0,.6.249.845.845,0,0,0,.6-.249l1.851-1.851a11.271,11.271,0,0,0,4.046.763,11.346,11.346,0,0,0,5.732-1.556,11.553,11.553,0,0,0,4.206-4.25A.391.391,0,0,0-212.4,382.752Zm-7.253.237a.385.385,0,0,1-.406.363.384.384,0,0,1-.363-.4.385.385,0,0,1,.384-.386.386.386,0,0,1,.384.388Zm-.509-.855a.375.375,0,0,1-.209.037l.41-.411A.387.387,0,0,1-220.166,382.134Zm2.8,3.937a9.89,9.89,0,0,1-3.214,1.174,4.649,4.649,0,0,1-1.867.372,4.638,4.638,0,0,1-1.853-.408c-.3-.06-.592-.143-.885-.23l.188-.188a4.377,4.377,0,0,0,.7.418,9.919,9.919,0,0,0,3.72.036A4.662,4.662,0,0,0-217.733,383v-.05a4.537,4.537,0,0,0-.814-2.61l.736-.736a9.9,9.9,0,0,1,3.746,3.344A10.027,10.027,0,0,1-217.365,386.071Z" fill="#282828"/>
    <path id="Tracé_19414" data-name="Tracé 19414" d="M-227.717,385.826a9.893,9.893,0,0,1-2.92-2.879,10.027,10.027,0,0,1,3.3-3.12,9.84,9.84,0,0,1,3.086-1.145,4.633,4.633,0,0,1,1.9-.392h0a4.623,4.623,0,0,1,1.8.371l1.282-1.282a11.439,11.439,0,0,0-3.094-.433,11.345,11.345,0,0,0-5.729,1.556,11.546,11.546,0,0,0-4.206,4.25.391.391,0,0,0,0,.389,11.428,11.428,0,0,0,3.494,3.773Z" fill="#282828"/>
    <path id="Tracé_19415" data-name="Tracé 19415" d="M-222.366,376.946h0Z" fill="#282828"/>
    <path id="Tracé_19416" data-name="Tracé 19416" d="M-222.363,378.475a9.868,9.868,0,0,0-1.888.207,4.658,4.658,0,0,0-2.81,4.223,4.621,4.621,0,0,0,.382,1.883l3.977-3.978a.377.377,0,0,1-.057-.21.389.389,0,0,1,.41-.367c.068,0,.131.022.2.027l1.6-1.6a9.9,9.9,0,0,0-1.81-.188Z" fill="#282828"/>
    <path id="Tracé_19417" data-name="Tracé 19417" d="M-220.539,378.667l-.014-.006,0,0Z" fill="#282828"/>
  </g>
</svg>
