<svg xmlns="http://www.w3.org/2000/svg" width="45.2" height="45.2" viewBox="0 0 45.2 45.2">
  <g id="Close" transform="translate(10759 13004)">
    <path id="Rectangle_1287" data-name="Rectangle 1287" d="M0,0H35.2a10,10,0,0,1,10,10V45.2a0,0,0,0,1,0,0H0a0,0,0,0,1,0,0V0A0,0,0,0,1,0,0Z" transform="translate(-10759 -13004)" fill="#c73232"/>
    <path id="Close-2" data-name="Close" d="M14.047,12.683l9.066-8.835a1.3,1.3,0,0,0,.038-1.809A1.244,1.244,0,0,0,21.372,2l-9.1,8.869-8.9-9.081a1.244,1.244,0,0,0-1.779,0,1.3,1.3,0,0,0,0,1.809l8.862,9.047L1.388,21.477a1.3,1.3,0,0,0-.038,1.809,1.244,1.244,0,0,0,1.779.038l9.1-8.869,8.9,9.081a1.244,1.244,0,0,0,1.779,0,1.3,1.3,0,0,0,0-1.809l-3.795-3.874Z" transform="translate(-10748.65 -12994.063)" fill="#fff"/>
  </g>
</svg>
