<svg xmlns="http://www.w3.org/2000/svg" width="20" height="20" viewBox="0 0 20 20">
  <g id="dashboard_border" transform="translate(-1179.39 -208.539)">
    <path id="Tracé_19306" data-name="Tracé 19306" d="M1183.086,209.591a2.716,2.716,0,1,1-2.7,2.716,2.71,2.71,0,0,1,2.7-2.716m0-1a3.716,3.716,0,1,0,3.7,3.716,3.706,3.706,0,0,0-3.7-3.716Z" fill="#282828"/>
    <path id="Tracé_19307" data-name="Tracé 19307" d="M1195.112,209.539a1,1,0,0,1,1,1v3.484a1,1,0,0,1-1,1h-4.976a1,1,0,0,1-1-1v-3.484a1,1,0,0,1,1-1h4.976m0-1h-4.976a2,2,0,0,0-2,2v3.484a2,2,0,0,0,2,2h4.976a2,2,0,0,0,2-2v-3.484a2,2,0,0,0-2-2Z" fill="#282828"/>
    <path id="Tracé_19308" data-name="Tracé 19308" d="M1197.39,218.224a1,1,0,0,1,1,1v7.315a1,1,0,0,1-1,1h-7.254a1,1,0,0,1-1-1v-7.315a1,1,0,0,1,1-1h7.254m0-1h-7.254a2,2,0,0,0-2,2v7.315a2,2,0,0,0,2,2h7.254a2,2,0,0,0,2-2v-7.315a2,2,0,0,0-2-2Z" fill="#282828"/>
    <path id="Tracé_19309" data-name="Tracé 19309" d="M1184.782,218.224a1,1,0,0,1,1,1v5.841a1,1,0,0,1-1,1h-3.392a1,1,0,0,1-1-1v-5.841a1,1,0,0,1,1-1h3.392m0-1h-3.392a2,2,0,0,0-2,2v5.841a2,2,0,0,0,2,2h3.392a2,2,0,0,0,2-2v-5.841a2,2,0,0,0-2-2Z" fill="#282828"/>
  </g>
</svg>
