<svg xmlns="http://www.w3.org/2000/svg" width="29.001" height="29" viewBox="0 0 29.001 29">
  <g id="date-en-cours" transform="translate(0 -0.152)">
    <circle id="Ellipse_206" data-name="Ellipse 206" cx="2.5" cy="2.5" r="2.5" transform="translate(12 24.152)" fill="#ffd129"/>
    <circle id="Ellipse_209" data-name="Ellipse 209" cx="2.5" cy="2.5" r="2.5" transform="translate(12 0.152)" fill="#ffd129" opacity="0.7"/>
    <circle id="Ellipse_207" data-name="Ellipse 207" cx="2.5" cy="2.5" r="2.5" transform="translate(0 12.152)" fill="#ffd129" opacity="0.6"/>
    <circle id="Ellipse_216" data-name="Ellipse 216" cx="2.5" cy="2.5" r="2.5" transform="translate(2 18.152)" fill="#ffd129" opacity="0.5"/>
    <circle id="Ellipse_208" data-name="Ellipse 208" cx="2.5" cy="2.5" r="2.5" transform="translate(24 12.152)" fill="#ffd129" opacity="0.9"/>
    <circle id="Ellipse_210" data-name="Ellipse 210" cx="2.5" cy="2.5" r="2.5" transform="translate(21.93 21.044) rotate(-45)" fill="#ffd129" opacity="0.9"/>
    <circle id="Ellipse_217" data-name="Ellipse 217" cx="2.5" cy="2.5" r="2.5" transform="translate(17.93 25.138) rotate(-45)" fill="#ffd129"/>
    <circle id="Ellipse_211" data-name="Ellipse 211" cx="2.5" cy="2.5" r="2.5" transform="translate(0.479 8.689) rotate(-45)" fill="#ffd129" opacity="0.6"/>
    <circle id="Ellipse_215" data-name="Ellipse 215" cx="2.5" cy="2.5" r="2.5" transform="translate(4.93 4.167) rotate(-45)" fill="#ffd129" opacity="0.7"/>
    <circle id="Ellipse_212" data-name="Ellipse 212" cx="2.5" cy="2.5" r="2.5" transform="translate(4.93 25.138) rotate(-45)" fill="#ffd129" opacity="0.5"/>
    <circle id="Ellipse_213" data-name="Ellipse 213" cx="2.5" cy="2.5" r="2.5" transform="translate(21.45 8.263) rotate(-45)" fill="#ffd129" opacity="0.8"/>
    <circle id="Ellipse_214" data-name="Ellipse 214" cx="2.5" cy="2.5" r="2.5" transform="translate(16.93 3.689) rotate(-45)" fill="#ffd129" opacity="0.8"/>
  </g>
</svg>
