<svg xmlns="http://www.w3.org/2000/svg" width="29.152" height="29.152" viewBox="0 0 29.152 29.152">
  <g id="date-Programmee" transform="translate(0)">
    <path id="Tracé_19341" data-name="Tracé 19341" d="M-190.565,427.887h-4.646a1.209,1.209,0,0,1-1.21-1.21l.018-5.275a1.209,1.209,0,0,1,1.21-1.21,1.209,1.209,0,0,1,1.21,1.21l-.018,4.065h3.436a1.211,1.211,0,0,1,1.211,1.21A1.21,1.21,0,0,1-190.565,427.887Z" transform="translate(207.464 -409.463)" fill="#5da9fc"/>
    <path id="Tracé_19362" data-name="Tracé 19362" d="M-538.291,746.4a10.576,10.576,0,0,1,10.578,10.574,10.577,10.577,0,0,1-10.575,10.578,10.576,10.576,0,0,1-10.577-10.575,10.577,10.577,0,0,1,3.385-7.756,10.618,10.618,0,0,1,7.19-2.821m0-4a14.576,14.576,0,0,0-14.574,14.578,14.576,14.576,0,0,0,14.578,14.574,14.576,14.576,0,0,0,14.574-14.578,14.579,14.579,0,0,0-3.889-9.91A14.523,14.523,0,0,0-538.291,742.4Z" transform="translate(552.865 -742.404)" fill="#5da9fc"/>
  </g>
</svg>
