<svg xmlns="http://www.w3.org/2000/svg" width="14" height="14" viewBox="0 0 14 14">
  <g id="date_border" transform="translate(-208.526 -277.886)" opacity="0.5">
    <path id="Tracé_19297" data-name="Tracé 19297" d="M219.038,278.577h0m-6.28,2.1h0l5.573,0c.374,0,1.018.011,1.4.011h.723a1.369,1.369,0,0,1,1.345,1.149c.006.08.011.159.015.239H209.243a2.788,2.788,0,0,1,.125-.572,1.363,1.363,0,0,1,1.229-.812c.071,0,.143,0,.215,0l.243,0c.093,0,.188,0,.284,0C211.725,280.694,212.5,280.682,212.757,280.682Zm6.268-2.8a.686.686,0,0,0-.65.466,1.153,1.153,0,0,0-.046.338v1.288l-5.573,0a.179.179,0,0,1-.015-.042c0-.3,0-.6,0-.9a4.473,4.473,0,0,0-.02-.573.668.668,0,0,0-.643-.57l-.05,0a.678.678,0,0,0-.657.515,1.138,1.138,0,0,0-.027.275v1.312c-.181,0-.356-.006-.527-.006-.085,0-.17,0-.256.006a2.049,2.049,0,0,0-1.842,1.26,3.48,3.48,0,0,0-.167,1.522H222.5a6.706,6.706,0,0,0-.008-1.02,2.061,2.061,0,0,0-2.039-1.768h-.723v-.195c0-.409.007-.82,0-1.23a.693.693,0,0,0-.572-.666.679.679,0,0,0-.129-.012Z" fill="#282828"/>
    <path id="Rectangle_1414" data-name="Rectangle 1414" d="M.5,0H1.6a.5.5,0,0,1,.5.5V1.6a.5.5,0,0,1-.5.5H.5A.5.5,0,0,1,0,1.6V.5A.5.5,0,0,1,.5,0Z" transform="translate(210.713 285.944)" fill="#282828" opacity="0.4" style="mix-blend-mode: normal;isolation: isolate"/>
    <path id="Tracé_19298" data-name="Tracé 19298" d="M209.262,286.9h0m12.573.7v.8c0,1.354,0,2.708,0,4.079a1.387,1.387,0,0,1-1.176,1.394,1.424,1.424,0,0,1-.211.016H220.4l-4.858,0-4.875,0h-.036a1.374,1.374,0,0,1-1.364-1.175,1.328,1.328,0,0,1-.015-.231V287.6h12.578m-3.154,3.844h1.278a1.108,1.108,0,0,0,1.107-1.108v-1.28a1.108,1.108,0,0,0-1.107-1.108H218.68a1.109,1.109,0,0,0-1.107,1.108v1.28a1.108,1.108,0,0,0,1.107,1.108m-3.775,0h1.278a1.109,1.109,0,0,0,1.107-1.108v-1.28a1.109,1.109,0,0,0-1.107-1.108h-1.278a1.109,1.109,0,0,0-1.107,1.108v1.28a1.109,1.109,0,0,0,1.107,1.108m-3.775,0h1.279a1.109,1.109,0,0,0,1.107-1.108v-1.28a1.109,1.109,0,0,0-1.107-1.108H211.13a1.109,1.109,0,0,0-1.107,1.108v1.28a1.109,1.109,0,0,0,1.107,1.108m11.392-4.544h-13.96c0,.058-.006.1-.006.134v5.447a1.942,1.942,0,0,0,.025.343,2.08,2.08,0,0,0,2.054,1.763h.053l4.858,0,4.859,0h.042a1.993,1.993,0,0,0,.316-.025,2.081,2.081,0,0,0,1.769-2.1c0-1.807,0-3.611,0-5.416,0-.048-.007-.095-.01-.146Zm-3.842,3.844a.408.408,0,0,1-.408-.408v-1.28a.408.408,0,0,1,.408-.408h1.278a.408.408,0,0,1,.407.408v1.28a.407.407,0,0,1-.407.408H218.68Zm-3.775,0a.407.407,0,0,1-.407-.408v-1.28a.407.407,0,0,1,.407-.408h1.278a.408.408,0,0,1,.408.408v1.28a.408.408,0,0,1-.408.408h-1.278Zm-3.775,0a.408.408,0,0,1-.407-.408v-1.28a.408.408,0,0,1,.407-.408h1.279a.408.408,0,0,1,.407.408v1.28a.408.408,0,0,1-.407.408H211.13Z" transform="translate(-0.009 -2.705)" fill="#282828"/>
  </g>
</svg>
