<svg id="date-refusee" xmlns="http://www.w3.org/2000/svg" width="29.152" height="29.152" viewBox="0 0 29.152 29.152">
  <path id="Tracé_19350" data-name="Tracé 19350" d="M-191.741,424.069l1.947-1.947a1.135,1.135,0,0,0,0-1.606,1.138,1.138,0,0,0-1.609,0l-1.945,1.945-1.947-1.945a1.136,1.136,0,0,0-1.607,0,1.135,1.135,0,0,0,0,1.606l1.947,1.947-1.947,1.947a1.135,1.135,0,0,0,0,1.606,1.132,1.132,0,0,0,.8.333,1.132,1.132,0,0,0,.8-.333l1.947-1.947,1.945,1.947a1.135,1.135,0,0,0,.8.333,1.134,1.134,0,0,0,.8-.333,1.135,1.135,0,0,0,0-1.606Z" transform="translate(207.923 -409.493)" fill="#ff0252"/>
  <path id="Tracé_19367" data-name="Tracé 19367" d="M-538.291,746.4a10.576,10.576,0,0,1,10.578,10.574,10.577,10.577,0,0,1-10.575,10.578,10.576,10.576,0,0,1-10.577-10.575,10.576,10.576,0,0,1,3.385-7.756,10.618,10.618,0,0,1,7.19-2.821m0-4a14.576,14.576,0,0,0-14.574,14.578,14.576,14.576,0,0,0,14.578,14.574,14.576,14.576,0,0,0,14.574-14.578,14.578,14.578,0,0,0-3.889-9.91A14.522,14.522,0,0,0-538.291,742.4Z" transform="translate(552.865 -742.404)" fill="#ff0252"/>
</svg>
