<svg id="date-terminee" xmlns="http://www.w3.org/2000/svg" width="29.152" height="29.152" viewBox="0 0 29.152 29.152">
  <path id="Tracé_19347" data-name="Tracé 19347" d="M-195.368,427.642a1.113,1.113,0,0,1-.864-.413l-1.943-2.411a1.11,1.11,0,0,1,.168-1.561,1.108,1.108,0,0,1,1.561.167l1,1.247,2.766-4.044a1.108,1.108,0,0,1,1.544-.29,1.109,1.109,0,0,1,.29,1.543l-3.609,5.279a1.113,1.113,0,0,1-.873.483Z" transform="translate(209.111 -409.315)" fill="#69dc51"/>
  <path id="Tracé_19365" data-name="Tracé 19365" d="M-538.291,746.4a10.576,10.576,0,0,1,10.578,10.574,10.577,10.577,0,0,1-10.575,10.578,10.576,10.576,0,0,1-10.577-10.575,10.576,10.576,0,0,1,3.385-7.756,10.618,10.618,0,0,1,7.19-2.821m0-4a14.576,14.576,0,0,0-14.574,14.578,14.576,14.576,0,0,0,14.578,14.574,14.576,14.576,0,0,0,14.574-14.578,14.578,14.578,0,0,0-3.889-9.91A14.522,14.522,0,0,0-538.291,742.4Z" transform="translate(552.865 -742.404)" fill="#69dc51"/>
</svg>
