<svg id="date" xmlns="http://www.w3.org/2000/svg" width="29.982" height="29.982" viewBox="0 0 29.982 29.982">
  <path id="Tracé_19299" data-name="Tracé 19299" d="M160.176,282.365v-2.758a2.419,2.419,0,0,1,.1-.724,1.468,1.468,0,0,1,1.667-.971,1.484,1.484,0,0,1,1.225,1.427c.017.878,0,1.757,0,2.634v.417h1.465a4.417,4.417,0,0,1,4.452,3.787,14.353,14.353,0,0,1,.018,2.184H139.227a7.431,7.431,0,0,1,.358-3.26,4.386,4.386,0,0,1,3.944-2.7c.546-.031,1.093,0,1.674,0v-2.809a2.512,2.512,0,0,1,.058-.589,1.454,1.454,0,0,1,1.517-1.1,1.431,1.431,0,0,1,1.378,1.222,9.572,9.572,0,0,1,.043,1.226c0,.643,0,1.288.009,1.932a.325.325,0,0,0,.033.09Z" transform="translate(-139.179 -277.885)" fill="#fff"/>
  <path id="Rectangle_1415" data-name="Rectangle 1415" d="M.5,0H3.986a.5.5,0,0,1,.5.5V3.991a.5.5,0,0,1-.5.5H.5a.5.5,0,0,1-.5-.5V.5A.5.5,0,0,1,.5,0Z" transform="translate(4.683 17.258)" fill="#fff" opacity="0.4" style="mix-blend-mode: normal;isolation: isolate"/>
  <path id="Tracé_19300" data-name="Tracé 19300" d="M169.141,287.216c0-.1-.015-.2-.022-.313h-29.9c0,.124-.012.205-.012.288v11.664a4.157,4.157,0,0,0,.052.735,4.455,4.455,0,0,0,4.512,3.773q10.4.009,20.808,0a4.385,4.385,0,0,0,.768-.052,4.459,4.459,0,0,0,3.788-4.5C169.15,294.945,169.143,291.082,169.141,287.216Zm-20.808,7.046a.874.874,0,0,1-.874.874h-2.737a.873.873,0,0,1-.872-.874h0V291.52a.873.873,0,0,1,.872-.874h2.737a.874.874,0,0,1,.874.874h0Zm8.083,0a.873.873,0,0,1-.872.874H152.8a.874.874,0,0,1-.872-.874h0V291.52a.874.874,0,0,1,.872-.874h2.739a.873.873,0,0,1,.872.874h0Zm8.084,0a.874.874,0,0,1-.872.874h-2.739a.874.874,0,0,1-.872-.874h0V291.52a.874.874,0,0,1,.872-.874h2.739a.874.874,0,0,1,.872.874h0Z" transform="translate(-139.164 -273.385)" fill="#fff"/>
</svg>
