<svg xmlns="http://www.w3.org/2000/svg" width="16" height="20" viewBox="0 0 16 20">
  <g id="Delete" transform="translate(-149.687 -434.241)">
    <path id="Tracé_1076" data-name="Tracé 1076" d="M164.149,436.741h-3.385v-.625a1.86,1.86,0,0,0-1.846-1.875h-2.462a1.861,1.861,0,0,0-1.846,1.875v.625h-3.384a1.551,1.551,0,0,0-1.539,1.562v1.25a.62.62,0,0,0,.616.625h14.769a.62.62,0,0,0,.615-.625V438.3A1.55,1.55,0,0,0,164.149,436.741Zm-8.308-.625a.621.621,0,0,1,.616-.625h2.462a.621.621,0,0,1,.615.625v.625h-3.692Z" transform="translate(0 0)" fill="#fff"/>
    <path id="Tracé_1077" data-name="Tracé 1077" d="M152.357,452.209a.194.194,0,0,0-.192.2l.508,10.822a1.857,1.857,0,0,0,1.844,1.786h9.345a1.857,1.857,0,0,0,1.844-1.786l.508-10.822a.194.194,0,0,0-.192-.2Zm9.294,1.563a.615.615,0,1,1,1.231,0V461.9a.615.615,0,1,1-1.231,0Zm-3.077,0a.615.615,0,1,1,1.231,0V461.9a.615.615,0,1,1-1.231,0Zm-3.077,0a.615.615,0,1,1,1.231,0V461.9a.615.615,0,1,1-1.231,0Z" transform="translate(-1.502 -10.781)" fill="#fff"/>
  </g>
</svg>
