<svg xmlns="http://www.w3.org/2000/svg" width="16" height="20" viewBox="0 0 16 20">
  <g id="delete" transform="translate(-210.412 -0.5)">
    <path id="Tracé_19458" data-name="Tracé 19458" d="M224.874,3h-3.385V2.375A1.861,1.861,0,0,0,219.643.5h-2.462a1.861,1.861,0,0,0-1.846,1.875h0V3h-3.384a1.552,1.552,0,0,0-1.54,1.562v1.25a.62.62,0,0,0,.616.625H225.8a.619.619,0,0,0,.615-.625V4.56A1.549,1.549,0,0,0,224.874,3Zm-8.308-.626a.621.621,0,0,1,.615-.625h2.462a.622.622,0,0,1,.615.625V3h-3.692Z" fill="#c73232"/>
    <path id="Tracé_19459" data-name="Tracé 19459" d="M211.6,7.689a.2.2,0,0,0-.2.2h0l.508,10.825a1.857,1.857,0,0,0,1.844,1.786H223.1a1.857,1.857,0,0,0,1.844-1.786l.508-10.825a.2.2,0,0,0-.2-.2H211.6Zm9.293,2.563a.615.615,0,1,1,1.23,0v7.13a.615.615,0,1,1-1.23,0Zm-3.077,0a.616.616,0,1,1,1.231,0v7.13a.616.616,0,1,1-1.231,0Zm-3.077,0a.616.616,0,1,1,1.231,0v7.13a.616.616,0,1,1-1.231,0Z" transform="translate(-0.015)" fill="#c73232"/>
  </g>
</svg>
