<svg xmlns="http://www.w3.org/2000/svg" width="20" height="12" viewBox="0 0 20 12">
  <g id="Details" transform="translate(578.803 -1293.278)">
    <path id="Tracé_12817" data-name="Tracé 12817" d="M-568.814,1294.807a9.954,9.954,0,0,1,4.926,1.309,9.99,9.99,0,0,1,3.371,3.162,10.03,10.03,0,0,1-3.3,3.12,9.893,9.893,0,0,1-4.975,1.351,9.956,9.956,0,0,1-4.926-1.309,9.986,9.986,0,0,1-3.371-3.162,10.029,10.029,0,0,1,3.3-3.119,9.888,9.888,0,0,1,4.975-1.351m0-1.529a11.344,11.344,0,0,0-5.732,1.556,11.549,11.549,0,0,0-4.206,4.249.393.393,0,0,0,0,.389,11.461,11.461,0,0,0,9.959,5.806,11.346,11.346,0,0,0,5.732-1.556,11.548,11.548,0,0,0,4.206-4.25.393.393,0,0,0,0-.389,11.461,11.461,0,0,0-9.959-5.805Z" transform="translate(0)" fill="#fff"/>
    <path id="Tracé_12818" data-name="Tracé 12818" d="M-467.444,1319.615a4.639,4.639,0,0,0-4.615,4.663,4.64,4.64,0,0,0,4.615,4.664,4.64,4.64,0,0,0,4.616-4.664A4.644,4.644,0,0,0-467.444,1319.615Zm1.66,3.683a1.931,1.931,0,0,0-1.661-.963h-.042a.388.388,0,0,1-.364-.41.387.387,0,0,1,.405-.367,2.7,2.7,0,0,1,2.325,1.349h0l.016.028a.391.391,0,0,1-.16.526A.383.383,0,0,1-465.783,1323.3Zm1.031,1.017a.386.386,0,0,1-.405.367.387.387,0,0,1-.363-.409v0a.386.386,0,0,1,.385-.387.387.387,0,0,1,.384.389A.406.406,0,0,1-464.753,1324.314Z" transform="translate(-101.359 -24.994)" fill="#fff"/>
  </g>
</svg>
