<svg xmlns="http://www.w3.org/2000/svg" width="14" height="8.226" viewBox="0 0 14 8.226">
  <path id="drone_border" d="M1190.457,353.476l.035.019c.022.012.033.02.035.02a.215.215,0,0,1,0,.046v.165c0,.326,0,.652,0,.979,0,.035,0,.057,0,.057a.206.206,0,0,1-.064.008c-.033,0-.057,0-.069,0s-.008,0-.008,0a.221.221,0,0,1-.01-.067c0-.055,0-.111,0-.169v-.108c0-.1,0-.471,0-.574v-.263c0-.047.006-.07,0-.071a.227.227,0,0,1,.032-.02l.041-.021m-8.061.038a.343.343,0,0,1,.009.094c0,.055,0,.109,0,.167v.073c0,.1,0,.477,0,.581v.1c0,.057,0,.115,0,.174a.479.479,0,0,0,0,.067,1.367,1.367,0,0,1-.147,0,.459.459,0,0,1,0-.071c-.008-.3-.006-.6,0-.9v-.24c0-.024,0-.037,0-.039A1.426,1.426,0,0,1,1182.4,353.514Zm1.927.329h0m2.108.053c.673,0,1.345,0,2.038,0,0,.029.012.062.022.1a1.726,1.726,0,0,1-.007.323l-.006.041-.008.057h-.066l-.151,0-.216,0a.705.705,0,0,0-.7.681c-.062,0-.147,0-.266,0-.5,0-1.223-.018-1.64-.031a.7.7,0,0,0-.144-.334l-.034-.043a.7.7,0,0,0-.549-.265h-.391c0-.016-.007-.036-.01-.06a3.062,3.062,0,0,1,.007-.471l2.117,0m4.1.865h0m-8.206-3.4h-.005c-.162,0-.243.1-.294.372h-1.282c-.323,0-.645,0-.969,0h0a.367.367,0,0,0-.382.214v.137a.366.366,0,0,0,.381.215h0c.323,0,.646,0,.968,0h1.3c0,.173,0,.323,0,.473a.156.156,0,0,1-.073.107.721.721,0,0,0-.417.683c0,.387-.007.775,0,1.162a.921.921,0,0,0,.079.355.72.72,0,0,0,.68.4,1.044,1.044,0,0,0,.214-.023.72.72,0,0,0,.575-.732c0-.1,0-.2,0-.293h.5a.253.253,0,0,1,.015.046.652.652,0,0,0,.758.655h.335l.033.043c-.033.058-.052.134-.1.172a3.346,3.346,0,0,0-.965,1.17,5.6,5.6,0,0,0-.563,2.206c-.013.186-.022.374-.021.56a.273.273,0,0,0,.258.3h.023a.271.271,0,0,0,.274-.27c.014-.131.007-.264.014-.4a5.366,5.366,0,0,1,.467-2.05,2.757,2.757,0,0,1,.829-1.052.231.231,0,0,1,.125-.052h.006c.187.012,1.3.046,1.99.046a4.31,4.31,0,0,0,.519-.018.469.469,0,0,1,.093-.01.3.3,0,0,1,.208.084,3.257,3.257,0,0,1,1.011,1.667,6.248,6.248,0,0,1,.228,1.672.6.6,0,0,0,.069.272.215.215,0,0,0,.2.112.4.4,0,0,0,.1-.015.289.289,0,0,0,.193-.312,7.056,7.056,0,0,0-.254-1.9,3.708,3.708,0,0,0-1.317-2.024c-.043-.032-.049-.113-.087-.209.137,0,.256,0,.367,0,.068,0,.133,0,.2-.007a.608.608,0,0,0,.555-.548c.006-.048.014-.1.021-.144h.5c0,.107,0,.207,0,.305a.722.722,0,0,0,.787.739h.015a.717.717,0,0,0,.75-.762c0-.383,0-.766,0-1.149a.723.723,0,0,0-.414-.685c-.031-.016-.075-.05-.076-.078-.007-.167,0-.333,0-.5H1193c.253,0,.391-.1.39-.284s-.139-.279-.394-.279h-2.25c-.029-.26-.1-.358-.268-.37h-.031c-.144,0-.211.088-.292.372h-2.237a.858.858,0,0,0-.19.019.27.27,0,0,0-.006.521.777.777,0,0,0,.189.02h2.264c0,.175,0,.334,0,.492a.129.129,0,0,1-.067.085.736.736,0,0,0-.426.72c0,.085,0,.17,0,.261h-.5c-.006-.027-.013-.049-.015-.071a.621.621,0,0,0-.654-.583l-2.075,0-2.164,0a.619.619,0,0,0-.643.579.453.453,0,0,1-.02.072h-.5c0-.083,0-.155,0-.228a.741.741,0,0,0-.436-.754c-.025-.011-.057-.042-.057-.065,0-.166,0-.332,0-.51h2.287c.23,0,.364-.1.365-.28s-.134-.28-.363-.282h-2.276c-.055-.276-.134-.372-.294-.372Z" transform="translate(-1179.39 -351.357)" fill="#282828" opacity="0.5"/>
</svg>
