<svg xmlns="http://www.w3.org/2000/svg" width="20" height="11.751" viewBox="0 0 20 11.751">
  <path id="drone_border" d="M1195.2,354.384l.05.027c.031.017.047.029.05.029a.292.292,0,0,1,.006.065v.236c0,.466,0,.932,0,1.4,0,.05-.007.081,0,.082a.293.293,0,0,1-.091.011c-.047,0-.081-.005-.1-.005s-.012,0-.012,0a.318.318,0,0,1-.015-.1c0-.079,0-.159,0-.242v-.154c0-.146,0-.673,0-.82v-.376c0-.067.009-.1.007-.1a.325.325,0,0,1,.045-.028c.02-.009.04-.02.059-.03m-11.516.054a.5.5,0,0,1,.012.134c0,.078,0,.156,0,.239v.1c0,.147,0,.681,0,.83v.139c0,.082,0,.165,0,.248a.716.716,0,0,0,0,.1,1.947,1.947,0,0,1-.21,0,.673.673,0,0,1-.005-.1c-.011-.43-.008-.86-.006-1.289l0-.343c0-.034,0-.053,0-.056A2.033,2.033,0,0,1,1183.684,354.438Zm2.753.47h0m3.011.075c.961,0,1.922,0,2.912.005.007.042.017.088.031.148a2.486,2.486,0,0,1-.01.461l-.009.058-.012.082h-.094l-.216,0c-.1,0-.2,0-.308,0a1.007,1.007,0,0,0-.994.973c-.088,0-.21,0-.38,0-.713,0-1.747-.026-2.343-.045a1,1,0,0,0-.205-.477l-.049-.062a1,1,0,0,0-.784-.379h-.478l-.08,0c-.005-.023-.01-.051-.015-.085a4.383,4.383,0,0,1,.01-.673l3.024,0m5.861,1.236h0m-11.723-4.862h-.007c-.232,0-.347.145-.42.532h-1.832c-.461,0-.922,0-1.384,0h-.007a.524.524,0,0,0-.546.306v.2a.523.523,0,0,0,.545.307h.007c.461,0,.922,0,1.383,0h1.858c0,.247.007.462-.005.675a.223.223,0,0,1-.1.153,1.03,1.03,0,0,0-.6.976c0,.553-.01,1.107,0,1.66a1.318,1.318,0,0,0,.113.507,1.029,1.029,0,0,0,.972.578,1.492,1.492,0,0,0,.306-.033,1.029,1.029,0,0,0,.821-1.045c.005-.14,0-.28,0-.418h.71a.351.351,0,0,1,.021.065.932.932,0,0,0,1.083.935h.479l.048.061c-.047.083-.075.192-.146.245a4.782,4.782,0,0,0-1.379,1.672,8.012,8.012,0,0,0-.8,3.152c-.019.266-.031.534-.03.8a.391.391,0,0,0,.368.425h.033a.387.387,0,0,0,.392-.386c.02-.187.01-.377.02-.566a7.667,7.667,0,0,1,.667-2.928,3.937,3.937,0,0,1,1.184-1.5.33.33,0,0,1,.178-.075h.008c.267.017,1.863.065,2.842.065a6.16,6.16,0,0,0,.741-.025.669.669,0,0,1,.133-.015.435.435,0,0,1,.3.12,4.654,4.654,0,0,1,1.444,2.382,8.924,8.924,0,0,1,.326,2.389.853.853,0,0,0,.1.388.307.307,0,0,0,.285.16.564.564,0,0,0,.144-.021.413.413,0,0,0,.275-.446,10.075,10.075,0,0,0-.363-2.719,5.3,5.3,0,0,0-1.881-2.891c-.062-.046-.07-.162-.125-.3.2,0,.365.006.524.006.1,0,.19,0,.282-.01a.868.868,0,0,0,.793-.783c.008-.068.02-.136.03-.205h.717c0,.153,0,.3,0,.436a1.032,1.032,0,0,0,1.124,1.056h.021a1.024,1.024,0,0,0,1.071-1.088c0-.547,0-1.094,0-1.641a1.033,1.033,0,0,0-.592-.978c-.045-.023-.107-.072-.109-.111-.01-.238-.005-.476-.005-.721h3.233c.361,0,.559-.146.557-.406s-.2-.4-.563-.4h-3.214c-.041-.371-.147-.511-.383-.529l-.045,0c-.206,0-.3.126-.417.531h-1.481l-1.715,0a1.228,1.228,0,0,0-.271.027.385.385,0,0,0-.008.745,1.112,1.112,0,0,0,.27.029q.859,0,1.72,0h1.515c0,.25.006.477,0,.7a.184.184,0,0,1-.1.122,1.051,1.051,0,0,0-.609,1.029c0,.121,0,.243,0,.373h-.721c-.009-.039-.018-.07-.022-.1a.888.888,0,0,0-.934-.833l-2.964,0-3.091,0a.885.885,0,0,0-.919.827.677.677,0,0,1-.028.1h-.715c0-.118,0-.221,0-.325a1.059,1.059,0,0,0-.623-1.077c-.035-.016-.081-.06-.082-.093-.007-.237,0-.475,0-.728h3.267c.329,0,.52-.149.522-.4s-.191-.4-.518-.4h-3.252c-.079-.394-.192-.532-.42-.532Z" transform="translate(-1179.39 -351.357)" fill="#55aaa0"/>
</svg>
