<svg xmlns="http://www.w3.org/2000/svg" width="20" height="11.751" viewBox="0 0 20 11.751">
  <path id="drone" d="M1110.043,352.192a.529.529,0,0,1,.554-.306c1,.006,2.005,0,3.008,0h.207c.073-.387.188-.529.421-.532s.346.134.427.532h3.114c.046,0,.092,0,.137,0,.327,0,.52.154.518.4s-.192.4-.522.4h-3.266c0,.253,0,.491,0,.728,0,.033.046.077.081.093a1.057,1.057,0,0,1,.623,1.077c0,.1,0,.207,0,.325h.715a.793.793,0,0,0,.028-.1.884.884,0,0,1,.919-.827q3.027-.006,6.055,0a.887.887,0,0,1,.933.833c.005.031.014.062.022.1h.722v-.373a1.052,1.052,0,0,1,.608-1.029.185.185,0,0,0,.1-.122c.009-.226,0-.453,0-.7h-.247q-1.494,0-2.989,0a1.1,1.1,0,0,1-.269-.029.383.383,0,0,1-.284-.376.378.378,0,0,1,.292-.368,1.163,1.163,0,0,1,.27-.028q1.494,0,2.989,0h.208c.123-.434.224-.547.462-.529s.341.158.382.529h.206q1.5,0,3.008,0c.365,0,.561.14.563.4s-.2.4-.556.406h-3.233c0,.245-.005.483.005.721,0,.039.063.088.108.111a1.032,1.032,0,0,1,.592.978c0,.547,0,1.094,0,1.641a1.025,1.025,0,0,1-1.071,1.088,1.035,1.035,0,0,1-1.145-1.056c-.006-.141,0-.283,0-.436h-.718c-.01.069-.021.137-.029.205a.869.869,0,0,1-.793.783c-.244.02-.491,0-.806,0,.054.137.063.253.124.3a5.3,5.3,0,0,1,1.881,2.891,10.115,10.115,0,0,1,.364,2.719.414.414,0,0,1-.275.446.348.348,0,0,1-.429-.139.851.851,0,0,1-.1-.388,8.959,8.959,0,0,0-.326-2.389,4.648,4.648,0,0,0-1.445-2.382.448.448,0,0,0-.43-.105c-.327.065-3.215-.017-3.582-.04a.318.318,0,0,0-.186.075,3.926,3.926,0,0,0-1.184,1.5,7.65,7.65,0,0,0-.667,2.928c-.01.189,0,.379-.021.566a.386.386,0,0,1-.425.385.391.391,0,0,1-.367-.425c0-.266.01-.534.029-.8a8.031,8.031,0,0,1,.8-3.152,4.785,4.785,0,0,1,1.38-1.672c.07-.053.1-.162.146-.245l-.048-.061h-.48a.932.932,0,0,1-1.082-.935.44.44,0,0,0-.022-.065h-.71c0,.138,0,.278,0,.418a1.03,1.03,0,0,1-.822,1.045,1.09,1.09,0,0,1-1.278-.545,1.32,1.32,0,0,1-.112-.507c-.014-.553-.007-1.107-.005-1.66a1.033,1.033,0,0,1,.6-.976.221.221,0,0,0,.105-.153c.012-.213.005-.428.005-.675h-.232c-1,0-2.006,0-3.008,0a.527.527,0,0,1-.553-.307Z" transform="translate(-1110.043 -351.357)" fill="#282828"/>
</svg>
