<svg xmlns="http://www.w3.org/2000/svg" width="10" height="7" viewBox="0 0 10 7">
  <g id="drone_decolle" transform="translate(-347.107 -419.921)">
    <path id="drone" d="M347.232,420.356a.26.26,0,0,1,.275-.159c.5,0,1,0,1.495,0h.1c.036-.2.093-.275.209-.277s.172.07.212.277h1.615c.162,0,.258.08.257.21s-.1.208-.259.208h-1.623c0,.132,0,.256,0,.38,0,.017.023.04.04.048a.555.555,0,0,1,.31.561c0,.054,0,.108,0,.169h.355a.454.454,0,0,0,.014-.054.447.447,0,0,1,.457-.431q1.5,0,3.009,0a.449.449,0,0,1,.464.434c0,.017.007.032.011.053h.359v-.195a.552.552,0,0,1,.3-.535.1.1,0,0,0,.048-.064c0-.118,0-.235,0-.366h-1.608a.524.524,0,0,1-.134-.016.2.2,0,0,1-.141-.2.2.2,0,0,1,.145-.192.579.579,0,0,1,.134-.015h1.589c.061-.225.111-.285.23-.275s.169.082.19.275h1.6c.181,0,.279.073.28.208s-.1.211-.276.211h-1.606c0,.128,0,.252,0,.376,0,.02.031.045.054.058a.54.54,0,0,1,.294.509c0,.285,0,.57,0,.855a.551.551,0,1,1-1.1.017c0-.074,0-.147,0-.227h-.357c0,.036-.01.071-.014.107a.442.442,0,0,1-.394.408c-.121.01-.244,0-.4,0,.027.071.031.132.062.156a2.777,2.777,0,0,1,.935,1.506,5.5,5.5,0,0,1,.181,1.416.216.216,0,0,1-.137.232.168.168,0,0,1-.213-.073.459.459,0,0,1-.049-.2,4.885,4.885,0,0,0-.162-1.245,2.442,2.442,0,0,0-.718-1.24.213.213,0,0,0-.214-.055c-.162.034-1.6-.009-1.78-.021a.153.153,0,0,0-.092.039,2.038,2.038,0,0,0-.588.783,4.14,4.14,0,0,0-.331,1.525c-.005.1,0,.2-.01.294a.2.2,0,0,1-.211.2.2.2,0,0,1-.182-.221c0-.139,0-.278.014-.417a4.349,4.349,0,0,1,.4-1.642,2.473,2.473,0,0,1,.686-.87c.035-.028.049-.084.073-.128l-.024-.032h-.239c-.339,0-.486-.134-.538-.487a.25.25,0,0,0-.011-.034h-.353c0,.072,0,.145,0,.218a.551.551,0,0,1-1.043.26.709.709,0,0,1-.056-.264c-.007-.288,0-.577,0-.865a.543.543,0,0,1,.3-.508.114.114,0,0,0,.052-.079c.006-.112,0-.223,0-.352H349c-.5,0-1,0-1.495,0a.26.26,0,0,1-.275-.16Z" transform="translate(-0.063)" fill="#fff"/>
    <path id="Tracé_19209" data-name="Tracé 19209" d="M348.953,426.519l-.522-.55-.049-.052c-.048-.052-.1-.1-.15-.155a.99.99,0,0,0-.109-.081l-.015-.009h-.09l-.014.009a.731.731,0,0,0-.114.085c-.239.249-.477.5-.71.747a.222.222,0,0,0-.023.3.2.2,0,0,0,.141.076.206.206,0,0,0,.149-.051l.016-.016.394-.415v3.022a.222.222,0,0,0,.146.233.207.207,0,0,0,.062.01.2.2,0,0,0,.1-.025.214.214,0,0,0,.1-.128.225.225,0,0,0,.008-.053v-3.059l.392.412a.2.2,0,0,0,.21.061.207.207,0,0,0,.144-.165A.221.221,0,0,0,348.953,426.519Z" transform="translate(0 -2.755)" fill="#fff"/>
  </g>
</svg>
