<svg xmlns="http://www.w3.org/2000/svg" width="20" height="20" viewBox="0 0 20 20">
  <path id="echec" d="M565.272,209.539a9,9,0,1,1-9,9,9.011,9.011,0,0,1,9-9m-.107,5.638-1.827-1.641a1.537,1.537,0,0,0-2.17.115l-1.2,1.332a1.54,1.54,0,0,0,.12,2.163l1.666,1.5-1.568,1.6a1.54,1.54,0,0,0,.018,2.171l1.274,1.253a1.536,1.536,0,0,0,2.17-.018l1.724-1.751,1.827,1.641a1.537,1.537,0,0,0,2.17-.115l1.2-1.332a1.541,1.541,0,0,0-.12-2.164l-1.666-1.5,1.569-1.6a1.541,1.541,0,0,0-.019-2.171l-1.276-1.253a1.534,1.534,0,0,0-2.168.019l-1.724,1.751m.107-6.638a10,10,0,1,0,10,10,10,10,0,0,0-10-10Zm-.064,8.02,2.394-2.432a.536.536,0,0,1,.755-.007h0l1.274,1.252a.538.538,0,0,1,.006.758l-2.3,2.34,2.442,2.2a.538.538,0,0,1,.042.756l-1.194,1.328a.536.536,0,0,1-.4.178.53.53,0,0,1-.358-.138l-2.538-2.28-2.394,2.432a.536.536,0,0,1-.758.006l-1.272-1.252a.537.537,0,0,1-.006-.758l2.3-2.34-2.442-2.2a.536.536,0,0,1-.042-.756l1.194-1.328a.539.539,0,0,1,.758-.04l2.538,2.28Z" transform="translate(-555.272 -208.539)" fill="#282828" opacity="0.5"/>
</svg>
