<svg id="email" xmlns="http://www.w3.org/2000/svg" width="39.978" height="29.983" viewBox="0 0 39.978 29.983">
  <path id="Tracé_19338" data-name="Tracé 19338" d="M.612,6.975q3.817,2.36,7.63,4.723,5.46,3.388,10.914,6.79a2.46,2.46,0,0,0,2.848,0q9.049-5.634,18.118-11.24c.132-.082.266-.16.468-.282v.46q0,7.409,0,14.818a5.96,5.96,0,0,1-6.164,6.236q-12.785.006-25.571,0a22.474,22.474,0,0,1-3.386-.128A5.82,5.82,0,0,1,.688,23.4a1.185,1.185,0,0,0-.076-.214Z" transform="translate(-0.612 1.501)" fill="#fff"/>
  <path id="Tracé_19339" data-name="Tracé 19339" d="M20.478,2.731H34.336a5.746,5.746,0,0,1,5.115,2.734,11.96,11.96,0,0,1,.722,1.573c.138.3.032.458-.24.628q-7.148,4.422-14.28,8.869c-1.619,1.007-3.242,2.009-4.855,3.026a.472.472,0,0,1-.592,0Q10.605,13.589.993,7.642a.423.423,0,0,1-.226-.568A5.908,5.908,0,0,1,6.622,2.733Q13.551,2.724,20.478,2.731Z" transform="translate(-0.489 -2.729)" fill="#fff"/>
</svg>
