<svg id="employes" xmlns="http://www.w3.org/2000/svg" width="263" height="262.997" viewBox="0 0 263 262.997">
  <path id="Tracé_18877" data-name="Tracé 18877" d="M131.786,106H17.187A16.838,16.838,0,0,1,4.6,101.363,13.117,13.117,0,0,1,.539,92.473a79.949,79.949,0,0,1,.592-12.545A70.457,70.457,0,0,1,14.807,46.213,78.483,78.483,0,0,1,31.178,29.855,74.908,74.908,0,0,1,65.854,15.39c4.984-.7,24.077-1.065,29.1-1.091,5.444,14.649,48.4,33.361,73.073,0a157.594,157.594,0,0,1,32.467,0A42.623,42.623,0,0,1,220.7,22.491a79.439,79.439,0,0,1,26.839,21.894,72.15,72.15,0,0,1,14.872,33.926,61.839,61.839,0,0,1,1.052,11.651,14.836,14.836,0,0,1-13.833,15.78h-.013a31.458,31.458,0,0,1-4.3.263Z" transform="translate(-0.5 156.966)" fill="#337682"/>
  <path id="Tracé_18878" data-name="Tracé 18878" d="M53.357,14.849,69.623,46.027h.316V10.536a9.823,9.823,0,0,1,2.38-7.088A9.707,9.707,0,0,1,79.735.569q8.955-.138,17.9,0A8.7,8.7,0,0,1,106.139,5a13.9,13.9,0,0,1,1.315,5.628c.118,11.3.066,22.6.066,33.913v1.315l.276.092L124.1,14.731A65.372,65.372,0,0,1,164.09,73.878h3.735a5.1,5.1,0,0,1,5.523,4.642,3.958,3.958,0,0,1,0,.789V95.865a5.094,5.094,0,0,1-4.708,5.483,4.308,4.308,0,0,1-.921-.013H9.647a4.9,4.9,0,0,1-5.536-4.155,5.389,5.389,0,0,1,0-1.3c-.092-5.681-.066-11.361,0-17.081a5.018,5.018,0,0,1,5.115-4.944h4.09A65.545,65.545,0,0,1,53.357,14.849Z" transform="translate(42.649 -0.5)" fill="#337682"/>
  <path id="Tracé_18879" data-name="Tracé 18879" d="M4.857,8.415H152.988a71.593,71.593,0,0,1-33.44,52.494,74.746,74.746,0,0,1-76.439,2.722A71.507,71.507,0,0,1,4.857,8.415Z" transform="translate(52.436 95.668)" fill="#337682"/>
</svg>
