<svg xmlns="http://www.w3.org/2000/svg" xmlns:xlink="http://www.w3.org/1999/xlink" width="171.87" height="156.295" viewBox="0 0 171.87 156.295">
  <defs>
    <clipPath id="clip-path">
      <path id="Tracé_18971" data-name="Tracé 18971" d="M-378.336,219.253c0,12.671,1.038,25.007-5.268,34.987-2.1,3.327-16.112,8.768-18.767,11.649a64.759,64.759,0,0,1-47.755,20.922,64.794,64.794,0,0,1-64.866-64.723A64.762,64.762,0,0,1-471.318,160.9c6.64-2.289,10.584-12.355,18-12.355,7.24,0,22.571,5.783,23.892,12.191a64.708,64.708,0,0,1,17.942,9.37c2.771,2.054,4.741-19.759,14.869-24.768,14.016-6.929,36.991,2.174,39.509,6.242,1.2,1.936,5.183,22.592-2.469,33.017-8.971,12.221-29.858,14.462-29,17.037a64.205,64.205,0,0,1,2.364,9.4C-385.584,214.626-378.336,215.484-378.336,219.253Z" transform="translate(514.992 -142.811)" fill="none"/>
    </clipPath>
  </defs>
  <g id="Infos" transform="translate(526.862 -142.812)">
    <ellipse id="Ellipse_204" data-name="Ellipse 204" cx="64.866" cy="64.723" rx="64.866" ry="64.723" transform="translate(-514.992 157.365)" fill="#afded6"/>
    <ellipse id="Ellipse_205" data-name="Ellipse 205" cx="40.734" cy="40.644" rx="40.734" ry="40.644" transform="translate(-502.831 193.786)" fill="#263238" opacity="0.5"/>
    <g id="Groupe_937" data-name="Groupe 937" transform="translate(-514.992 142.811)">
      <g id="Groupe_936" data-name="Groupe 936" clip-path="url(#clip-path)">
        <g id="freepik--character-1--inject-39" transform="translate(16.764 9.395)">
          <g id="freepik--Chartacter--inject-39">
            <g id="freepik--bottom--inject-39" transform="translate(6.476 108.932)">
              <path id="Tracé_18919" data-name="Tracé 18919" d="M-486.11,421.52c.868-11.65-.469-20.582.529-38.774h0c.08-4.66.259-9.659.579-14.1,1.078-14.936,3.443-20.034,3.662-22.9,0,0,.4-23.24,1.407-55.911.469-15.374,5.04-20.024,8.692-28.189h45.186c4.85,20.134,4.471,64.036,4.331,84.787-.07,10.575-4.461,67.162-4.541,68.467-.319,4.62.1,6.442,2,8.384,3.892,4.063,9.53,7.966,14.4,11.481-.7,1.812-6.566,1.753-9.47.368a75.461,75.461,0,0,1-10.818-6.721c-3.992-2.888-9.121-5.208-9.191-9.609a4.653,4.653,0,0,0-.13-.777c-.08-2.569-6.217-40.427-6.726-49.209-.449-7.548.5-20.363.5-20.363l-4.99-31.993s-3.084,18.919-6.207,31.864c-2.535,10.515-6.726,28.448-9.58,41.383h0c-2.744,14.936-6.776,25.5-7.475,32.969-.21,1.772-2.275,19.258-3.133,23.26s-9.84,4.053-10.448-2.808C-487.926,438.518-486.27,423.721-486.11,421.52Z" transform="translate(491.695 -261.645)" fill="#c8856a"/>
              <path id="Tracé_18920" data-name="Tracé 18920" d="M-401.52,440.114a3.707,3.707,0,0,1-.689,3.8c-1.537,1.324-6.077,3.515-12.115,2.818s-9.321-2.479-11.756-4.421-5.838-4.68-8.572-5.238c-2.545-.518-5.3-1.6-6.127-2.36s-.738-4.152-.738-4.152Z" transform="translate(491.6 -262.365)" fill="#263238"/>
              <path id="Tracé_18921" data-name="Tracé 18921" d="M-439.561,417.435s-.449,0-.6.807c-.18.936-.349,3.654-.728,5.2a26.461,26.461,0,0,0-.5,8.245c.349,1.733,4.491,2.9,7.135,3.844a33.822,33.822,0,0,1,8.612,5.178,25.355,25.355,0,0,0,12.773,4.481c5.988,0,9.86-1.6,11.037-3.714,1.457-2.619.279-4.112-6.646-7.149-1.317-.577-5.928-3.176-7.5-4.112a34.889,34.889,0,0,1-4.72-3.356,25.241,25.241,0,0,1-2.126-1.991A9.4,9.4,0,0,1-424.6,422.7c-.08-.169-.13-.378-.21-.568a9.652,9.652,0,0,1-.459-1.563c-.12-.558-.2-1.374-.748-1.7a4.689,4.689,0,0,0-2.465-.259,19.892,19.892,0,0,0-2.655.4c-1,.229-2.185.329-2.774,1.265a4.683,4.683,0,0,0-.539,2.44v1.175c0,.169.07.468-.17.408s-.489-.647-.579-.846c-.2-.438-.329-.906-.539-1.334a6.833,6.833,0,0,0-.878-1.414,7.044,7.044,0,0,0-1.1-1.075,10.729,10.729,0,0,1-1.217-.727A2.665,2.665,0,0,1-439.561,417.435Z" transform="translate(491.6 -262.309)" fill="#37474f"/>
              <path id="Tracé_18922" data-name="Tracé 18922" d="M-407.321,434.9c-8.672.677-11.346,5.925-11.686,9.161a20.972,20.972,0,0,0,6.187,1.2c5.988,0,10.109-1.6,11.287-3.724C-400.166,439.077-401.134,437.106-407.321,434.9Z" transform="translate(491.554 -262.384)" fill="#fafafa"/>
              <path id="Tracé_18923" data-name="Tracé 18923" d="M-420.338,435.1a.357.357,0,0,1-.269-.09.4.4,0,0,1-.076-.558l.016-.02a10.331,10.331,0,0,1,7.814-3.1.41.41,0,0,1,.369.448.41.41,0,0,1-.449.368,9.6,9.6,0,0,0-7.075,2.8A.409.409,0,0,1-420.338,435.1Z" transform="translate(491.557 -262.368)" fill="#f0f0f0"/>
              <path id="Tracé_18924" data-name="Tracé 18924" d="M-424.108,433.009a.454.454,0,0,1-.269-.09.408.408,0,0,1-.074-.573l0,0a10.3,10.3,0,0,1,7.824-3.1.41.41,0,0,1,.369.448.41.41,0,0,1-.449.368,9.565,9.565,0,0,0-7.075,2.8A.429.429,0,0,1-424.108,433.009Z" transform="translate(491.565 -262.36)" fill="#f0f0f0"/>
              <path id="Tracé_18925" data-name="Tracé 18925" d="M-427.608,430.609a.454.454,0,0,1-.269-.09.4.4,0,0,1-.076-.558l.016-.02a10.324,10.324,0,0,1,7.814-3.1.41.41,0,0,1,.369.448.41.41,0,0,1-.449.368h0a9.614,9.614,0,0,0-7.075,2.8A.409.409,0,0,1-427.608,430.609Z" transform="translate(491.572 -262.349)" fill="#f0f0f0"/>
              <path id="Tracé_18926" data-name="Tracé 18926" d="M-431.038,428.209a.409.409,0,0,1-.432-.384.411.411,0,0,1,.093-.283c1.647-2.061,5.389-3.445,8.542-3.147a.408.408,0,0,1,.381.434l0,.024a.429.429,0,0,1-.459.368c-2.844-.269-6.337,1-7.794,2.828A.388.388,0,0,1-431.038,428.209Z" transform="translate(491.579 -262.339)" fill="#f0f0f0"/>
              <path id="Tracé_18927" data-name="Tracé 18927" d="M-474.343,449.777c-.24,3.983-.878,6.642-2.325,8.962s-4.2,3.077-6.986,2.39-6.337-2.519-7.125-5.974-1.267-5.8-.629-9.5Z" transform="translate(491.704 -262.43)" fill="#263238"/>
              <path id="Tracé_18928" data-name="Tracé 18928" d="M-486.018,420.775c-1.138.09-1.477,5.447-2.136,10.814-.709,5.745-2.475,8.125-3.1,12.845-.719,5.387.19,7.787,2.126,11.043s8.8,6.452,12.175,1.792c2.754-3.8,2.874-7.966,2.625-13.4a115.137,115.137,0,0,1,.369-13.622c.22-4.033,1.138-8.105.14-8.553-.08.6-.15,1.344-.23,1.922a9.143,9.143,0,0,1-.369,2.151c-.12.309-.369.617-.479.129a3.4,3.4,0,0,1,0-1c.17-1.484-.6-1.6-1-1.723a53.22,53.22,0,0,0-5.309-.727c-.878-.06-3.892-.189-4.281.3a3.174,3.174,0,0,0-.389,1.553c-.1.816-.289,1.4-.309,1.155-.06-.578.06-2.091.07-2.459s.07-.826.08-1.175S-486.038,421.124-486.018,420.775Z" transform="translate(491.703 -262.324)" fill="#37474f"/>
              <path id="Tracé_18929" data-name="Tracé 18929" d="M-491.577,447.658a13.151,13.151,0,0,0,2.146,8.2c1.936,3.256,9.341,6.462,12.724,1.8,1.677-2.32,2.126-5.068,2.365-7.866C-476.369,446.184-488.384,444.6-491.577,447.658Z" transform="translate(491.704 -262.431)" fill="#fafafa"/>
              <path id="Tracé_18930" data-name="Tracé 18930" d="M-476.83,443.9h-.12a20.006,20.006,0,0,0-10.488-1,.419.419,0,0,1-.508-.3v0a.419.419,0,0,1,.319-.5,20.45,20.45,0,0,1,11.047,1.055.408.408,0,0,1,.2.541l0,.007A.428.428,0,0,1-476.83,443.9Z" transform="translate(491.696 -262.413)" fill="#f0f0f0"/>
              <path id="Tracé_18931" data-name="Tracé 18931" d="M-487.208,438.839a.409.409,0,0,1-.359-.279.4.4,0,0,1,.238-.511l.021-.007c5.129-1.693,10.828.846,11.037,1a.4.4,0,0,1,.195.529l-.015.029a.439.439,0,0,1-.569.169s-5.6-2.489-10.369-.906A.357.357,0,0,1-487.208,438.839Z" transform="translate(491.695 -262.395)" fill="#f0f0f0"/>
              <path id="Tracé_18932" data-name="Tracé 18932" d="M-487.028,435.039a.44.44,0,0,1-.359-.269.408.408,0,0,1,.245-.523l.014,0c5.638-1.991,11.037.807,11.237.926a.4.4,0,0,1,.167.539l-.017.029a.45.45,0,0,1-.589.139s-5.259-2.689-10.518-.856A.356.356,0,0,1-487.028,435.039Z" transform="translate(491.695 -262.378)" fill="#f0f0f0"/>
              <path id="Tracé_18933" data-name="Tracé 18933" d="M-486.748,431.3a.44.44,0,0,1-.359-.269.408.408,0,0,1,.241-.525l.008,0c5.289-1.932,11.107.916,11.327,1a.407.407,0,0,1,.157.556l-.007.012a.42.42,0,0,1-.573.153l-.006,0c-.05,0-5.688-2.778-10.6-1A.416.416,0,0,1-486.748,431.3Z" transform="translate(491.694 -262.362)" fill="#ebebeb"/>
              <path id="Tracé_18934" data-name="Tracé 18934" d="M-479.053,261.775c-.709,12.945-2.305,16.609-2.824,43.812s-.439,34.791-.549,38.067-2.066,9.131-3.782,25.272.279,35.369.279,35.369,1.188,2.6,7.524,3.157c5.838.508,8.732-1.633,8.732-1.633s7.983-31.425,10.229-41.154,8.662-41.682,8.662-41.682l3.822,25.889s-1.786,8.962,0,23.061,4.94,28.657,4.94,28.657a26.843,26.843,0,0,0,8.981,1.424,15.474,15.474,0,0,0,7.884-1.991s4.99-42.11,4.99-58.161-1.277-56.926-2.275-79.9Z" transform="translate(491.694 -261.646)" fill="#455a64"/>
              <path id="Tracé_18935" data-name="Tracé 18935" d="M-484.8,405.448a5.847,5.847,0,0,0,.858.538c-1.607-25.361,1.627-39.929,3.782-49.637.21-.926.409-1.812.589-2.659,1.627-7.588,1.627-17.445,1.627-29.922v-11.76c0-4.819.19-9.818.6-14.757,9.071-1.055,11.047-9.788,13.522-20.811.339-1.514.7-3.067,1.078-4.67l-.808-.179c-.379,1.6-.729,3.166-1.078,4.67-2.485,11.053-4.311,19.078-12.644,20.154,1-11.222,3.363-22.1,8.981-29.952l-.669-.458c-8.4,11.69-9.68,29.812-9.83,45.993v11.77c0,12.427,0,22.245-1.567,29.753-.18.846-.379,1.733-.589,2.659C-483.111,365.857-486.335,380.335-484.8,405.448Zm38.79-108.8-4.75,26.327,3.822,25.889-.509-25.182,3.074-14.6c.13,1.892.269,3.844.409,5.835,1.148,16.4,2.924,30.46,2,34.373-2.415,10.724-1.7,17.5-.409,29.783.13,1.245.269,2.549.409,3.913.709,6.97,1.487,13.751,2,18.212l.858.2c-.529-4.461-1.327-11.4-2.056-18.491-.14-1.364-.279-2.669-.409-3.923-1.277-12.2-2-18.919.4-29.514.908-4.033-.808-17.346-2-34.612-.22-3.127-.429-6.164-.629-9.051l1-5.427c3.992-.936,12.714-5.427,13.871-10.764C-435.031,295.877-446.008,296.644-446.008,296.644Z" transform="translate(491.69 -261.664)" fill="#37474f"/>
            </g>
            <g id="freepik--top--inject-39">
              <path id="Tracé_18936" data-name="Tracé 18936" d="M-431.347,204.475c5.149.836,10.209,3.445,14.111,11.2,3.2,6.373,3.992,11.949,8.981,21.966l21.146-.339-3.762,13.482s-12.614,2.24-19.13,2.758c-4.88.388-6.856-.916-9.81-4.889-3.872-5.188-9.281-17.356-9.281-17.356Z" transform="translate(498.055 -152.469)" fill="#55aaa0"/>
              <g id="freepik--Chest--inject-39" transform="translate(17.14 49.696)">
                <path id="freepik--chest--inject-39-2" data-name="freepik--chest--inject-39" d="M-459.771,203.2c-8.562,1.912-12.973,3.166-17.025,4.112,0,0-4.64,5.457-4.191,34.383.05,3.515.9,28.528.259,37.031,0,0,14.28,8.065,38.221,5.616,18.781-1.912,21.046-8.892,21.046-8.892s-1.068-25.6-1.317-39.461c-.329-18-2.126-26.029-8.672-31.525-.679-.388-13.422-2.31-13.422-2.31Z" transform="translate(481.018 -202.155)" fill="#fafafa"/>
                <path id="freepik--chest--inject-39-3" data-name="freepik--chest--inject-39" d="M-444.9,202.832c4.68.707,12.235,1.912,13.083,2.2,6.067,5.138,7.983,12.4,8.363,30.967.24,13.184,1.227,37.26,1.307,39.332-.349.817-3.483,6.612-20.428,8.344-2.994.3-5.988.458-8.872.458-16.216,0-26.535-4.77-28.571-5.805.479-7.349,0-25.292-.21-33.038,0-1.723-.07-2.987-.08-3.6-.4-25.571,3.243-32.68,3.922-33.775,1.407-.329,2.864-.7,4.531-1.125,2.994-.757,6.786-1.713,12.185-2.917l14.769-1m0-.677-14.869,1.006c-8.562,1.912-12.973,3.166-17.025,4.112,0,0-4.64,5.457-4.191,34.383.05,3.515.9,28.528.259,37.031,0,0,10.778,6.084,29.279,6.084a85.905,85.905,0,0,0,8.981-.468c18.781-1.912,21.046-8.892,21.046-8.892s-1.068-25.6-1.317-39.461c-.329-18-2.126-26.029-8.672-31.525-.679-.388-13.422-2.31-13.422-2.31Z" transform="translate(481.018 -202.155)" fill="#e0e0e0"/>
              </g>
              <g id="freepik--Head--inject-39" transform="translate(25.874)">
                <path id="Tracé_18937" data-name="Tracé 18937" d="M-458.019,171.552c1.357,4.9-2.475,9.519-4.251,10.953.17,2.818-1.046,9.359-1.036,12.227.41-4.148-1.127-6.068-1.224-11.765-.194-11.25-7.32-16.837-2.151-18.545a5.493,5.493,0,0,1,2.855-6.265,5.926,5.926,0,0,1,5.06.4s-.021-2.931,2.394-3.737c3.739-1.247,5.585,1.178,5.585,1.178a4.431,4.431,0,0,1,4.1-3.74c1.622-.2,4.337,1.557,4.446,3.07,1.9-.677,3.13-1.014,5.068-.446a3.479,3.479,0,0,1,2.058,5.624c2.175.309,4.87,1.812,4.481,4.331a2.612,2.612,0,0,1-2.545,2c2.525.428,4.521,2.987,2.205,4.979a6.191,6.191,0,0,1-2.67,1.342c-2.174.295-4.894-.287-6.231-.108C-445.844,172.17-451.961,172.17-458.019,171.552Z" transform="translate(472.258 -152.247)" fill="#263238"/>
                <path id="Tracé_18938" data-name="Tracé 18938" d="M-468.525,189.393c3.622,1.812,5.319-1,5.319-1l-.2,16.489c6.866,9.41,26.106,5.138,18.552-1.991v-4.431a27.441,27.441,0,0,0,3.153-.3c3.233-.468,5.279-2.728,6.287-6.193,1.477-5.138,2.146-13.373.309-22.155-.359-1.7-1.068-3.555-2.615-4.341,0,0-12.19,4.909-21.935,3.246,1.856,2.091,1.043,4.612.514,6.3-.748,2.44-3.187,1.827-2.64,6.54-2.215.438-2.445-1.454-3.423-2.5a4.058,4.058,0,0,0-5.714.416,4.049,4.049,0,0,0-.613.948,6.585,6.585,0,0,0,2.841,8.881C-468.634,189.34-468.58,189.367-468.525,189.393Z" transform="translate(472.266 -152.303)" fill="#c8856a"/>
                <path id="Tracé_18939" data-name="Tracé 18939" d="M-460.877,192.615c1,4.76,7.874,7.607,16.057,7.906v-1.932a37.894,37.894,0,0,1-5.988-.617C-455.528,197.126-459.26,195.264-460.877,192.615Z" transform="translate(472.242 -152.419)" fill="#af6152"/>
                <path id="Tracé_18940" data-name="Tracé 18940" d="M-450.365,174.01l-3.563,1.494a1.991,1.991,0,0,1,1.078-2.589,1.888,1.888,0,0,1,2.46,1.031C-450.381,173.966-450.373,173.988-450.365,174.01Z" transform="translate(472.228 -152.334)" fill="#263238"/>
                <path id="Tracé_18941" data-name="Tracé 18941" d="M-436.885,175l-3.732-1.105a1.875,1.875,0,0,1,2.277-1.358c.03.007.059.015.088.024A1.99,1.99,0,0,1-436.885,175Z" transform="translate(472.2 -152.333)" fill="#263238"/>
                <path id="Tracé_18942" data-name="Tracé 18942" d="M-452.637,177.838a1.575,1.575,0,0,0,1.607,1.542,1.575,1.575,0,0,0,1.547-1.6,1.576,1.576,0,0,0-1.608-1.542h-.009A1.574,1.574,0,0,0-452.637,177.838Z" transform="translate(472.225 -152.349)" fill="#263238"/>
                <path id="Tracé_18943" data-name="Tracé 18943" d="M-440.707,177.688a1.575,1.575,0,0,0,1.607,1.542,1.575,1.575,0,0,0,1.547-1.6,1.576,1.576,0,0,0-1.608-1.542h-.009a1.427,1.427,0,0,0-1.544,1.3A1.491,1.491,0,0,0-440.707,177.688Z" transform="translate(472.2 -152.348)" fill="#263238"/>
                <path id="Tracé_18944" data-name="Tracé 18944" d="M-446.317,175.905l1.487,9.36,2.577-.608a1.921,1.921,0,0,0,1.229-2.815A18.7,18.7,0,0,0-446.317,175.905Z" transform="translate(472.212 -152.348)" fill="#af6152"/>
                <path id="Tracé_18945" data-name="Tracé 18945" d="M-449.437,186.475l5.439,2.1a2.865,2.865,0,0,1-3.62,1.812c-.037-.012-.075-.026-.112-.04A3.055,3.055,0,0,1-449.437,186.475Z" transform="translate(472.219 -152.393)" fill="#af6152"/>
                <path id="Tracé_18946" data-name="Tracé 18946" d="M-448.928,187.5a3.444,3.444,0,0,0-.7-.1,2.986,2.986,0,0,0,1.876,2.987,2.755,2.755,0,0,0,.918.169A2.659,2.659,0,0,0-448.928,187.5Z" transform="translate(472.219 -152.397)" fill="#ffa8a7"/>
              </g>
              <g id="freepik--tablet--inject-39" transform="matrix(0.966, -0.259, 0.259, 0.966, 63.078, 71.819)">
                <path id="Tracé_18947" data-name="Tracé 18947" d="M-382.125,218.4h0l-1.377-.926h0a1.432,1.432,0,0,0-1.3,0l-35.516,14.518a4.983,4.983,0,0,0-2.625,3.236l-6.3,29.175a1.273,1.273,0,0,0,.349,1.4h0l1.427.946h0a1.438,1.438,0,0,0,1.317,0l35.506-14.518a4.979,4.979,0,0,0,2.694-3.206l6.3-29.175C-381.536,219.127-381.726,218.619-382.125,218.4Z" transform="translate(429.368 -217.319)" fill="#455a64"/>
                <path id="Tracé_18948" data-name="Tracé 18948" d="M-420.276,233.972a4.863,4.863,0,0,0-1.317,2.25l-6.337,29.165a1.324,1.324,0,0,0,.309,1.384l-1.307-.886h0a1.263,1.263,0,0,1-.359-1.4l6.347-29.195a4.8,4.8,0,0,1,1.207-2.121Z" transform="translate(429.369 -217.387)" fill="#37474f"/>
                <path id="Tracé_18949" data-name="Tracé 18949" d="M-427.927,265.323l6.3-29.175a4.983,4.983,0,0,1,2.694-3.2l35.506-14.518c1.217-.5,2,.139,1.7,1.414l-6.277,29.175a4.979,4.979,0,0,1-2.694,3.206l-35.486,14.518C-427.4,267.235-428.157,266.6-427.927,265.323Z" transform="translate(429.366 -217.323)" fill="#263238"/>
                <path id="Tracé_18950" data-name="Tracé 18950" d="M-420.837,242.095l1.178-5.467a.931.931,0,0,1,.509-.6l2.445-1c.22-.09.369,0,.309.269-.23,1.075-.938,4.381-1.178,5.457a.9.9,0,0,1-.5.6l-2.445,1C-420.747,242.443-420.927,242.334-420.837,242.095Z" transform="translate(429.351 -217.394)" fill="#455a64"/>
                <path id="Tracé_18951" data-name="Tracé 18951" d="M-419.377,237.9a2.334,2.334,0,0,1,1.287-1.474c.589-.239,1,0,.828.617a2.338,2.338,0,0,1-1.287,1.484C-419.128,238.735-419.507,238.456-419.377,237.9Z" transform="translate(429.348 -217.4)" fill="#263238"/>
                <path id="Tracé_18952" data-name="Tracé 18952" d="M-419.927,240.638a2.312,2.312,0,0,1,1.287-1.484c.579-.239,1,0,.828.617a2.338,2.338,0,0,1-1.287,1.484C-419.7,241.495-420.067,241.216-419.927,240.638Z" transform="translate(429.349 -217.412)" fill="#263238"/>
                <path id="Tracé_18953" data-name="Tracé 18953" d="M-382.858,237.124c1.158-1.792,1-1.991.309-2.868a5.465,5.465,0,0,0-4.561-1.991,11.142,11.142,0,0,0-3.822.617c-.768.448,0,2.061,2,2.4,3.163.538,3.193,1.384,3.193,1.384q-2.022-.35-4.072-.5a29.542,29.542,0,0,0-4.551.936c-1.307.279-1.487,1.991.788,2.459l-2.405.508c-1.677.358-2.205,1.285-.818,2.26a2.52,2.52,0,0,0,1.567.5s-1.806.09-1.816.687c0,1.723,1.128,2.111,4.82,2.987,3.523.826,4.341,2.649,3.712,3.983,0,0,1.357-.886,2.565-1.812.878-.667,1.607-1.424,1.128-2.818,0,0,2-.07,2-1.294a6.305,6.305,0,0,0-.609-2.6,2.158,2.158,0,0,0,1-2.091,3.472,3.472,0,0,0-.828-2.111Z" transform="translate(429.303 -217.383)" fill="#c8856a"/>
                <path id="Tracé_18954" data-name="Tracé 18954" d="M-393.567,239.553a11.027,11.027,0,0,1,2.175-.358,7.159,7.159,0,0,1,2.165.568,24.745,24.745,0,0,1,3.932,1.842,25.93,25.93,0,0,1-4.161-1.245,11,11,0,0,0-2-.667C-392.09,239.623-392.848,239.643-393.567,239.553Z" transform="translate(429.294 -217.412)" fill="#af6152"/>
                <path id="Tracé_18955" data-name="Tracé 18955" d="M-395.227,242.834a4.761,4.761,0,0,1,2.365-.2,11.772,11.772,0,0,1,2.3.6,22.282,22.282,0,0,1,4.251,1.991,44.253,44.253,0,0,1-4.461-1.384A12.53,12.53,0,0,0-395.227,242.834Z" transform="translate(429.298 -217.427)" fill="#af6152"/>
              </g>
              <g id="freepik--Arm--inject-39" transform="matrix(0.999, -0.035, 0.035, 0.999, -1.064, 55.946)">
                <g id="freepik--arm--inject-39-2" data-name="freepik--arm--inject-39" transform="translate(0.423 0.896)">
                  <path id="Tracé_18956" data-name="Tracé 18956" d="M-451.717,230.493c2.914-2.459,4.4-3.435,5.8-3.923s6.277-2.878,8.163-3.475c1.2-.378,1.806,1.523.339,2.987-1.128,1.1-4.141,2.629-5.459,3.455s-3.782,4.232-3.782,4.232Z" transform="translate(497.674 -208.298)" fill="#af6152"/>
                  <path id="Tracé_18957" data-name="Tracé 18957" d="M-489.444,219.059c2.625-6.622,5.2-8.6,12.045-10.824,7.315,6.283,3.213,23.7,3.213,23.7l-4.062,15.663s13.073-4.122,15.059-5.566,7.165-7.737,8.912-9.639c2.385-2.579,3.652-2.33,4.99-2.22,4.251.368,5.2.667,6.127,1.175a1.919,1.919,0,0,1,.918,1.583c1.128.08,2.794-.06,3.134,1.753a5.235,5.235,0,0,1,.15,1.474,1.2,1.2,0,0,1,.758.368c1,1-.369,4.839-1.327,5.815a3.665,3.665,0,0,1-2.994.727c-1.148-.09-.689-1.265-.689-1.265l-1.587.189c-3.273,2.639-3.143,7.468-7.6,8.8a31.491,31.491,0,0,0-5.469,1.414c-9.56,3.883-21.775,14.777-30.417,16.061-8.442,1.255-9.54-3.664-9.48-8.862C-497.727,251.111-492.069,225.67-489.444,219.059Z" transform="translate(497.769 -208.235)" fill="#c8856a"/>
                  <path id="Tracé_18958" data-name="Tracé 18958" d="M-477.63,245.465l-.6,2.29c-3.792,1.235-9.52,5.228-10.319,7.388C-488.028,251.758-484.316,247.7-477.63,245.465Z" transform="translate(497.75 -208.394)" fill="#9a4a4d"/>
                  <path id="Tracé_18959" data-name="Tracé 18959" d="M-442.168,233.032l-5.369-.129,5.229-.508A2.149,2.149,0,0,1-442.168,233.032Z" transform="translate(497.665 -208.338)" fill="#af6152"/>
                  <path id="Tracé_18960" data-name="Tracé 18960" d="M-438.879,236.272l-5.8-.368,5.738-.3A2.879,2.879,0,0,1-438.879,236.272Z" transform="translate(497.659 -208.352)" fill="#af6152"/>
                  <path id="Tracé_18961" data-name="Tracé 18961" d="M-439.472,238.9a1.852,1.852,0,0,1-.728.717,4.081,4.081,0,0,1-1,.4l.07-.06c-.13.309-.279.607-.429.916l-.13-.149a1.184,1.184,0,0,1,.938.169,1.6,1.6,0,0,1,.549.717,1.99,1.99,0,0,0-.629-.587,1.149,1.149,0,0,0-.788-.09l-.22.06.09-.209c.14-.309.279-.617.429-.916v-.05h0a6.124,6.124,0,0,0,.938-.329A2.11,2.11,0,0,0-439.472,238.9Z" transform="translate(497.654 -208.366)" fill="#af6152"/>
                  <path id="Tracé_18962" data-name="Tracé 18962" d="M-440.935,239.7a16.739,16.739,0,0,1-2.076.279,2.142,2.142,0,0,1-.639,1.145,11.454,11.454,0,0,1-1.068,1l1.587-.189a2.526,2.526,0,0,1,1.756-1.1Z" transform="translate(497.659 -208.369)" fill="#af6152"/>
                </g>
                <path id="Tracé_18963" data-name="Tracé 18963" d="M-476.831,207.335c2.146,1.235,6.307,8.5,3.762,20.622a191.861,191.861,0,0,1-4.99,19.427l7.205-2.1s-.319,5.088,1.2,8.334,3.343,3.077,3.343,3.077-2.774,2.151-8.163,5.666-12.893,7.966-18.112,6.821-5.778-5.4-5.568-11.2,4.531-24.784,5.918-30.808S-489.944,210.551-476.831,207.335Z" transform="translate(498.193 -207.335)" fill="#55aaa0"/>
                <path id="Tracé_18964" data-name="Tracé 18964" d="M-478.04,247.544c-3.652,1-9.979,5.974-10.877,7.966,1.048-4.461,5.419-9.151,11.676-10.585Z" transform="translate(498.174 -207.495)" opacity="0.2" style="mix-blend-mode: normal;isolation: isolate"/>
              </g>
            </g>
          </g>
        </g>
        <g id="freepik--speech-bubble-1--inject-39" transform="translate(101.13 2.299)">
          <g id="freepik--speech-bubble--inject-39">
            <g id="freepik--speech-bubble--inject-39-2" data-name="freepik--speech-bubble--inject-39">
              <path id="Tracé_18965" data-name="Tracé 18965" d="M-374.649,145.374l-28.94,16.7c-.569.329-1,1.125-1,2.669v34.383a2.219,2.219,0,0,0,1,1.782l4.111,2.33a2.308,2.308,0,0,0,2.076,0l28.94-16.7a2.267,2.267,0,0,0,1-1.782V149.466a2.22,2.22,0,0,0-1-1.772l-4.1-2.33A2.311,2.311,0,0,0-374.649,145.374Z" transform="translate(413.634 -145.12)" fill="#197061"/>
              <path id="Tracé_18966" data-name="Tracé 18966" d="M-397.392,203.3a2.407,2.407,0,0,1-2.076,0l-4.1-2.34a2.179,2.179,0,0,1-1-1.782V164.817a3.783,3.783,0,0,1,.369-1.922l6.127,3.525a1.872,1.872,0,0,0-.309,1v35.319C-398.43,203.322-398,203.66-397.392,203.3Z" transform="translate(413.634 -145.196)" opacity="0.15" style="mix-blend-mode: normal;isolation: isolate"/>
              <path id="Tracé_18967" data-name="Tracé 18967" d="M-407.46,190.152c-.649-.388-5.6-3.166-5.758-3.266a.994.994,0,0,1-.26-1.384c.019-.027.04-.054.061-.08l8.782-10.057,6.187,3.545-9.191,9.788a1,1,0,0,0,.115,1.4Z" transform="translate(413.653 -145.249)" fill="#197061"/>
              <path id="Tracé_18968" data-name="Tracé 18968" d="M-368.469,148.9l-28.94,16.7a2.279,2.279,0,0,0-1,1.782v11.391l-9.191,9.788a.924.924,0,0,0-.009,1.309.928.928,0,0,0,.6.274l8.6-.627h0v13.154c0,.657.469.916,1,.587l28.94-16.7a2.267,2.267,0,0,0,1-1.782v-35.3C-367.441,148.825-367.9,148.556-368.469,148.9Z" transform="translate(413.641 -145.136)" fill="#ba68c8"/>
              <path id="Tracé_18969" data-name="Tracé 18969" d="M-368.469,148.9l-28.94,16.7a2.279,2.279,0,0,0-1,1.782v11.391l-9.191,9.788a.924.924,0,0,0-.009,1.309.928.928,0,0,0,.6.274l8.6-.627h0v13.154c0,.657.469.916,1,.587l28.94-16.7a2.267,2.267,0,0,0,1-1.782v-35.3C-367.441,148.825-367.9,148.556-368.469,148.9Z" transform="translate(413.641 -145.136)" fill="#55aaa0"/>
            </g>
          </g>
        </g>
        <g id="Groupe_935" data-name="Groupe 935" transform="translate(129.175 21.292)">
          <g id="Groupe_934" data-name="Groupe 934">
            <path id="Tracé_18970" data-name="Tracé 18970" d="M-385,178.024l-.422-6.8q-.127-1.989-.127-2.887a4.136,4.136,0,0,1,.638-2.24,4.364,4.364,0,0,1,1.69-1.567q1.268-.663,1.67-.011a4.467,4.467,0,0,1,.343,2.3q-.031.972-.163,2.028l-.805,7.592a8.972,8.972,0,0,1-.449,2.217,2.336,2.336,0,0,1-1.012,1.273q-.708.412-.977-.1A5.175,5.175,0,0,1-385,178.024Zm1.328,8.838a1.42,1.42,0,0,1-1.313.227q-.563-.234-.564-1.28a3.779,3.779,0,0,1,.555-1.883,3.885,3.885,0,0,1,1.368-1.45,1.339,1.339,0,0,1,1.36-.178,1.211,1.211,0,0,1,.518,1.216,3.913,3.913,0,0,1-.612,1.963A4.092,4.092,0,0,1-383.672,186.862Z" transform="translate(385.549 -164.194)" fill="#fafafa"/>
          </g>
        </g>
      </g>
    </g>
  </g>
</svg>
