<svg xmlns="http://www.w3.org/2000/svg" xmlns:xlink="http://www.w3.org/1999/xlink" width="173.86" height="159.4" viewBox="0 0 173.86 159.4">
  <defs>
    <clipPath id="clip-path">
      <path id="Tracé_20342" data-name="Tracé 20342" d="M-149.3,58.955c-2.1,3.327-16.112,8.768-18.767,11.649A64.759,64.759,0,0,1-215.82,91.526,64.793,64.793,0,0,1-280.686,26.8h0a64.762,64.762,0,0,1,43.674-61.188c6.64-2.289,10.584-12.355,18-12.355,3.309,0,25.83-6.6,47.437.211,25.659,8.087,42.231,22.4,46.306,35.841C-121.449,16.817-136.505,51.888-149.3,58.955Z" fill="none"/>
    </clipPath>
  </defs>
  <g id="Infos" transform="translate(298.525 49.611)">
    <ellipse id="Ellipse_240" data-name="Ellipse 240" cx="64.866" cy="64.723" rx="64.866" ry="64.723" transform="translate(-280.686 -37.92)" fill="#afded6"/>
    <ellipse id="Ellipse_241" data-name="Ellipse 241" cx="40.734" cy="40.644" rx="40.734" ry="40.644" transform="translate(-268.525 -1.499)" fill="#263238" opacity="0.5" style="mix-blend-mode: normal;isolation: isolate"/>
    <g id="Groupe_1668" data-name="Groupe 1668">
      <g id="Groupe_1667" data-name="Groupe 1667">
        <g id="Groupe_1666" data-name="Groupe 1666" clip-path="url(#clip-path)">
          <g id="Groupe_1665" data-name="Groupe 1665">
            <path id="Tracé_20340" data-name="Tracé 20340" d="M-203.223-43.556h7.042a6.651,6.651,0,0,0,.9.192,53.1,53.1,0,0,1,18.067,4.212,58.913,58.913,0,0,1,37.492,53.078A55.085,55.085,0,0,1-147.993,47.1a58.94,58.94,0,0,1-49.069,29.461,55.425,55.425,0,0,1-28.11-5.611A59.217,59.217,0,0,1-258.857,27c-.449-2.287-.642-4.629-.95-6.942V13.016a8.052,8.052,0,0,0,.2-1.01,55.465,55.465,0,0,1,5.495-20.952,59.309,59.309,0,0,1,43.94-33.664C-207.884-43.056-205.543-43.244-203.223-43.556Zm-34.466,89.37,67.249-67.249A47.944,47.944,0,0,0-237.7-12.828a47.947,47.947,0,0,0-.009,58.639ZM-229,54.5a47.888,47.888,0,0,0,67.2-8.427,47.888,47.888,0,0,0,0-58.773Z" fill="#197061"/>
            <path id="Tracé_20341" data-name="Tracé 20341" d="M-211.993-39.869h7.041a6.519,6.519,0,0,0,.906.193,53.08,53.08,0,0,1,18.066,4.212,58.912,58.912,0,0,1,37.492,53.077,55.086,55.086,0,0,1-8.276,33.176,58.939,58.939,0,0,1-49.068,29.46,55.41,55.41,0,0,1-28.11-5.61A59.221,59.221,0,0,1-267.628,30.69c-.449-2.286-.641-4.629-.95-6.941V16.7a8.073,8.073,0,0,0,.2-1.009,55.488,55.488,0,0,1,5.495-20.953,59.312,59.312,0,0,1,43.94-33.664C-216.655-39.368-214.314-39.556-211.993-39.869ZM-246.459,49.5l67.249-67.25A47.946,47.946,0,0,0-246.467-9.14a47.944,47.944,0,0,0-.008,58.638Zm8.692,8.685a47.89,47.89,0,0,0,67.2-8.427,47.89,47.89,0,0,0,0-58.774Z" fill="#4b9c8e"/>
          </g>
        </g>
      </g>
    </g>
  </g>
</svg>
