<svg xmlns="http://www.w3.org/2000/svg" width="20" height="18" viewBox="0 0 20 18">
  <path id="live_border" d="M84.931,140.753H72.194a3.6,3.6,0,0,0-3.631,3.548v10.9a3.6,3.6,0,0,0,3.631,3.548H84.931a3.6,3.6,0,0,0,3.632-3.547V144.3A3.6,3.6,0,0,0,84.931,140.753ZM75.065,151.9a.49.49,0,0,1-.334.1H72.573a.468.468,0,0,1-.547-.548v-3.4a.59.59,0,0,1,.122-.406.408.408,0,0,1,.32-.136.427.427,0,0,1,.327.134.583.583,0,0,1,.125.408v3.21h1.811a.48.48,0,0,1,.333.1.345.345,0,0,1,.115.265A.338.338,0,0,1,75.065,151.9Zm1.631-.407a.585.585,0,0,1-.125.409.421.421,0,0,1-.326.136.412.412,0,0,1-.318-.137.589.589,0,0,1-.125-.408v-3.475a.582.582,0,0,1,.124-.406.409.409,0,0,1,.319-.136.426.426,0,0,1,.326.134.584.584,0,0,1,.125.408Zm4.549-3.474a1.25,1.25,0,0,1-.045.151c-.018.05-.036.1-.054.152L80.077,151.2c-.038.11-.076.215-.114.314a1.334,1.334,0,0,1-.132.262.6.6,0,0,1-.2.185.616.616,0,0,1-.306.072.623.623,0,0,1-.3-.07.6.6,0,0,1-.2-.187,1.357,1.357,0,0,1-.134-.264q-.057-.147-.114-.312l-1.05-2.859c-.018-.052-.036-.1-.056-.154a1.146,1.146,0,0,1-.048-.162.687.687,0,0,1-.019-.147.392.392,0,0,1,.123-.28.412.412,0,0,1,.31-.127.362.362,0,0,1,.323.14,1.87,1.87,0,0,1,.194.447l1,2.958,1-2.979c.053-.156.092-.265.117-.326a.431.431,0,0,1,.13-.165.374.374,0,0,1,.247-.075.417.417,0,0,1,.212.058.426.426,0,0,1,.153.151.379.379,0,0,1,.056.192A.614.614,0,0,1,81.245,148.015Zm3.982,3.846a.456.456,0,0,1-.317.1H82.482a.574.574,0,0,1-.42-.129.584.584,0,0,1-.128-.419V148.1a.744.744,0,0,1,.057-.314.355.355,0,0,1,.18-.178.753.753,0,0,1,.311-.055h2.359a.464.464,0,0,1,.317.094.352.352,0,0,1,0,.5.458.458,0,0,1-.317.1H82.828v1.083h1.853a.433.433,0,0,1,.305.092.308.308,0,0,1,.1.242.323.323,0,0,1-.1.245.428.428,0,0,1-.307.1H82.828v1.255H84.91a.456.456,0,0,1,.317.1.34.34,0,0,1,.107.261A.329.329,0,0,1,85.227,151.861Z" transform="translate(-68.563 -140.753)" fill="#2f8577"/>
</svg>
