<svg xmlns="http://www.w3.org/2000/svg" width="52.659" height="55.553" viewBox="0 0 52.659 55.553">
  <path id="Logo-Entreprise" d="M-1573.066,802.262a27.4,27.4,0,0,1,7.682-19.705,24.886,24.886,0,0,1,18.666-8.016,24.845,24.845,0,0,1,18.629,8.016,27.4,27.4,0,0,1,7.682,19.705,27.529,27.529,0,0,1-7.7,19.779,24.8,24.8,0,0,1-18.61,8.053,24.831,24.831,0,0,1-18.666-8.053A27.568,27.568,0,0,1-1573.066,802.262Zm4.528,0a23.034,23.034,0,0,0,6.364,16.495,20.524,20.524,0,0,0,15.456,6.7,20.484,20.484,0,0,0,15.419-6.7,23.035,23.035,0,0,0,6.364-16.495,22.861,22.861,0,0,0-6.364-16.421,20.542,20.542,0,0,0-15.419-6.661,20.566,20.566,0,0,0-15.475,6.661A22.9,22.9,0,0,0-1568.538,802.262Zm33.435,4.935.075.223q.147,5.6-3.118,8.517t-9.091,2.913a12.019,12.019,0,0,1-9.445-3.934q-3.507-3.933-3.507-10.427v-4.417q0-6.418,3.507-10.39a11.967,11.967,0,0,1,9.445-3.971q5.825,0,9.11,2.95t3.136,8.48l-.075.223h-5.492q0-3.489-1.67-5.066a7.055,7.055,0,0,0-5.009-1.577,6.244,6.244,0,0,0-5.363,2.56,11.179,11.179,0,0,0-1.874,6.754v4.454a11.224,11.224,0,0,0,1.874,6.809,6.26,6.26,0,0,0,5.363,2.542,7.093,7.093,0,0,0,4.991-1.54q1.65-1.539,1.651-5.1Z" transform="translate(1573.066 -774.541)" fill="#282828"/>
</svg>
