<svg xmlns="http://www.w3.org/2000/svg" width="20" height="20" viewBox="0 0 20 20">
  <g id="modifier" transform="translate(-139.193 -0.5)">
    <path id="Tracé_19460" data-name="Tracé 19460" d="M148.341,20.494c-1.718,0-3.437.013-5.155,0a3.857,3.857,0,0,1-3.643-2.3,3.652,3.652,0,0,1-.349-1.645V6.3a3.88,3.88,0,0,1,3.074-3.849,4.512,4.512,0,0,1,.956-.093q3.675-.009,7.351,0a.861.861,0,0,1,.214,1.709l-.061.005c-.082.007-.163,0-.246,0h-7.33A2.16,2.16,0,0,0,140.97,5.8a2.8,2.8,0,0,0-.052.6V16.464a2.179,2.179,0,0,0,1.733,2.264,2.74,2.74,0,0,0,.6.052h10.175a2.208,2.208,0,0,0,2.344-2.064h0a2.119,2.119,0,0,0,0-.276v-7.1a.848.848,0,0,1,.786-.9.869.869,0,0,1,.125,0,.837.837,0,0,1,.8.714,2.306,2.306,0,0,1,.02.31v6.985a3.942,3.942,0,0,1-3.835,4.047h-.176Q150.919,20.491,148.341,20.494Z" fill="#55aaa0"/>
    <path id="Tracé_19461" data-name="Tracé 19461" d="M159.187,3.266a2.512,2.512,0,0,1-.726,1.514l-6.969,7.591c-.594.648-1.183,1.3-1.788,1.938a1.825,1.825,0,0,1-.554.4q-1.426.645-2.87,1.254a1.181,1.181,0,0,1-1.689-1.084,1.565,1.565,0,0,1,.087-.479c.324-.98.649-1.961.99-2.936a1.49,1.49,0,0,1,.3-.509q4.4-4.814,8.823-9.618a2.5,2.5,0,0,1,2.8-.657A2.621,2.621,0,0,1,159.187,3.266Zm-9.531,8.55c.049-.049.093-.089.133-.133l6.264-6.839c.4-.434.8-.865,1.19-1.3a.775.775,0,0,0,.11-.912.743.743,0,0,0-.853-.381,1.117,1.117,0,0,0-.475.3q-3.2,3.45-6.372,6.923l-1.169,1.275ZM148.518,13.1,147.3,12.007l-.637,1.907Z" fill="#55aaa0"/>
  </g>
</svg>
