<svg xmlns="http://www.w3.org/2000/svg" width="20" height="12" viewBox="0 0 20 12">
  <g id="details" transform="translate(-139.193 -73.908)">
    <path id="Tracé_19422" data-name="Tracé 19422" d="M149.183,75.438a9.964,9.964,0,0,1,8.3,4.475,10.032,10.032,0,0,1-3.3,3.12,9.926,9.926,0,0,1-13.272-3.124,10.022,10.022,0,0,1,3.3-3.12,9.886,9.886,0,0,1,4.974-1.352m0-1.529a11.342,11.342,0,0,0-5.731,1.556,11.548,11.548,0,0,0-4.206,4.25.391.391,0,0,0,0,.389,11.461,11.461,0,0,0,9.958,5.806,11.345,11.345,0,0,0,5.732-1.556,11.548,11.548,0,0,0,4.206-4.25.391.391,0,0,0,0-.389A11.461,11.461,0,0,0,149.182,73.908Z" fill="#197061"/>
    <path id="Tracé_19423" data-name="Tracé 19423" d="M149.2,75.238a4.664,4.664,0,1,0,4.615,4.663A4.639,4.639,0,0,0,149.2,75.238Zm1.66,3.683a1.928,1.928,0,0,0-1.661-.963h-.042a.389.389,0,0,1,.042-.777,2.691,2.691,0,0,1,2.325,1.349h0l.016.028a.389.389,0,0,1-.158.524h0a.383.383,0,0,1-.52-.162h0Zm1.031,1.016a.385.385,0,1,1-.769-.042h0a.385.385,0,0,1,.384-.386h0a.386.386,0,0,1,.384.388h0Z" transform="translate(0 0.014)" fill="#197061"/>
  </g>
</svg>
