<svg xmlns="http://www.w3.org/2000/svg" xmlns:xlink="http://www.w3.org/1999/xlink" width="162.665" height="157.13" viewBox="0 0 162.665 157.13">
  <defs>
    <clipPath id="clip-path">
      <path id="Tracé_19068" data-name="Tracé 19068" d="M4794.78-322.255c-.867,35.526-9.842,42.755-14.072,44.264-7.817,6.252-31.1-9.3-31.1-9.3A64.727,64.727,0,0,1,4709-273.045a65,65,0,0,1-65-65,65.023,65.023,0,0,1,51.175-63.526c4.455-.966,9.63-16.308,14.375-16.308,10,0,54.892,5.2,63.358,9.235,10.365,4.944-16.744,24.45-10.295,33.837,5.173,7.529,13.994,3.434,20.3,4.257C4789.6-370.552,4795.158-345.841,4794.78-322.255Z" fill="none"/>
    </clipPath>
  </defs>
  <g id="Pilote-Drone" transform="translate(526.862 -141.977)">
    <ellipse id="Ellipse_204" data-name="Ellipse 204" cx="64.866" cy="64.723" rx="64.866" ry="64.723" transform="translate(-514.992 157.365)" fill="#afded6"/>
    <ellipse id="Ellipse_205" data-name="Ellipse 205" cx="40.734" cy="40.644" rx="40.734" ry="40.644" transform="translate(-502.831 193.786)" fill="#263238" opacity="0.5"/>
    <g id="Groupe_947" data-name="Groupe 947" transform="translate(-5158.995 559.855)">
      <g id="Groupe_946" data-name="Groupe 946" clip-path="url(#clip-path)">
        <path id="Tracé_35" data-name="Tracé 35" d="M230.432,195.61c5.135,1.657,18.6,22.745,18.6,22.745l-9.31,13.253s-12.739-10.122-14.5-13.965C220.409,207.157,230.432,195.61,230.432,195.61Z" transform="matrix(0.998, 0.07, -0.07, 0.998, 4529.675, -542.199)" fill="#55aaa0"/>
        <path id="Tracé_36" data-name="Tracé 36" d="M249.022,218.382l-9.294,13.253s-1.657-1.292-3.761-3.1c-3.91-3.313-9.608-8.382-10.751-10.867a17.558,17.558,0,0,1,.4-14.065,32.239,32.239,0,0,1,4.8-8.035C235.554,197.359,249.022,218.382,249.022,218.382Z" transform="matrix(0.998, 0.07, -0.07, 0.998, 4529.69, -542.225)" fill="#fff" opacity="0.6" style="mix-blend-mode: normal;isolation: isolate"/>
        <path id="Tracé_37" data-name="Tracé 37" d="M235.958,225.392c-3.91-3.313-9.608-8.382-10.751-10.867a17.565,17.565,0,0,1,.4-14.065A106.734,106.734,0,0,1,235.958,225.392Z" transform="matrix(0.998, 0.07, -0.07, 0.998, 4529.46, -539.022)" opacity="0.2" style="mix-blend-mode: normal;isolation: isolate"/>
        <path id="Tracé_38" data-name="Tracé 38" d="M204.65,412.69H190.072a1.043,1.043,0,0,0-1.027.828L186.676,424.2a1.775,1.775,0,0,0,1.358,2.1,1.593,1.593,0,0,0,.4,0c4.721,0,8.151-.365,14.081-.365,3.645,0,14.661.381,19.7.381s5.7-4.97,3.645-5.434c-9.26-2.021-16.218-4.8-19.184-7.471A2.929,2.929,0,0,0,204.65,412.69Z" transform="matrix(0.998, 0.07, -0.07, 0.998, 4495.312, -401.718)" fill="#263238"/>
        <path id="Tracé_39" data-name="Tracé 39" d="M241.991,412.461H227.4a1.044,1.044,0,0,0-1.011.828l-2.369,10.685a1.757,1.757,0,0,0,1.33,2.1l.028.007h.4c4.721,0,8.151-.364,14.081-.364,3.645,0,14.661.381,19.7.381s5.7-4.97,3.628-5.434c-9.244-2.021-16.218-4.821-19.184-7.471A2.884,2.884,0,0,0,241.991,412.461Z" transform="matrix(0.998, 0.07, -0.07, 0.998, 4519.779, -400.158)" fill="#263238"/>
        <path id="Tracé_40" data-name="Tracé 40" d="M204.65,412.69H190.072a1.043,1.043,0,0,0-1.027.828L186.676,424.2a1.775,1.775,0,0,0,1.358,2.1,1.593,1.593,0,0,0,.4,0c4.721,0,8.151-.365,14.081-.365,3.645,0,14.661.381,19.7.381s5.7-4.97,3.645-5.434c-9.26-2.021-16.218-4.8-19.184-7.471A2.929,2.929,0,0,0,204.65,412.69Z" transform="matrix(0.998, 0.07, -0.07, 0.998, 4495.312, -401.718)" fill="#fff" opacity="0.3" style="mix-blend-mode: normal;isolation: isolate"/>
        <path id="Tracé_41" data-name="Tracé 41" d="M241.991,412.461H227.4a1.044,1.044,0,0,0-1.011.828l-2.369,10.685a1.757,1.757,0,0,0,1.33,2.1l.028.007h.4c4.721,0,8.151-.364,14.081-.364,3.645,0,14.661.381,19.7.381s5.7-4.97,3.628-5.434c-9.244-2.021-16.218-4.821-19.184-7.471A2.884,2.884,0,0,0,241.991,412.461Z" transform="matrix(0.998, 0.07, -0.07, 0.998, 4519.779, -400.158)" fill="#fff" opacity="0.3" style="mix-blend-mode: normal;isolation: isolate"/>
        <path id="Tracé_42" data-name="Tracé 42" d="M196.767,249.49H260.5c6.047,33.132,25.015,167.433,11.414,271.684H250.358s1.988-158.438-17.063-209.627c-2.187,27.4-24.452,209.511-24.452,209.511H186.86s3.313-68.5,6.626-133.224C195.508,347.164,196.684,257.856,196.767,249.49Z" transform="matrix(0.998, 0.07, -0.07, 0.998, 4502.934, -508.605)" fill="#263238"/>
        <path id="Tracé_43" data-name="Tracé 43" d="M214.89,296a172.144,172.144,0,0,1,7.123,27.549c1.789-24.385-5.334-50.245-5.334-50.245Z" transform="matrix(0.998, 0.07, -0.07, 0.998, 4520.203, -491.726)" opacity="0.2" style="mix-blend-mode: normal;isolation: isolate"/>
        <path id="Tracé_44" data-name="Tracé 44" d="M257.054,249.95H192.91v7.637l64.956-.8Z" transform="matrix(0.998, 0.07, -0.07, 0.998, 4506.876, -508.026)"/>
        <rect id="Rectangle_684" data-name="Rectangle 684" width="2.286" height="13.551" transform="matrix(0.998, 0.07, -0.07, 0.998, 4702.678, -247.212)" fill="#263238"/>
        <rect id="Rectangle_685" data-name="Rectangle 685" width="2.286" height="13.551" transform="matrix(0.998, 0.07, -0.07, 0.998, 4735.052, -244.948)" fill="#263238"/>
        <rect id="Rectangle_686" data-name="Rectangle 686" width="11.861" height="8.548" transform="matrix(0.998, 0.07, -0.07, 0.998, 4716.792, -244.116)" fill="#fff"/>
        <path id="Tracé_45" data-name="Tracé 45" d="M232.08,219.181s9.94,12.309,19.134,10.652,11.6-21.536,11.6-21.536l-5.9-2.717s-4.042,11.6-7.753,12.458-9.128-5.632-9.128-5.632Z" transform="matrix(0.998, 0.07, -0.07, 0.998, 4534.564, -535.295)" fill="#bc6e39"/>
        <path id="Tracé_46" data-name="Tracé 46" d="M249.538,213.265c.116-.514,2.154-10.138,3.313-10.155s5.98,3.562,5.848,4.97-2.137,11.6-3.661,11.762-4.821.878-4.821.878A18.246,18.246,0,0,1,249.538,213.265Z" transform="matrix(0.998, 0.07, -0.07, 0.998, 4546.032, -536.119)" fill="#bc6e39"/>
        <path id="Tracé_47" data-name="Tracé 47" d="M259.822,287.188H195.214c.116-21.387-1.557-62.007-8.134-90.02a138.664,138.664,0,0,1,19.366-2.9,250.425,250.425,0,0,1,28.643-.8,126.585,126.585,0,0,1,19.465,2.965,100.506,100.506,0,0,1,2.816,12.872c.762,4.523,1.541,10.254,2.17,17.278A399.779,399.779,0,0,1,259.822,287.188Z" transform="matrix(0.998, 0.07, -0.07, 0.998, 4505.648, -545.357)" fill="#55aaa0"/>
        <g id="Groupe_1" data-name="Groupe 1" transform="matrix(0.998, 0.07, -0.07, 0.998, 4678.784, -339.414)" opacity="0.7">
          <path id="Tracé_48" data-name="Tracé 48" d="M259.822,287.188H195.214c.116-21.387-1.557-62.007-8.134-90.02a138.664,138.664,0,0,1,19.366-2.9,250.425,250.425,0,0,1,28.643-.8,126.585,126.585,0,0,1,19.465,2.965,100.506,100.506,0,0,1,2.816,12.872c.762,4.523,1.541,10.254,2.17,17.278A399.779,399.779,0,0,1,259.822,287.188Z" transform="translate(-187.08 -193.364)" fill="#fff"/>
        </g>
        <path id="Tracé_49" data-name="Tracé 49" d="M205.935,176.14c1.657,10.089,3.313,28.162-3.065,32.668,0,0,9.791,9.509,18.223,8.432,5.417-.679,5.434-8.5,5.434-8.5-5.765.083-5.632-5.119-3.843-12.044Z" transform="matrix(0.998, 0.07, -0.07, 0.998, 4516.78, -555.917)" fill="#bc6e39"/>
        <path id="Tracé_50" data-name="Tracé 50" d="M210.478,181.2l9.94,12.176a30.647,30.647,0,0,0-.895,4.97c-4.97,1.657-12.756-7.355-13.12-11.745C206.2,184.861,210.1,182.79,210.478,181.2Z" transform="matrix(0.998, 0.07, -0.07, 0.998, 4518.857, -552.441)" opacity="0.2" style="mix-blend-mode: normal;isolation: isolate"/>
        <path id="Tracé_51" data-name="Tracé 51" d="M199.259,182.944c4.307.447,28.079-6.411,32.784-12.209s-20.542-11.6-28.013-6.444S194.521,182.447,199.259,182.944Z" transform="matrix(0.998, 0.07, -0.07, 0.998, 4513.382, -565.267)" fill="#55aaa0"/>
        <path id="Tracé_52" data-name="Tracé 52" d="M199.259,182.944c4.307.447,28.079-6.411,32.784-12.209s-20.542-11.6-28.013-6.444S194.521,182.447,199.259,182.944Z" transform="matrix(0.998, 0.07, -0.07, 0.998, 4513.382, -565.267)" opacity="0.4" style="mix-blend-mode: normal;isolation: isolate"/>
        <path id="Tracé_53" data-name="Tracé 53" d="M214.986,166.4c-4.373,4.373-.977,9.708,12.126,16.566,3.462-6.875,2-18.637-2.22-20.857S218.8,162.6,214.986,166.4Z" transform="matrix(0.998, 0.07, -0.07, 0.998, 4524.212, -565.16)" fill="#263238"/>
        <path id="Tracé_54" data-name="Tracé 54" d="M202.511,180.951c2.916,12.176,3.992,19.432,11.3,24.683,11,7.869,25.2-.414,26.009-13.253.7-11.48-4.158-29.471-17.047-32.271a17.082,17.082,0,0,0-20.26,20.807Z" transform="matrix(0.998, 0.07, -0.07, 0.998, 4516.966, -566.722)" fill="#bc6e39"/>
        <path id="Tracé_55" data-name="Tracé 55" d="M213.767,173.434c.182.994.845,1.657,1.508,1.657s1.027-1.011.861-2a1.787,1.787,0,0,0-1.491-1.657C214,171.43,213.667,172.374,213.767,173.434Z" transform="matrix(0.998, 0.07, -0.07, 0.998, 4524.122, -558.504)" fill="#263238"/>
        <path id="Tracé_56" data-name="Tracé 56" d="M220.645,172.258a1.816,1.816,0,0,0,1.508,1.657c.646,0,1.044-1.011.878-2.038a1.753,1.753,0,0,0-1.508-1.657C220.861,170.22,220.48,171.247,220.645,172.258Z" transform="matrix(0.998, 0.07, -0.07, 0.998, 4528.669, -558.982)" fill="#263238"/>
        <path id="Tracé_57" data-name="Tracé 57" d="M218.44,172.12a35.841,35.841,0,0,0,6.279,7.736,5.863,5.863,0,0,1-4.638,1.657Z" transform="matrix(0.998, 0.07, -0.07, 0.998, 4527.163, -557.837)" fill="#263238" opacity="0.3"/>
        <path id="Tracé_58" data-name="Tracé 58" d="M211.8,172.436a.652.652,0,0,1-.4,0,.6.6,0,0,1-.272-.8l.007-.013a5.9,5.9,0,0,1,4.373-3.313.6.6,0,0,1,.646.5h0a.63.63,0,0,1-.53.663h0a4.711,4.711,0,0,0-3.413,2.6A.679.679,0,0,1,211.8,172.436Z" transform="matrix(0.998, 0.07, -0.07, 0.998, 4522.509, -560.671)" fill="#263238"/>
        <path id="Tracé_59" data-name="Tracé 59" d="M225.343,169.989a.633.633,0,0,1-.6-.248,4.732,4.732,0,0,0-3.777-2.087.6.6,0,0,1-.63-.562v0a.614.614,0,0,1,.563-.63,5.945,5.945,0,0,1,4.8,2.584.6.6,0,0,1-.133.828h0A.979.979,0,0,1,225.343,169.989Z" transform="matrix(0.998, 0.07, -0.07, 0.998, 4528.666, -561.457)" fill="#263238"/>
        <path id="Tracé_60" data-name="Tracé 60" d="M208.489,165.744c6.1.977,6.461,7.306-.132,20.525-6.842-3.529-12.557-13.932-10.4-18.223S203.155,164.916,208.489,165.744Z" transform="matrix(0.998, 0.07, -0.07, 0.998, 4513.77, -563.492)" fill="#263238"/>
        <path id="Tracé_61" data-name="Tracé 61" d="M200.061,182.24a11.876,11.876,0,0,0,6.792,6.03c3.959,1.342,6.146-2.154,5.235-5.98-.828-3.462-3.877-8.283-7.919-7.985S198.388,178.778,200.061,182.24Z" transform="matrix(0.998, 0.07, -0.07, 0.998, 4514.61, -557.285)" fill="#bc6e39"/>
        <path id="Tracé_62" data-name="Tracé 62" d="M222.244,180.1a31.538,31.538,0,0,0-.6,4.456l-.8.083c-3.578.315-5.334-.712-6.212-1.955a4.568,4.568,0,0,1-.762-2.054,4.453,4.453,0,0,1,0-1.259,16.56,16.56,0,0,0,7.14.812C221.763,180.149,222.244,180.1,222.244,180.1Z" transform="matrix(0.998, 0.07, -0.07, 0.998, 4523.813, -553.299)" fill="#263238"/>
        <path id="Tracé_63" data-name="Tracé 63" d="M221.038,180.182l-.215,1.309c-3.313.315-5.765,0-6.925-.861a4.449,4.449,0,0,1,0-1.259A16.56,16.56,0,0,0,221.038,180.182Z" transform="matrix(0.998, 0.07, -0.07, 0.998, 4523.826, -553.298)" fill="#fff"/>
        <path id="Tracé_64" data-name="Tracé 64" d="M220.532,183.336c-3.578.315-5.334-.712-6.212-1.955a11.563,11.563,0,0,1,4.042.431A4.2,4.2,0,0,1,220.532,183.336Z" transform="matrix(0.998, 0.07, -0.07, 0.998, 4524.041, -551.978)" fill="#a24e3f"/>
        <path id="Tracé_65" data-name="Tracé 65" d="M202.08,166.42s8.134,34.093,25.247,37.622l3.313-1.011s-9.095.166-15.44-9.94-10.669-27.152-10.669-27.152Z" transform="matrix(0.998, 0.07, -0.07, 0.998, 4516.729, -562.634)"/>
        <path id="Tracé_66" data-name="Tracé 66" d="M245.223,169.263c-8.482,10.5-30.83,2.833-38.715,8.78s-6.626,11.447-6.626,11.6c-5.517,1.657-2.518-7.355-2.518-7.355-5.831-17.759,4.97-27.98,21.536-29.935,15.539-1.822,19.879,13.8,19.879,13.8Z" transform="matrix(0.998, 0.07, -0.07, 0.998, 4513.224, -571.923)" fill="#55aaa0"/>
        <path id="Tracé_67" data-name="Tracé 67" d="M238.662,166.108c-3.5,6.2-25.313,4.589-33.463,7.339s-7.836,8.8-7.836,8.8c-5.831-17.759,4.97-27.98,21.536-29.935C234.4,150.486,238.662,166.108,238.662,166.108Z" transform="matrix(0.998, 0.07, -0.07, 0.998, 4513.225, -571.949)" opacity="0.2" style="mix-blend-mode: normal;isolation: isolate"/>
        <path id="Tracé_68" data-name="Tracé 68" d="M206.418,157.83c6.626-2.4,13.949,3.181,16.831,7.239s8.879,2.551,9-1.971-4.042-13.087-4.042-13.087-27.317-.5-30.912,14.81A16.717,16.717,0,0,1,206.418,157.83Z" transform="matrix(0.998, 0.07, -0.07, 0.998, 4514.321, -573.288)" fill="#55aaa0"/>
        <path id="Tracé_69" data-name="Tracé 69" d="M214.97,190.241a9.469,9.469,0,0,1,4.97-2.833,7.779,7.779,0,0,1,4.257,0,6.525,6.525,0,0,1-4.175,3.181A5.289,5.289,0,0,1,214.97,190.241Z" transform="matrix(0.998, 0.07, -0.07, 0.998, 4524.203, -548.177)" fill="#263238"/>
        <path id="Tracé_70" data-name="Tracé 70" d="M205.986,192.88l15.572,11.894,2.965-11.182,5.616,3.446-1.624,13.833-6.146-4.837L214.2,213.19,200.27,197.038Z" transform="matrix(0.998, 0.07, -0.07, 0.998, 4514.311, -545.071)" fill="#55aaa0"/>
        <path id="Tracé_71" data-name="Tracé 71" d="M205.986,192.88l15.572,11.894,2.965-11.182,5.616,3.446-1.624,13.833-6.146-4.837L214.2,213.19,200.27,197.038Z" transform="matrix(0.998, 0.07, -0.07, 0.998, 4514.311, -545.071)" fill="#fff" opacity="0.6" style="mix-blend-mode: normal;isolation: isolate"/>
        <path id="Tracé_72" data-name="Tracé 72" d="M259.512,246.437l-.133,6.958-.215,11.364-.3,8.283-.166,4.44-.2,5.616H240.527l-3.313-8.532-2.386,8.532L192.1,281.673l-.315-6.925v-1.657l-.4-9.31-.414-9.757-.4-9.028a154.182,154.182,0,0,0,1.905-49.7l12.739-1.507s18.107,18.024,27.45,30.034A136.494,136.494,0,0,0,239.3,193.79l9.492,1.093Z" transform="matrix(0.998, 0.07, -0.07, 0.998, 4507.921, -544.919)" fill="#337682"/>
        <path id="Tracé_73" data-name="Tracé 73" d="M221.44,230.16l-.994,19.068H191.572l-.4-9.31-.414-9.757Z" transform="matrix(0.998, 0.07, -0.07, 0.998, 4506.374, -521.088)" fill="#fff" opacity="0.3" style="mix-blend-mode: normal;isolation: isolate"/>
        <path id="Tracé_74" data-name="Tracé 74" d="M236.8,229.77l-.215,11.364-.3,8.333h-10.8l-.514-19.051Z" transform="matrix(0.998, 0.07, -0.07, 0.998, 4528.8, -519.776)" fill="#fff" opacity="0.3" style="mix-blend-mode: normal;isolation: isolate"/>
        <g id="JooLinternational" transform="matrix(0.998, 0.07, -0.07, 0.998, 4696.804, -315.407)">
          <path id="Tracé_84" data-name="Tracé 84" d="M367.327,16.321l2.94-4.634-.888,0-3.5,5.381h4.678l.069-.734Z" transform="translate(-350.689 -11.683)" fill="#fff"/>
          <path id="Tracé_85" data-name="Tracé 85" d="M33.4,16.946l.451-.459a1.425,1.425,0,0,0,1.15.6,1.029,1.029,0,0,0,.516-.137,1.481,1.481,0,0,0,.587-.993c.182-.785.489-2.007.855-3.568h.813l-1.051,4.12a1.629,1.629,0,0,1-1.671,1.294,1.883,1.883,0,0,1-1.649-.861" transform="translate(-33.405 -12.36)" fill="#fff"/>
          <path id="Tracé_86" data-name="Tracé 86" d="M132.61,36.779l-.151.309c-.483.986-1.741,2.182-2.578,2.188h-.018a3.812,3.812,0,0,1-2.639-1.449,3.8,3.8,0,0,1,2.632-1.491,1.487,1.487,0,0,1,.926.317l.269.213.427-.539-.269-.213a2.2,2.2,0,0,0-1.356-.466,4.354,4.354,0,0,0-3.07,1.634,4.368,4.368,0,0,0-3.071-1.585h-.024a2.157,2.157,0,0,0,.017,4.315h.017a4.353,4.353,0,0,0,3.071-1.634,4.368,4.368,0,0,0,3.071,1.585h.025a3.043,3.043,0,0,0,1.817-.845,5.657,5.657,0,0,0,1.372-1.728l.151-.309Zm-6.261,1.054a3.8,3.8,0,0,1-2.633,1.491H123.7a1.47,1.47,0,0,1-.01-2.94h.017a3.813,3.813,0,0,1,2.639,1.449" transform="translate(-117.519 -34.554)" fill="#fff"/>
          <path id="Tracé_87" data-name="Tracé 87" d="M343.474,55.634l-.375-1.016-1.02.376-.188-.51,1.164-.429a.416.416,0,0,1,.3.012.386.386,0,0,1,.2.219l.43,1.164-.506.187a0,0,0,0,1,0,0" transform="translate(-327.794 -52.097)" fill="#fff"/>
          <path id="Tracé_88" data-name="Tracé 88" d="M343.042,55.316l-.015-.006,0-.008-.369-1-1.02.376-.2-.54,1.179-.435a.433.433,0,0,1,.31.012.4.4,0,0,1,.211.228l.435,1.179Zm0-.033h0Zm-.364-1.024.376,1.019.479-.177-.424-1.149a.37.37,0,0,0-.194-.209.4.4,0,0,0-.285-.011l-1.149.424.177.479Z" transform="translate(-327.358 -51.76)" fill="#fff"/>
          <rect id="Rectangle_687" data-name="Rectangle 687" width="3.279" height="1.174" transform="translate(16.605 5.801)" fill="#fff"/>
          <g id="Groupe_2" data-name="Groupe 2" transform="translate(17.209 6.043)">
            <path id="Tracé_89" data-name="Tracé 89" d="M410.385,144.18a.178.178,0,0,1-.066.149.3.3,0,0,1-.187.052h-.1v.277h-.047v-.671h.164Q410.385,143.987,410.385,144.18Zm-.357.161h.092a.279.279,0,0,0,.164-.037.141.141,0,0,0,.051-.121.137.137,0,0,0-.048-.115.239.239,0,0,0-.148-.037h-.111Z" transform="translate(-409.981 -143.984)" fill="#1e1e1f"/>
            <path id="Tracé_90" data-name="Tracé 90" d="M422.018,144.658v-.671h.047v.627h.32v.044Z" transform="translate(-421.468 -143.984)" fill="#1e1e1f"/>
            <path id="Tracé_91" data-name="Tracé 91" d="M430.917,144.365h-.273l-.094.237H430.5l.27-.674h.03l.265.674h-.053Zm-.256-.042h.24l-.091-.242q-.011-.028-.028-.079a.768.768,0,0,1-.027.08Z" transform="translate(-429.561 -143.928)" fill="#1e1e1f"/>
            <path id="Tracé_92" data-name="Tracé 92" d="M445.416,144.658h-.047l-.4-.6h0q.005.106.005.161v.435h-.045v-.671h.047l.4.6h0q0-.083,0-.157v-.438h.045Z" transform="translate(-443.331 -143.984)" fill="#1e1e1f"/>
          </g>
        </g>
        <path id="Tracé_75" data-name="Tracé 75" d="M204.366,208.58s7.157,10.553,11.2,12.507,29.819-10.7,29.819-10.7l5.334,6.179s-27.8,18.422-36.445,16.45-19.333-14.91-19.333-14.91Z" transform="matrix(0.998, 0.07, -0.07, 0.998, 4510.1, -535.031)" fill="#bc6e39"/>
        <path id="Tracé_76" data-name="Tracé 76" d="M188.355,196.094c2.385-2.849,25.628,21.006,25.628,21.006l-14.5,15.788S177.223,209.463,188.355,196.094Z" transform="matrix(0.998, 0.07, -0.07, 0.998, 4504.328, -543.81)" fill="#55aaa0"/>
        <path id="Tracé_77" data-name="Tracé 77" d="M188.355,196.094c2.385-2.849,25.628,21.006,25.628,21.006l-14.5,15.788S177.223,209.463,188.355,196.094Z" transform="matrix(0.998, 0.07, -0.07, 0.998, 4504.328, -543.81)" fill="#fff" opacity="0.6" style="mix-blend-mode: normal;isolation: isolate"/>
        <path id="Tracé_78" data-name="Tracé 78" d="M244.967,210.466H242.15l4.688-35.816h1.392Z" transform="matrix(0.998, 0.07, -0.07, 0.998, 4542.577, -555.094)" fill="#263238"/>
        <path id="Tracé_79" data-name="Tracé 79" d="M248.523,199.983H240.24l.282-3.114a1.658,1.658,0,0,1,1.557-1.408h5.5a1.274,1.274,0,0,1,1.3,1.252.974.974,0,0,1-.007.156Z" transform="matrix(0.998, 0.07, -0.07, 0.998, 4540.372, -541.551)" fill="#263238"/>
        <path id="Tracé_80" data-name="Tracé 80" d="M257.37,224.607H232.239a2.618,2.618,0,0,1-2.647-2.588,2.928,2.928,0,0,1,.013-.295l1.822-19.879a4.209,4.209,0,0,1,3.181-3.512,66.869,66.869,0,0,1,25.147,0,3.311,3.311,0,0,1,2.551,3.512q-.927,9.94-1.822,19.879A3.312,3.312,0,0,1,257.37,224.607Z" transform="matrix(0.998, 0.07, -0.07, 0.998, 4533.321, -540.938)" fill="#263238"/>
        <path id="Tracé_81" data-name="Tracé 81" d="M260.831,224.607H235.75a2.6,2.6,0,0,1-2.649-2.551,2.767,2.767,0,0,1,.015-.331q.895-9.94,1.806-19.879a4.224,4.224,0,0,1,3.181-3.512,66.869,66.869,0,0,1,25.147,0,3.311,3.311,0,0,1,2.551,3.512q-.927,9.94-1.822,19.879A3.311,3.311,0,0,1,260.831,224.607Z" transform="matrix(0.998, 0.07, -0.07, 0.998, 4535.62, -540.777)" fill="#263238"/>
        <path id="Tracé_82" data-name="Tracé 82" d="M260.831,224.607H235.75a2.6,2.6,0,0,1-2.649-2.551,2.767,2.767,0,0,1,.015-.331q.895-9.94,1.806-19.879a4.224,4.224,0,0,1,3.181-3.512,66.869,66.869,0,0,1,25.147,0,3.311,3.311,0,0,1,2.551,3.512q-.927,9.94-1.822,19.879A3.311,3.311,0,0,1,260.831,224.607Z" transform="matrix(0.998, 0.07, -0.07, 0.998, 4535.62, -540.777)" fill="#fff" opacity="0.2" style="mix-blend-mode: normal;isolation: isolate"/>
        <path id="Tracé_83" data-name="Tracé 83" d="M242.762,208.253c-1.408-1.309-9.36-5.7-10.851-4.638s-6.345,10.867-8.018,12.027c-.2.133,3.976,6.2,3.976,6.2a21.85,21.85,0,0,0,4.738-.629C233.932,220.711,244.17,209.546,242.762,208.253Z" transform="matrix(0.998, 0.07, -0.07, 0.998, 4529.294, -537.065)" fill="#bc6e39"/>
      </g>
    </g>
  </g>
</svg>
