<svg xmlns="http://www.w3.org/2000/svg" width="20" height="20" viewBox="0 0 20 20">
  <g id="superficies_totale_border" transform="translate(68.847 -69.846)">
    <path id="Tracé_19426" data-name="Tracé 19426" d="M-49.459,89.846H-66.1A2.747,2.747,0,0,1-68.847,87.1V70.455a.611.611,0,0,1,.611-.609h0a.611.611,0,0,1,.611.609h0V87.1A1.524,1.524,0,0,0-66.1,88.626h16.643a.611.611,0,0,1,.611.609h0a.611.611,0,0,1-.611.611Z" fill="#55aaa0"/>
    <path id="Tracé_19427" data-name="Tracé 19427" d="M-53.044,72.975l-2.213-.549-.164-.047h-.021a3.544,3.544,0,0,0-.624-.1h-.227a3.523,3.523,0,0,0-.837.1l-.137.015a.574.574,0,0,0-.255.1l-2.576.685a1.956,1.956,0,0,1-1.212-.065l-.021-.008-2.095-.708a1.687,1.687,0,0,0-2.179.969,1.711,1.711,0,0,0-.112.6v6.773h0v2.948h0v.084a2.243,2.243,0,0,0,1.705,2.181l2.213.549.165.048h.02a3.453,3.453,0,0,0,.624.1h.228a3.472,3.472,0,0,0,.837-.1l.137-.016a.559.559,0,0,0,.256-.1l2.574-.683a1.952,1.952,0,0,1,1.213.064l.021.007,2.1.709a1.686,1.686,0,0,0,2.177-.969,1.711,1.711,0,0,0,.112-.6V75.154A2.247,2.247,0,0,0-53.044,72.975Zm-.175,12.34a.547.547,0,0,1-.2-.038l-.026-.009-2.025-.683a2.963,2.963,0,0,0-1.826-.1l-2.811.747-.04.011a2.321,2.321,0,0,1-1.093,0l-.076-.02-2.225-.641h-.019a1.081,1.081,0,0,1-.822-1.052V74.152a.542.542,0,0,1,.541-.543.547.547,0,0,1,.2.038l.026.009,2.025.684a2.97,2.97,0,0,0,1.826.1l2.811-.747.04-.011a2.321,2.321,0,0,1,1.093,0l.076.019,2.225.642h.02a1.084,1.084,0,0,1,.822,1.052v9.382A.543.543,0,0,1-53.219,85.315Z" fill="#55aaa0"/>
    <path id="Tracé_19428" data-name="Tracé 19428" d="M-56.311,77.409a.562.562,0,0,0,.56-.565.561.561,0,0,0-.563-.559h0a.562.562,0,0,0-.559.561.561.561,0,0,0,.559.563h.005Z" fill="#55aaa0"/>
    <path id="Tracé_19429" data-name="Tracé 19429" d="M-60.747,75.359a.562.562,0,0,0-.563.561.561.561,0,0,0,.559.563h0a.563.563,0,0,0,.564-.561h0a.563.563,0,0,0-.561-.563Z" fill="#55aaa0"/>
    <path id="Tracé_19430" data-name="Tracé 19430" d="M-56.311,75.386a.562.562,0,0,0,.56-.565.562.562,0,0,0-.565-.559h0a.562.562,0,0,0-.559.561.56.56,0,0,0,.557.563h.007Z" fill="#55aaa0"/>
    <path id="Tracé_19431" data-name="Tracé 19431" d="M-60.747,77.379a.561.561,0,0,0-.563.559v0a.562.562,0,0,0,.56.563.564.564,0,0,0,.564-.561h0a.563.563,0,0,0-.559-.563Z" fill="#55aaa0"/>
    <path id="Tracé_19432" data-name="Tracé 19432" d="M-60.747,83.477a.562.562,0,0,0-.563.561.561.561,0,0,0,.559.563h0a.564.564,0,0,0,.564-.561h0a.563.563,0,0,0-.559-.563Z" fill="#55aaa0"/>
    <path id="Tracé_19433" data-name="Tracé 19433" d="M-60.747,79.432a.562.562,0,0,0-.563.561.561.561,0,0,0,.559.563h0a.561.561,0,0,0,.564-.56h0A.565.565,0,0,0-60.747,79.432Z" fill="#55aaa0"/>
    <path id="Tracé_19434" data-name="Tracé 19434" d="M-60.747,81.454a.562.562,0,0,0-.563.561.561.561,0,0,0,.559.563h0a.563.563,0,0,0,.564-.561h0a.563.563,0,0,0-.561-.563Z" fill="#55aaa0"/>
    <path id="Tracé_19435" data-name="Tracé 19435" d="M-56.312,82.353a.562.562,0,0,0-.563.559v0a.561.561,0,0,0,.559.563h0a.563.563,0,0,0,.564-.561h0a.562.562,0,0,0-.559-.563Z" fill="#55aaa0"/>
    <path id="Tracé_19436" data-name="Tracé 19436" d="M-56.312,78.307a.563.563,0,0,0-.563.561.561.561,0,0,0,.559.563h0a.562.562,0,0,0,.564-.561h0A.564.564,0,0,0-56.312,78.307Z" fill="#55aaa0"/>
    <path id="Tracé_19437" data-name="Tracé 19437" d="M-56.312,80.33a.563.563,0,0,0-.563.561.561.561,0,0,0,.559.563h0a.562.562,0,0,0,.564-.561h0a.562.562,0,0,0-.559-.563Z" fill="#55aaa0"/>
  </g>
</svg>
